<?xml version="1.0" standalone="no"?>
<!DOCTYPE svg PUBLIC "-//W3C//DTD SVG 1.1//EN" "http://www.w3.org/Graphics/SVG/1.1/DTD/svg11.dtd" >
<svg xmlns="http://www.w3.org/2000/svg" xmlns:xlink="http://www.w3.org/1999/xlink" version="1.1">
<metadata>
Created by FontForge 20170731 at Thu Oct 26 00:11:57 2023
 By Aleksey,,,
Permit Crashing
</metadata>
<defs>
<font id="CalSans-SemiBold" horiz-adv-x="1228" >
  <font-face 
    font-family="Cal Sans SemiBold"
    font-weight="600"
    font-stretch="normal"
    units-per-em="2048"
    panose-1="0 0 0 0 0 0 0 0 0 0"
    ascent="1638"
    descent="-410"
    x-height="1065"
    cap-height="1434"
    bbox="-174 -453 2349 2333"
    underline-thickness="102"
    underline-position="-358"
    unicode-range="U+000D-FB02"
  />
<missing-glyph 
d="M133 0v1434h963v-1434h-963zM205 72h819v1290h-819v-1290z" />
    <glyph glyph-name="fi" unicode="fi" horiz-adv-x="1103" 
d="M160 1137q0 162 96.5 260t257.5 98h115v-235h-72q-121 0 -121 -127v-68h217v-236h-217v-829h-276v829h-150v236h150v72zM717 1317q0 67 48 114.5t118 47.5q71 0 118.5 -47.5t47.5 -114.5q0 -69 -47.5 -116.5t-118.5 -47.5q-70 0 -118 48t-48 116zM745 0v1065h277v-1065
h-277z" />
    <glyph glyph-name="fl" unicode="fl" horiz-adv-x="1103" 
d="M160 1137q0 162 96.5 260t257.5 98h115v-235h-72q-121 0 -121 -127v-68h217v-236h-217v-829h-276v829h-150v236h150v72zM745 0v1495h277v-1495h-277z" />
    <glyph glyph-name=".notdef" 
d="M133 0v1434h963v-1434h-963zM205 72h819v1290h-819v-1290z" />
    <glyph glyph-name=".null" horiz-adv-x="0" 
 />
    <glyph glyph-name="nonmarkingreturn" horiz-adv-x="682" 
 />
    <glyph glyph-name="CR" unicode="&#xd;" 
 />
    <glyph glyph-name="space" unicode=" " horiz-adv-x="335" 
 />
    <glyph glyph-name="exclam" unicode="!" horiz-adv-x="497" 
d="M158 395l-47 787v252h286v-252l-47 -787h-192zM66 154q0 73 53 125.5t131 52.5t130 -52.5t52 -125.5q0 -75 -52 -128t-130 -53t-131 53t-53 128z" />
    <glyph glyph-name="quotedbl" unicode="&#x22;" horiz-adv-x="733" 
d="M41 1309q-23 99 17.5 156t127.5 57q85 0 125 -63.5t19 -151.5l-82 -359h-125zM403 1309q-23 99 18 156t128 57q85 0 124.5 -63.5t18.5 -151.5l-82 -359h-125z" />
    <glyph glyph-name="numbersign" unicode="#" horiz-adv-x="1398" 
d="M637 0l98 391h-270l-98 -391h-242l96 391h-164v219h224l75 308h-268v219h320l90 358h245l-90 -358h269l88 358h245l-90 -358h176v-219h-235l-78 -308h283v-219h-334l-98 -391h-242zM510 610h289l78 308h-289z" />
    <glyph glyph-name="dollar" unicode="$" horiz-adv-x="1138" 
d="M502 -172v147q-320 26 -482 308l248 157q53 -106 136.5 -158.5t181.5 -52.5q99 0 157 45t58 119q0 42 -18.5 75.5t-45 55.5t-74.5 42.5t-87 32.5t-103 28q-172 44 -267 144.5t-95 258.5q0 166 105.5 278.5t285.5 141.5v209h225v-209q225 -40 363 -258l-246 -152
q-54 86 -109 124t-133 38q-87 0 -143 -43.5t-56 -114.5q0 -31 13 -56t30.5 -41.5t51.5 -33t60 -25.5t73 -24q145 -46 198 -70q221 -100 257 -298q8 -40 8 -86q0 -162 -97 -273.5t-270 -146.5v-162h-225z" />
    <glyph glyph-name="percent" unicode="%" horiz-adv-x="1394" 
d="M76 0l1020 1434h223l-1018 -1434h-225zM31 1133q0 133 90 225t227 92q139 0 229.5 -92.5t90.5 -224.5q0 -131 -91 -221.5t-229 -90.5t-227.5 90.5t-89.5 221.5zM229 1133q0 -52 33.5 -87.5t85.5 -35.5q55 0 88 35t31 88q0 55 -33 91t-86 36q-52 0 -85.5 -36.5
t-33.5 -90.5zM727 295q0 133 90 225t227 92q138 0 229 -92.5t91 -224.5q0 -131 -91 -221t-229 -90t-227.5 90t-89.5 221zM926 295q0 -52 33 -87.5t85 -35.5q53 -1 87 34.5t32 88.5q0 54 -33.5 90.5t-85.5 36.5t-85 -36t-33 -91z" />
    <glyph glyph-name="ampersand" unicode="&#x26;" horiz-adv-x="1290" 
d="M522 -27q-108 0 -196 34t-145.5 92.5t-88.5 135t-31 162.5q0 130 66 229.5t172 161.5l31 19l-29 35q-59 70 -85 130.5t-26 141.5q0 152 113.5 249t278.5 97q101 0 189 -42.5t143 -123t55 -180.5q0 -95 -36 -165t-142 -140l-82 -55l229 -283l192 158l150 -191l-190 -151
l231 -287h-315l-97 133l-51 -45q-49 -42 -143.5 -78.5t-192.5 -36.5zM342 412q0 -75 48.5 -131t127.5 -56q59 0 102 17.5t103 62.5l12 10l-243 297l-50 -32q-100 -67 -100 -168zM461 1116q0 -32 10.5 -58t42.5 -65l45 -55l23 14q73 41 100 78t27 86q0 52 -34.5 85.5
t-84.5 33.5q-56 0 -92.5 -33.5t-36.5 -85.5z" />
    <glyph glyph-name="quotesingle" unicode="'" horiz-adv-x="370" 
d="M41 1309q-23 99 17.5 156t127.5 57q85 0 125 -63.5t19 -151.5l-82 -359h-125z" />
    <glyph glyph-name="parenleft" unicode="(" horiz-adv-x="638" 
d="M369 -438q-188 281 -254.5 639t0 708.5t254.5 610.5l241 -129q-251 -390 -249 -818.5t249 -881.5z" />
    <glyph glyph-name="parenright" unicode=")" horiz-adv-x="638" 
d="M29 -309q247 453 249 881.5t-249 818.5l241 129q188 -260 254.5 -610.5t0 -708.5t-254.5 -639z" />
    <glyph glyph-name="asterisk" unicode="*" horiz-adv-x="720" 
d="M20 1155l58 180l209 -90l-19 223h189l-21 -223l205 86l59 -180l-223 -51l150 -174l-152 -111l-115 195l-118 -193l-154 111l154 174z" />
    <glyph glyph-name="plus" unicode="+" horiz-adv-x="1110" 
d="M436 172v363h-344v225h344v358h238v-358h344v-225h-344v-363h-238z" />
    <glyph glyph-name="comma" unicode="," horiz-adv-x="475" 
d="M123 -285l-55 138l57 20q65 22 97.5 47.5t45.5 65.5q-24 -6 -47 -6q-63 0 -111.5 48.5t-48.5 114.5t50 114t118 48q93 0 149 -64t56 -173q0 -116 -69 -203.5t-185 -128.5z" />
    <glyph glyph-name="hyphen" unicode="-" horiz-adv-x="667" 
d="M41 430v268h586v-268h-586z" />
    <glyph glyph-name="period" unicode="." horiz-adv-x="456" 
d="M229 -27q-78 0 -131 53t-53 128q0 73 53 125.5t131 52.5t130.5 -52.5t52.5 -125.5q0 -75 -52.5 -128t-130.5 -53z" />
    <glyph glyph-name="slash" unicode="/" horiz-adv-x="1396" 
d="M51 0l987 1495h308l-992 -1495h-303z" />
    <glyph glyph-name="zero" unicode="0" horiz-adv-x="1257" 
d="M629 -27q-161 0 -289.5 75t-198 202t-69.5 280v369q0 153 69.5 280t198 202t289.5 75t289.5 -75t198 -202t69.5 -280v-369q0 -153 -69.5 -280t-198 -202t-289.5 -75zM369 563q0 -146 66.5 -234.5t193.5 -88.5t193.5 88.5t66.5 234.5v301q0 158 -65 242t-195 84t-195 -84
t-65 -242v-301z" />
    <glyph glyph-name="one" unicode="1" horiz-adv-x="600" 
d="M205 0v1114h-248v31l248 289h287v-1434h-287z" />
    <glyph glyph-name="two" unicode="2" horiz-adv-x="1128" 
d="M35 0v33l573 676q144 167 144 278q0 94 -56.5 150.5t-154.5 56.5q-100 0 -154.5 -60.5t-54.5 -170.5h-297q0 220 143.5 358.5t366.5 138.5q220 0 362 -131.5t142 -324.5q0 -89 -28 -165t-97 -165l-224 -291q-69 -89 -127 -131h484v-252h-1022z" />
    <glyph glyph-name="three" unicode="3" horiz-adv-x="1069" 
d="M526 -27q-234 0 -370 118.5t-136 336.5h287q0 -207 219 -207q97 0 149 51t52 127q0 105 -66 163t-174 56l-145 -2v236h145q107 0 168.5 46.5t61.5 135.5q0 78 -48.5 128t-142.5 50q-99 0 -155 -47.5t-56 -140.5h-276q0 204 132 320t355 116q217 0 342 -117t125 -296
q0 -216 -170 -302q189 -100 189 -360q0 -179 -130.5 -295.5t-355.5 -116.5z" />
    <glyph glyph-name="four" unicode="4" horiz-adv-x="1173" 
d="M713 0v367h-693v92l736 975h243v-838h164v-229h-164v-367h-286zM403 596h312v192q0 164 8 240q-34 -59 -86 -129z" />
    <glyph glyph-name="five" unicode="5" horiz-adv-x="1085" 
d="M481 -27q-128 0 -232.5 24t-217.5 87l104 250q160 -94 326 -94q138 0 208 59.5t70 165.5q0 110 -71.5 172.5t-227.5 62.5q-159 0 -331 -90l133 824h680v-252h-457l-39 -254q41 14 121 14q124 0 220 -39t153.5 -107t86.5 -151.5t29 -179.5q0 -215 -154.5 -353.5
t-400.5 -138.5z" />
    <glyph glyph-name="six" unicode="6" horiz-adv-x="1122" 
d="M565 -27q-231 0 -377.5 138.5t-146.5 353.5q0 89 23 167t92 183l407 619h334l-332 -504q158 14 279 -41t185.5 -165.5t64.5 -258.5q0 -214 -149 -353t-380 -139zM338 465q0 -96 61.5 -160.5t165.5 -64.5q107 0 169.5 64.5t62.5 160.5q0 98 -63 170t-167 72t-166.5 -72
t-62.5 -170z" />
    <glyph glyph-name="seven" unicode="7" horiz-adv-x="1026" 
d="M604 1116q8 19 41 66h-665v252h1075l4 -31l-676 -1403h-307z" />
    <glyph glyph-name="eight" unicode="8" horiz-adv-x="1089" 
d="M545 -27q-225 0 -360.5 117t-135.5 295q0 129 56.5 219.5t152.5 140.5q-168 100 -168 308q0 179 120 293t335 114q216 0 335 -113.5t119 -293.5q0 -211 -168 -308q209 -114 209 -360q0 -178 -134.5 -295t-360.5 -117zM332 422q0 -83 61 -143t152 -60t152 60t61 143
q0 89 -60.5 148t-152.5 59t-152.5 -59t-60.5 -148zM365 1040q0 -80 50.5 -132t129.5 -52t129.5 52t52.5 132q2 75 -49 124.5t-133 49.5q-79 0 -129.5 -50t-50.5 -124z" />
    <glyph glyph-name="nine" unicode="9" horiz-adv-x="1124" 
d="M225 0l334 504q-239 -21 -383.5 109t-144.5 356q0 214 148.5 352.5t379.5 138.5t377.5 -138t146.5 -353q0 -90 -22.5 -168t-91.5 -183l-410 -618h-334zM328 969q0 -98 62.5 -170t166.5 -72t166.5 72t62.5 170q0 96 -61.5 160.5t-165.5 64.5q-107 0 -169 -64.5t-62 -160.5
z" />
    <glyph glyph-name="colon" unicode=":" horiz-adv-x="456" 
d="M229 764q-79 0 -131.5 53t-52.5 127q0 73 53 125.5t131 52.5t130.5 -52.5t52.5 -125.5q0 -75 -52.5 -127.5t-130.5 -52.5zM45 154q0 73 53 125.5t131 52.5t130.5 -52.5t52.5 -125.5q0 -75 -52.5 -128t-130.5 -53t-131 53t-53 128z" />
    <glyph glyph-name="semicolon" unicode=";" horiz-adv-x="464" 
d="M123 -285l-55 138l57 20q65 22 97.5 47.5t45.5 65.5q-24 -6 -47 -6q-63 0 -111.5 48.5t-48.5 114.5t50 114t118 48q93 0 149 -64t56 -173q0 -116 -69 -203.5t-185 -128.5zM45 944q0 73 53 125.5t131 52.5t130.5 -52.5t52.5 -125.5q0 -75 -52.5 -127.5t-130.5 -52.5
q-79 0 -131.5 53t-52.5 127z" />
    <glyph glyph-name="less" unicode="&#x3c;" horiz-adv-x="1110" 
d="M641 143l-539 492l539 491h346l-532 -483l532 -500h-346z" />
    <glyph glyph-name="equal" unicode="=" horiz-adv-x="1110" 
d="M92 752v225h926v-225h-926zM92 315v226h926v-226h-926z" />
    <glyph glyph-name="greater" unicode="&#x3e;" horiz-adv-x="1110" 
d="M469 143h-346l532 500l-532 483h346l539 -491z" />
    <glyph glyph-name="question" unicode="?" horiz-adv-x="1064" 
d="M367 825q37 -18 102 -18q114 0 176 61t62 156q0 79 -47.5 133.5t-133.5 54.5q-200 0 -200 -188h-277q0 205 127.5 320.5t349.5 115.5q214 0 335.5 -121t121.5 -303q0 -51 -10 -100t-36 -101.5t-65.5 -94.5t-104 -75t-146.5 -47l-21 -223h-192zM315 154q0 73 53.5 125.5
t131.5 52.5t130 -52.5t52 -125.5q0 -75 -52 -128t-130 -53t-131.5 53.5t-53.5 127.5z" />
    <glyph glyph-name="at" unicode="@" horiz-adv-x="1669" 
d="M860 -254q-171 0 -323 63t-260 170.5t-171 257.5t-63 318q0 167 63 316.5t171 257.5t260 171.5t323 63.5q168 0 315 -61t247 -161.5t157 -232t57 -270.5q0 -211 -114 -335t-285 -124q-86 0 -158 36t-94 108q-29 -65 -84.5 -108.5t-138.5 -43.5q-145 0 -237.5 94
t-92.5 242q0 104 51 197.5t140.5 150.5t193.5 57q137 0 199 -102l10 86h229l-45 -354q-8 -54 -8 -88q0 -33 15.5 -51.5t44.5 -18.5q24 0 47.5 13.5t47 42t38 82.5t14.5 126q0 69 -23.5 139.5t-71.5 135t-112.5 115t-154.5 80.5t-191 30q-168 0 -303 -80.5t-209 -216
t-74 -297.5q0 -164 74 -299.5t210 -215t306 -79.5q95 0 193 31l75 -203q-125 -43 -268 -43zM682 520q0 -59 38 -99t103 -40q74 0 124 54t50 128q0 61 -37.5 101.5t-103.5 40.5q-73 0 -123.5 -55t-50.5 -130z" />
    <glyph glyph-name="A" unicode="A" horiz-adv-x="1339" 
d="M-39 0l586 1434h248l583 -1434h-311l-98 272h-598l-99 -272h-311zM465 520h409l-153 391q-36 96 -51 164q-23 -89 -52 -164z" />
    <glyph glyph-name="B" unicode="B" horiz-adv-x="1175" 
d="M102 0v1434h484q228 0 353.5 -103t125.5 -274q0 -108 -52 -180.5t-179 -120.5q167 -40 239 -130t72 -231q0 -180 -137.5 -287.5t-370.5 -107.5h-535zM389 258h221q244 0 244 182q0 79 -64 123.5t-180 44.5h-221v-350zM389 842h170q115 0 165 41t50 129q0 166 -215 166
h-170v-336z" />
    <glyph glyph-name="C" unicode="C" horiz-adv-x="1355" 
d="M799 -27q-157 0 -296 58.5t-238 158.5t-156.5 236.5t-57.5 288.5q0 153 55.5 290t152.5 237.5t237.5 159t302.5 58.5q174 0 300.5 -54.5t223.5 -170.5l-203 -176q-129 135 -321 135q-134 0 -238 -65.5t-158.5 -174t-54.5 -239.5q0 -132 54.5 -239t159.5 -171.5t243 -64.5
q201 0 328 139l208 -178q-87 -104 -225 -166t-317 -62z" />
    <glyph glyph-name="D" unicode="D" horiz-adv-x="1400" 
d="M102 0v1434h512q182 0 323.5 -54t231 -151t135.5 -227.5t46 -286.5t-46 -285t-135.5 -226t-231 -150.5t-323.5 -53.5h-512zM389 258h191q124 0 216.5 34.5t148 97t82 144t26.5 181.5t-26.5 182t-81.5 145.5t-148 98.5t-217 35h-191v-918z" />
    <glyph glyph-name="E" unicode="E" horiz-adv-x="1026" 
d="M102 0v1434h840v-258h-553v-322h543v-250h-543v-346h557v-258h-844z" />
    <glyph glyph-name="F" unicode="F" horiz-adv-x="1015" 
d="M102 0v1434h842v-258h-555v-336h545v-254h-545v-586h-287z" />
    <glyph glyph-name="G" unicode="G" horiz-adv-x="1540" 
d="M799 -27q-157 0 -296 58.5t-238 158.5t-156.5 236.5t-57.5 288.5t57.5 289.5t156.5 237.5t238 159t296 59q179 0 306.5 -56.5t219.5 -168.5l-205 -176q-125 135 -321 135q-134 0 -238 -65.5t-158.5 -174t-54.5 -239.5t54.5 -239.5t158.5 -174t238 -65.5q173 0 276 82
t127 247l-471 -4v258h748q10 -72 10 -160q0 -199 -82 -353.5t-239.5 -243.5t-368.5 -89z" />
    <glyph glyph-name="H" unicode="H" horiz-adv-x="1372" 
d="M102 0v1434h287v-578h594v578h287v-1434h-287v598h-594v-598h-287z" />
    <glyph glyph-name="I" unicode="I" horiz-adv-x="491" 
d="M102 0v1434h287v-1434h-287z" />
    <glyph glyph-name="J" unicode="J" horiz-adv-x="790" 
d="M283 -23q-86 0 -161.5 15t-117.5 41l109 235q46 -32 131 -32q77 0 122.5 37.5t45.5 117.5v1043h286v-1053q0 -201 -113 -302.5t-302 -101.5z" />
    <glyph glyph-name="K" unicode="K" horiz-adv-x="1204" 
d="M885 0l-496 633v-633h-287v1434h287v-592l447 592h374l-555 -672l596 -762h-366z" />
    <glyph glyph-name="L" unicode="L" horiz-adv-x="974" 
d="M102 0v1434h287v-1176h535v-258h-822z" />
    <glyph glyph-name="M" unicode="M" horiz-adv-x="1818" 
d="M102 0v1434h357l297 -633q126 -268 159 -383q27 104 158 383l299 633h344v-1434h-280v580q0 236 20 415l-477 -995h-139l-478 995q21 -187 21 -415v-580h-281z" />
    <glyph glyph-name="N" unicode="N" horiz-adv-x="1466" 
d="M102 0v1434h217l699 -830q56 -63 94 -119q-10 76 -10 234v715h262v-1434h-186l-725 862q-60 68 -95 119q11 -84 11 -233v-748h-267z" />
    <glyph glyph-name="O" unicode="O" horiz-adv-x="1593" 
d="M799 -27q-157 0 -296 58.5t-238 158.5t-156.5 236.5t-57.5 288.5t57.5 289.5t156.5 237.5t238 159t296 59q208 0 379 -100t267.5 -270.5t96.5 -374.5q0 -152 -57 -288.5t-155 -236.5t-236.5 -158.5t-294.5 -58.5zM348 715q0 -131 53.5 -238t157.5 -172t240 -65
q134 0 237 65t156 172t53 238t-53 239t-156 174t-237 66q-135 0 -239.5 -66t-158 -174t-53.5 -239z" />
    <glyph glyph-name="P" unicode="P" horiz-adv-x="1124" 
d="M102 0v1434h484q246 0 382 -115.5t136 -337.5q0 -224 -136.5 -342.5t-381.5 -118.5h-197v-520h-287zM389 778h180q244 0 244 201q0 199 -244 199h-180v-400z" />
    <glyph glyph-name="Q" unicode="Q" horiz-adv-x="1593" 
d="M1204 -117l-102 152q-146 -62 -303 -62t-296 58.5t-238 158.5t-156.5 236.5t-57.5 288.5t57.5 289.5t156.5 237.5t238 159t296 59q208 0 379 -100t267.5 -270.5t96.5 -374.5q0 -156 -58.5 -295t-164.5 -240l197 -297h-312zM348 715q0 -131 53.5 -238t157.5 -172t240 -65
q90 0 166 28l-172 260h311l63 -94q78 122 78 281q0 131 -53 239t-156 174t-237 66q-135 0 -239.5 -66t-158 -174t-53.5 -239z" />
    <glyph glyph-name="R" unicode="R" horiz-adv-x="1128" 
d="M102 0v1434l463 2q243 2 380.5 -113t137.5 -324q0 -168 -89.5 -272.5t-254.5 -140.5l402 -586h-338l-305 455q-35 55 -56 104h-53v-559h-287zM389 817h160q117 0 180.5 46.5t63.5 133.5q0 86 -63.5 132.5t-180.5 46.5h-160v-359z" />
    <glyph glyph-name="S" unicode="S" horiz-adv-x="1138" 
d="M569 -27q-372 0 -549 310l248 157q53 -106 136.5 -158.5t181.5 -52.5q99 0 157 45t58 119q0 42 -18.5 75.5t-45 55.5t-74.5 42.5t-87 32.5t-103 28q-172 44 -267 144.5t-95 258.5q0 193 138.5 310.5t366.5 117.5q162 0 276.5 -67.5t197.5 -198.5l-246 -152
q-54 86 -109 124t-133 38q-87 0 -143 -43.5t-56 -114.5q0 -31 13 -56t30.5 -41.5t51.5 -33t60 -25.5t73 -24q145 -46 198 -70q221 -100 257 -298q8 -40 8 -86q0 -197 -141.5 -317t-383.5 -120z" />
    <glyph glyph-name="T" unicode="T" horiz-adv-x="1167" 
d="M440 0v1176h-409v258h1106v-258h-410v-1176h-287z" />
    <glyph glyph-name="U" unicode="U" horiz-adv-x="1323" 
d="M662 -27q-261 0 -420.5 155t-159.5 402v904h287v-873q0 -155 74 -240t219 -85t218.5 85t73.5 240v873h287v-904q0 -248 -159 -402.5t-420 -154.5z" />
    <glyph glyph-name="V" unicode="V" horiz-adv-x="1345" 
d="M537 0l-572 1434h332l328 -912q36 -106 51 -180q16 79 51 180l328 912h325l-567 -1434h-276z" />
    <glyph glyph-name="W" unicode="W" horiz-adv-x="2138" 
d="M461 0l-479 1434h327l230 -811q43 -154 57 -246q16 127 59 246l285 811h258l285 -811q45 -123 63 -246q13 103 53 246l230 811h328l-480 -1434h-258l-291 809q-40 113 -59 235q-19 -122 -59 -235l-291 -809h-258z" />
    <glyph glyph-name="X" unicode="X" horiz-adv-x="1245" 
d="M-20 0l471 719l-449 715h342l283 -476l288 476h334l-448 -721l471 -713h-346l-299 477l-308 -477h-339z" />
    <glyph glyph-name="Y" unicode="Y" horiz-adv-x="1159" 
d="M432 0v575l-485 859h315l225 -412q6 -11 21 -39t23.5 -44t20 -40t19.5 -45t13 -41q19 68 92 209l215 412h313l-485 -865v-569h-287z" />
    <glyph glyph-name="Z" unicode="Z" horiz-adv-x="1204" 
d="M20 0v31l652 1085q16 27 47 66h-660v252h1117v-31l-652 -1086q-14 -22 -47 -65h699v-252h-1156z" />
    <glyph glyph-name="bracketleft" unicode="[" horiz-adv-x="569" 
d="M92 -410v1905h436v-219h-174v-1466h174v-220h-436z" />
    <glyph glyph-name="backslash" unicode="\" horiz-adv-x="1499" 
d="M1448 0h-303l-991 1495h307z" />
    <glyph glyph-name="bracketright" unicode="]" horiz-adv-x="569" 
d="M477 -410h-436v220h174v1466h-174v219h436v-1905z" />
    <glyph glyph-name="asciicircum" unicode="^" horiz-adv-x="868" 
d="M41 877l258 557h270l258 -557h-264l-112 268q-16 48 -19 65q-4 -23 -18 -65l-113 -268h-260z" />
    <glyph glyph-name="underscore" unicode="_" horiz-adv-x="1118" 
d="M102 -236v236h914v-236h-914z" />
    <glyph glyph-name="grave" unicode="`" horiz-adv-x="1085" 
d="M430 1159l-203 357h326l70 -357h-193z" />
    <glyph glyph-name="a" unicode="a" horiz-adv-x="1261" 
d="M567 -27q-144 0 -265 74t-191 202t-70 279t70 280t191 204t265 75q131 0 211.5 -49t126.5 -141v168h275v-1065h-269v174q-46 -97 -127.5 -149t-216.5 -52zM317 530q0 -125 83 -216t212 -91q133 0 216 88.5t83 216.5q0 129 -83 219.5t-216 90.5q-129 0 -212 -90t-83 -218z
" />
    <glyph glyph-name="b" unicode="b" horiz-adv-x="1261" 
d="M694 -27q-135 0 -216.5 52t-127.5 149v-174h-268v1495h276v-594q45 90 125.5 138t210.5 48q108 0 205.5 -44.5t168 -119.5t112 -178.5t41.5 -216.5t-41.5 -216t-112 -177t-168 -118t-205.5 -44zM350 528q0 -128 83 -216.5t216 -88.5q129 0 212 91t83 216q0 128 -83 218
t-212 90q-133 0 -216 -90.5t-83 -219.5z" />
    <glyph glyph-name="c" unicode="c" horiz-adv-x="1073" 
d="M590 -27q-150 0 -276.5 75t-199.5 203.5t-73 280.5q0 153 72 281t201.5 203t289.5 76q144 1 259.5 -51.5t183.5 -147.5l-213 -174q-37 56 -96.5 88.5t-129.5 32.5q-129 0 -210 -90t-81 -218q0 -127 84 -217t213 -90q138 0 232 127l201 -174q-159 -205 -457 -205z" />
    <glyph glyph-name="d" unicode="d" horiz-adv-x="1261" 
d="M567 -27q-144 0 -265 74t-191 202t-70 279t70 280t191 204t265 75q130 0 210.5 -48t125.5 -138v594h277v-1495h-269v174q-46 -97 -127.5 -149t-216.5 -52zM317 530q0 -125 83 -216t212 -91q133 0 216 88.5t83 216.5q0 129 -83 219.5t-216 90.5q-129 0 -212 -90t-83 -218z
" />
    <glyph glyph-name="e" unicode="e" horiz-adv-x="1171" 
d="M592 -27q-161 0 -288 75t-195 202t-68 280q0 152 70.5 280.5t197.5 205t283 76.5t280.5 -76.5t192.5 -204.5t68 -281q0 -45 -9 -98h-796q24 -97 93 -155t171 -58q86 0 153.5 39.5t106.5 103.5l215 -161q-66 -102 -193 -165t-282 -63zM328 639h526q-24 93 -96 154t-170 61
q-97 0 -166.5 -59t-93.5 -156z" />
    <glyph glyph-name="f" unicode="f" horiz-adv-x="663" 
d="M160 1137q0 162 96.5 260t257.5 98h115v-235h-72q-121 0 -121 -127v-68h217v-236h-217v-829h-276v829h-150v236h150v72z" />
    <glyph glyph-name="g" unicode="g" horiz-adv-x="1236" 
d="M600 -436q-169 0 -293.5 46t-216.5 154l172 203q71 -82 152 -114.5t188 -32.5q113 0 195 83t82 208v47q-95 -164 -322 -164q-144 0 -262.5 73t-186 198.5t-67.5 277.5t67.5 277.5t186 198.5t262.5 73q235 0 326 -172v145h272v-971q0 -243 -153.5 -386.5t-401.5 -143.5z
M317 543q0 -126 77 -211.5t208 -85.5q133 0 211 84.5t78 212.5t-78 212.5t-211 84.5q-131 0 -208 -84.5t-77 -212.5z" />
    <glyph glyph-name="h" unicode="h" horiz-adv-x="1157" 
d="M82 0v1495h276v-577q85 172 322 172q175 0 290 -120.5t115 -318.5v-651h-276v584q0 133 -61 198.5t-168 65.5q-95 0 -158.5 -67t-63.5 -197v-584h-276z" />
    <glyph glyph-name="i" unicode="i" horiz-adv-x="440" 
d="M82 0v1065h276v-1065h-276zM53 1317q0 67 48 114.5t118 47.5q71 0 118.5 -47.5t47.5 -114.5q0 -69 -47.5 -116.5t-118.5 -47.5q-70 0 -118 48t-48 116z" />
    <glyph glyph-name="j" unicode="j" horiz-adv-x="440" 
d="M-57 -410v246h53q86 0 86 98v1131h276v-1145q0 -170 -82 -250t-243 -80h-90zM55 1317q0 67 48 114.5t118 47.5q71 0 118.5 -47.5t47.5 -114.5q0 -69 -47.5 -116.5t-118.5 -47.5q-70 0 -118 48t-48 116z" />
    <glyph glyph-name="k" unicode="k" horiz-adv-x="1142" 
d="M786 0l-428 506v-506h-276v1495h276v-860l400 430h393l-502 -496l504 -569h-367z" />
    <glyph glyph-name="l" unicode="l" horiz-adv-x="440" 
d="M82 0v1495h276v-1495h-276z" />
    <glyph glyph-name="m" unicode="m" horiz-adv-x="1863" 
d="M82 0v1065h272v-156q84 181 326 181q113 0 203.5 -52.5t142.5 -148.5q56 101 140.5 151t219.5 50q175 0 290.5 -121t115.5 -318v-651h-276v584q0 133 -57.5 198.5t-155.5 65.5q-105 0 -161.5 -59.5t-56.5 -204.5v-584h-276v584q0 133 -61 198.5t-168 65.5
q-95 0 -158.5 -67t-63.5 -197v-584h-276z" />
    <glyph glyph-name="n" unicode="n" horiz-adv-x="1157" 
d="M82 0v1065h272v-156q84 181 326 181q175 0 290 -120.5t115 -318.5v-651h-276v584q0 133 -61 198.5t-168 65.5q-95 0 -158.5 -67t-63.5 -197v-584h-276z" />
    <glyph glyph-name="o" unicode="o" horiz-adv-x="1216" 
d="M608 -27q-161 0 -292 75t-203 202.5t-72 279.5q0 153 72 280.5t203 203.5t292 76t292 -76t203.5 -204t72.5 -280t-72.5 -279.5t-203.5 -202.5t-292 -75zM317 530q0 -128 81 -216.5t210 -88.5t210 88.5t81 216.5t-81 218t-210 90t-210 -90t-81 -218z" />
    <glyph glyph-name="p" unicode="p" horiz-adv-x="1261" 
d="M82 -410v1475h272v-172q46 94 126.5 144t213.5 50q108 0 205.5 -44.5t168 -119.5t112 -178.5t41.5 -216.5t-41.5 -216t-112 -177t-168 -118t-205.5 -44q-241 0 -336 185v-568h-276zM350 528q0 -128 83 -216.5t216 -88.5q129 0 212 91t83 216q0 128 -83 218t-212 90
q-133 0 -216 -90.5t-83 -219.5z" />
    <glyph glyph-name="q" unicode="q" horiz-adv-x="1261" 
d="M903 -410v568q-95 -185 -336 -185q-144 0 -265 74t-191 202t-70 279t70 280t191 204t265 75q133 0 213.5 -50t126.5 -144v172h273v-1475h-277zM317 530q0 -125 83 -216t212 -91q133 0 216 88.5t83 216.5q0 129 -83 219.5t-216 90.5q-129 0 -212 -90t-83 -218z" />
    <glyph glyph-name="r" unicode="r" horiz-adv-x="690" 
d="M82 0v1065h268v-203q28 117 111 176t219 52v-261h-39q-123 0 -203 -77t-80 -207v-545h-276z" />
    <glyph glyph-name="s" unicode="s" horiz-adv-x="886" 
d="M446 -27q-267 0 -442 187l186 170q116 -131 250 -131q69 0 108.5 30.5t39.5 79.5q0 44 -37.5 70.5t-157.5 54.5q-83 20 -143.5 48t-95 58.5t-55 70t-27 75t-6.5 80.5q0 143 107 234.5t290 91.5q133 0 224 -41t171 -144l-201 -153q-71 114 -188 114q-60 0 -96.5 -23.5
t-36.5 -70.5q0 -32 28 -55.5t115 -46.5q113 -29 189.5 -66t117.5 -82.5t57.5 -94t16.5 -112.5q0 -148 -118.5 -246t-295.5 -98z" />
    <glyph glyph-name="t" unicode="t" horiz-adv-x="671" 
d="M485 0q-161 0 -243 80t-82 250v499h-150v236h150v215l276 29v-244h226v-236h-226v-485q0 -98 86 -98h115v-246h-152z" />
    <glyph glyph-name="u" unicode="u" horiz-adv-x="1140" 
d="M477 -25q-175 0 -290 120.5t-115 318.5v651h276v-584q0 -264 213 -264q95 0 158 67t63 197v584h277v-1065h-268v160q-39 -93 -115 -139t-199 -46z" />
    <glyph glyph-name="v" unicode="v" horiz-adv-x="1103" 
d="M414 0l-445 1065h328l213 -608q29 -82 45 -170q16 88 45 170l213 608h322l-443 -1065h-278z" />
    <glyph glyph-name="w" unicode="w" horiz-adv-x="1630" 
d="M305 0l-332 1065h324l137 -604q24 -101 33 -162q12 81 35 164l155 602h318l166 -602q23 -83 35 -164q11 73 32 162l148 604h301l-332 -1065h-299l-174 606q-25 79 -37 160q-13 -88 -33 -160l-159 -606h-318z" />
    <glyph glyph-name="x" unicode="x" horiz-adv-x="1095" 
d="M-20 0l399 532l-379 533h330l217 -338l225 338h324l-379 -537l399 -528h-336l-231 340l-240 -340h-329z" />
    <glyph glyph-name="y" unicode="y" horiz-adv-x="1103" 
d="M190 -428q-115 0 -184 20l41 265q62 -15 125 -15q76 0 128.5 44t76.5 118l14 45l-422 1016h334l207 -608q29 -82 45 -170q16 88 45 170l207 608h328l-471 -1133q-35 -84 -77.5 -147.5t-99 -112.5t-131.5 -74.5t-166 -25.5z" />
    <glyph glyph-name="z" unicode="z" horiz-adv-x="1005" 
d="M29 0v31l467 739q9 15 49 66h-494v229h918v-31l-471 -751q-8 -13 -39 -54h499v-229h-929z" />
    <glyph glyph-name="braceleft" unicode="{" horiz-adv-x="747" 
d="M553 -410q-133 0 -208 88.5t-75 233.5v317q0 54 -11 87t-40 52.5t-66.5 28t-101.5 13.5v266q128 9 173.5 44t45.5 136v318q0 145 75 233t208 88h154v-219h-39q-63 0 -98 -33t-35 -86v-309q0 -129 -65 -203.5t-173 -99.5q108 -27 173 -101.5t65 -203.5v-312
q0 -53 35 -85.5t98 -32.5h39v-220h-154z" />
    <glyph glyph-name="bar" unicode="|" horiz-adv-x="466" 
d="M102 -410v1905h263v-1905h-263z" />
    <glyph glyph-name="braceright" unicode="}" horiz-adv-x="747" 
d="M195 -410h-154v220h39q63 0 98 32.5t35 85.5v312q0 129 65 203.5t173 101.5q-108 25 -173 99.5t-65 203.5v309q0 53 -35 86t-98 33h-39v219h154q133 0 207.5 -88t74.5 -233v-318q0 -101 45.5 -136t173.5 -44v-266q-64 -5 -101.5 -13.5t-66.5 -28t-40 -52.5t-11 -87v-317
q0 -145 -74.5 -233.5t-207.5 -88.5z" />
    <glyph glyph-name="asciitilde" unicode="~" horiz-adv-x="1056" 
d="M729 469q-79 0 -146 22.5t-121 45t-100 22.5q-44 0 -73 -21t-53 -67l-191 100q99 183 303 183q65 0 121 -14t87.5 -31t68.5 -31t69 -14q44 0 74 21t53 67l191 -101q-98 -182 -283 -182z" />
    <glyph glyph-name="uni00A0" unicode="&#xa0;" horiz-adv-x="335" 
 />
    <glyph glyph-name="exclamdown" unicode="&#xa1;" horiz-adv-x="497" 
d="M340 672l47 -787v-252h-287v252l47 787h193zM66 913q0 75 52 128t130 53t131 -53t53 -128q0 -73 -53 -125.5t-131 -52.5t-130 52.5t-52 125.5z" />
    <glyph glyph-name="cent" unicode="&#xa2;" horiz-adv-x="999" 
d="M449 0v213q-176 41 -283 175.5t-107 307.5t107.5 308t282.5 176v254h225v-248q175 -28 301 -170l-189 -154q-86 96 -204 96q-123 0 -193 -71.5t-70 -190.5t70 -190.5t193 -71.5q133 0 221 109l180 -156q-126 -152 -309 -180v-207h-225z" />
    <glyph glyph-name="sterling" unicode="&#xa3;" 
d="M225 -20l-172 153l82 90q86 95 128 159t42 124q0 30 -6 57h-227v205h125q-84 109 -84 254q0 81 32.5 158t91.5 140t154 101.5t209 38.5q251 0 390.5 -134.5t139.5 -362.5h-296q0 98 -59.5 164.5t-158.5 66.5q-92 0 -149 -58t-57 -141q0 -109 71 -227h361v-205h-277
q2 -14 2 -47q0 -101 -55 -192q46 -4 154 -34t153 -30q103 0 176 102l189 -200q-66 -90 -158.5 -132t-173.5 -42q-66 0 -124 14.5t-93 31.5t-84 31.5t-100 14.5q-155 0 -226 -100z" />
    <glyph glyph-name="currency" unicode="&#xa4;" 
d="M614 219q-110 0 -200 41l-138 -149l-180 165l133 144q-69 107 -69 239q0 135 69 242l-133 143l180 166l138 -151q87 43 200 43q114 0 201 -43l137 151l181 -166l-134 -143q70 -109 70 -242q0 -130 -70 -239l134 -144l-181 -165l-137 149q-90 -41 -201 -41zM410 659
q0 -89 56.5 -147.5t147.5 -58.5t148 58.5t57 147.5t-57 149t-148 60t-147.5 -60t-56.5 -149z" />
    <glyph glyph-name="yen" unicode="&#xa5;" horiz-adv-x="1198" 
d="M451 0v172h-295v193h295v108h-295v199h252l-441 760l314 2l196 -371q104 -194 127 -279q24 90 119 279l186 371l314 -2l-439 -760h279v-199h-326v-108h326v-193h-326v-172h-286z" />
    <glyph glyph-name="brokenbar" unicode="&#xa6;" horiz-adv-x="466" 
d="M102 -410v895h263l-3 -895h-260zM102 690v805h263v-805h-263z" />
    <glyph glyph-name="section" unicode="&#xa7;" horiz-adv-x="968" 
d="M489 -223q-292 0 -428 241l193 123q41 -83 106.5 -123.5t141.5 -40.5q78 0 123 35t45 94q0 32 -14.5 57.5t-35 42.5t-58 32.5t-68 24.5t-80.5 22q-287 75 -287 315q0 91 41 161t115 105q-150 83 -150 238q0 159 107 244.5t284 85.5q131 0 222 -53t155 -156l-190 -119
q-43 67 -87.5 97t-111.5 30q-61 0 -103 -32t-42 -81q0 -26 10 -47t23 -34.5t40.5 -26.5t46 -20t56.5 -19q121 -40 153 -54q179 -80 206 -239q5 -30 5 -64q0 -168 -139 -245q133 -75 133 -250q0 -162 -113 -253t-299 -91zM360 618q0 -55 55.5 -92t137.5 -37q57 0 90 30.5
t33 82.5q0 57 -47 96t-115 39q-70 0 -112 -32.5t-42 -86.5z" />
    <glyph glyph-name="dieresis" unicode="&#xa8;" horiz-adv-x="1085" 
d="M760 1153q-70 0 -118 48t-48 116q0 67 48 114.5t118 47.5q71 0 118.5 -47.5t47.5 -114.5q0 -69 -47 -116.5t-119 -47.5zM160 1317q0 67 48 114.5t118 47.5q71 0 118.5 -47.5t47.5 -114.5q0 -69 -47 -116.5t-119 -47.5q-70 0 -118 48t-48 116z" />
    <glyph glyph-name="copyright" unicode="&#xa9;" horiz-adv-x="1722" 
d="M860 -154q-168 0 -321 65t-264.5 175t-177.5 263t-66 321q0 167 66 319.5t177.5 262t264.5 174.5t321 65t322 -65t266 -174.5t178 -262t66 -319.5q0 -168 -66.5 -321t-178.5 -263t-265.5 -175t-321.5 -65zM203 670q0 -181 87.5 -334t239 -242.5t330.5 -89.5t331.5 89.5
t240.5 242.5t88 334q0 135 -52 257.5t-140 211.5t-210.5 141.5t-257.5 52.5q-179 0 -330.5 -89t-239 -241.5t-87.5 -332.5zM375 674q0 209 135 350t360 141q254 0 385 -170l-188 -157q-71 104 -193 104q-114 0 -185 -78t-71 -190q0 -113 73.5 -192t189.5 -79q117 0 204 117
l183 -164q-153 -174 -404 -174q-152 0 -264.5 67t-168.5 177.5t-56 247.5z" />
    <glyph glyph-name="ordfeminine" unicode="&#xaa;" horiz-adv-x="929" 
d="M432 637q-164 0 -278.5 119t-114.5 291q0 171 114.5 292t278.5 121q148 0 225 -108v92h228v-789h-223v93q-77 -111 -230 -111zM76 322v202h811v-202h-811zM291 1049q0 -83 53 -142t139 -59q85 0 139 58t54 141q0 84 -54 142t-139 58q-86 0 -139 -57.5t-53 -140.5z" />
    <glyph glyph-name="guillemotleft" unicode="&#xab;" horiz-adv-x="1114" 
d="M784 98l-262 441l258 438h293l-270 -426l270 -453h-289zM61 539l258 438h293l-270 -426l270 -453h-288z" />
    <glyph glyph-name="logicalnot" unicode="&#xac;" horiz-adv-x="1030" 
d="M692 303v209h-600v225h846v-434h-246z" />
    <glyph glyph-name="registered" unicode="&#xae;" horiz-adv-x="1095" 
d="M547 471q-138 0 -256 68t-187 185.5t-69 256.5t69 256t187 184.5t256 67.5q139 0 257.5 -67.5t187.5 -184.5t69 -256t-69 -256.5t-187.5 -185.5t-257.5 -68zM180 981q0 -154 107.5 -263.5t259.5 -109.5q153 0 260.5 109.5t107.5 263.5q0 153 -107.5 262t-260.5 109
q-152 0 -259.5 -109t-107.5 -262zM350 717v530l213 2q89 2 141 -42t52 -120q0 -126 -127 -155l147 -215h-131l-115 168q-4 5 -18 39h-49v-207h-113zM463 1022h86q88 0 88 63q0 64 -88 64h-86v-127z" />
    <glyph glyph-name="macron" unicode="&#xaf;" 
d="M303 1225v184h627v-184h-627z" />
    <glyph glyph-name="degree" unicode="&#xb0;" horiz-adv-x="743" 
d="M371 793q-146 0 -240 94t-94 231q0 140 94 237t240 97q145 0 240.5 -98t95.5 -236q0 -137 -95.5 -231t-240.5 -94zM240 1118q0 -57 37 -96t94 -39q59 0 96 38.5t35 96.5q0 61 -36.5 101.5t-94.5 40.5t-94.5 -40.5t-36.5 -101.5z" />
    <glyph glyph-name="plusminus" unicode="&#xb1;" horiz-adv-x="1110" 
d="M92 752v225h344v272h238v-272h344v-225h-344v-273h-238v273h-344zM92 166v225h926v-225h-926z" />
    <glyph glyph-name="acute" unicode="&#xb4;" horiz-adv-x="1085" 
d="M467 1159l90 357h283l-181 -357h-192z" />
    <glyph glyph-name="uni00B5" unicode="&#xb5;" horiz-adv-x="1150" 
d="M82 -410v1475h276v-584q0 -264 211 -264q92 0 158 69t66 195v584h276v-1065h-276v143q-80 -168 -306 -168q-79 0 -129 39v-424h-276z" />
    <glyph glyph-name="paragraph" unicode="&#xb6;" horiz-adv-x="1075" 
d="M522 0v651h-61q-209 0 -326 101t-117 292q0 190 117 290t326 100h512v-1434h-154v1229h-143v-1229h-154z" />
    <glyph glyph-name="periodcentered" unicode="&#xb7;" horiz-adv-x="456" 
d="M229 526q-78 0 -131 53t-53 128q0 73 53 125.5t131 52.5t130.5 -52.5t52.5 -125.5q0 -75 -52.5 -128t-130.5 -53z" />
    <glyph glyph-name="cedilla" unicode="&#xb8;" 
d="M428 -436q-61 0 -98.5 12t-93.5 53l94 119q40 -35 80 -35q25 0 44 14t19 44q0 22 -15.5 34.5t-35.5 12.5q-27 0 -45 -6l-8 6l86 194l123 8l-52 -108q53 -14 81 -58.5t28 -99.5q0 -91 -61.5 -140.5t-145.5 -49.5z" />
    <glyph glyph-name="ordmasculine" unicode="&#xba;" horiz-adv-x="921" 
d="M461 639q-182 0 -302 119t-120 291q0 174 119.5 292.5t302.5 118.5t302.5 -118.5t119.5 -292.5q0 -172 -120 -291t-302 -119zM76 322v202h770v-202h-770zM272 1049q0 -82 52.5 -139.5t136.5 -57.5q83 0 134.5 57.5t51.5 139.5t-52 140t-134 58q-84 0 -136.5 -58
t-52.5 -140z" />
    <glyph glyph-name="guillemotright" unicode="&#xbb;" horiz-adv-x="1110" 
d="M330 977l262 -440l-258 -439h-293l270 426l-270 453h289zM498 98l270 426l-270 453h288l263 -440l-258 -439h-293z" />
    <glyph glyph-name="onequarter" unicode="&#xbc;" horiz-adv-x="1480" 
d="M1182 0v199h-408v96l418 565h211v-481h78v-180h-78v-199h-221zM-25 0l1264 1434h266l-1263 -1434h-267zM47 1245v47l150 142h221v-820h-221v631h-150zM985 373h197v114q0 117 20 185z" />
    <glyph glyph-name="onehalf" unicode="&#xbd;" horiz-adv-x="1525" 
d="M-25 0l1264 1434h266l-1263 -1434h-267zM45 1245v47l150 142h221v-820h-221v631h-150zM913 541q0 122 91 202t221 80q126 0 215.5 -76.5t89.5 -183.5q0 -46 -14.5 -87.5t-51.5 -96.5l-57 -86q-42 -62 -115 -121h258v-182h-635v20l349 432q43 55 43 117q0 35 -21 57.5
t-57 22.5q-47 0 -68.5 -23.5t-21.5 -74.5h-226z" />
    <glyph glyph-name="threequarters" unicode="&#xbe;" horiz-adv-x="1490" 
d="M-14 0l1263 1434h267l-1264 -1434h-266zM-4 870h207q0 -100 102 -100q43 0 69.5 25t26.5 61q0 52 -32 80.5t-80 28.5h-64v141h64q48 0 78 23.5t30 66.5q0 38 -25 64t-67 26q-43 0 -70.5 -24.5t-27.5 -69.5h-201q0 121 85 189.5t216 68.5q126 0 208.5 -67.5t82.5 -168.5
q0 -69 -29 -107.5t-94 -57.5q133 -52 133 -213q0 -99 -85 -166.5t-216 -67.5q-138 0 -224.5 69.5t-86.5 198.5zM756 178v96l418 545h210v-461h78v-180h-78v-178h-221v178h-407zM991 352h172v76q0 116 23 190z" />
    <glyph glyph-name="questiondown" unicode="&#xbf;" horiz-adv-x="1064" 
d="M698 244q-38 18 -102 18q-114 0 -176 -61t-62 -156q0 -79 47.5 -133.5t133.5 -54.5q200 0 200 188h277q0 -205 -127.5 -320.5t-349.5 -115.5q-108 0 -196 33.5t-144.5 92t-86.5 135t-30 163.5q0 51 10 100t36 101.5t65.5 94.5t104 75t146.5 47l21 223h192zM383 915
q0 75 52 128t130 53q79 0 132 -53t53 -128q0 -73 -53.5 -125.5t-131.5 -52.5t-130 52.5t-52 125.5z" />
    <glyph glyph-name="Agrave" unicode="&#xc0;" horiz-adv-x="1339" 
d="M-39 0l586 1434h248l583 -1434h-311l-98 272h-598l-99 -272h-311zM379 1884h326l69 -356h-192zM465 520h409l-153 391q-36 96 -51 164q-23 -89 -52 -164z" />
    <glyph glyph-name="Aacute" unicode="&#xc1;" horiz-adv-x="1339" 
d="M-39 0l586 1434h248l583 -1434h-311l-98 272h-598l-99 -272h-311zM465 520h409l-153 391q-36 96 -51 164q-23 -89 -52 -164zM569 1528l90 356h283l-180 -356h-193z" />
    <glyph glyph-name="Acircumflex" unicode="&#xc2;" horiz-adv-x="1339" 
d="M-39 0l586 1434h248l583 -1434h-311l-98 272h-598l-99 -272h-311zM352 1528l207 356h223l201 -356h-240l-73 164l-74 -164h-244zM465 520h409l-153 391q-36 96 -51 164q-23 -89 -52 -164z" />
    <glyph glyph-name="Atilde" unicode="&#xc3;" horiz-adv-x="1339" 
d="M-39 0l586 1434h248l583 -1434h-311l-98 272h-598l-99 -272h-311zM256 1538q0 137 80.5 212t191.5 75q56 0 105.5 -20t78.5 -43.5t62.5 -43.5t59.5 -20q71 0 71 104h178q0 -136 -63 -214.5t-184 -78.5q-56 0 -103 20.5t-73.5 45t-62 45t-71.5 20.5q-50 0 -72 -31t-22 -71
h-176zM465 520h409l-153 391q-36 96 -51 164q-23 -89 -52 -164z" />
    <glyph glyph-name="Adieresis" unicode="&#xc4;" horiz-adv-x="1339" 
d="M-39 0l586 1434h248l583 -1434h-311l-98 272h-598l-99 -272h-311zM287 1686q0 67 48 114t118 47q71 0 118 -47t47 -114q0 -70 -47 -117t-118 -47q-70 0 -118 48t-48 116zM465 520h409l-153 391q-36 96 -51 164q-23 -89 -52 -164zM721 1686q0 67 48 114t118 47
q71 0 118.5 -47t47.5 -114q0 -70 -47.5 -117t-118.5 -47q-70 0 -118 48t-48 116z" />
    <glyph glyph-name="Aring" unicode="&#xc5;" horiz-adv-x="1339" 
d="M-39 0l586 1434h248l583 -1434h-311l-98 272h-598l-99 -272h-311zM451 1724q0 89 64.5 152t154.5 63q91 0 155 -63t64 -152t-64 -152t-155 -63q-90 0 -154.5 63t-64.5 152zM465 520h409l-153 391q-36 96 -51 164q-23 -89 -52 -164zM592 1724q0 -31 23.5 -54t54.5 -23
q30 0 51.5 23t21.5 54t-21.5 53.5t-51.5 22.5q-31 0 -54.5 -22.5t-23.5 -53.5z" />
    <glyph glyph-name="AE" unicode="&#xc6;" horiz-adv-x="1988" 
d="M-61 0l966 1434h1000v-258h-553v-322h542v-250h-542v-346h557v-258h-844v285h-616l-179 -285h-331zM582 510h483v661h-49q-19 -39 -43.5 -79.5t-69 -105.5t-51.5 -75z" />
    <glyph glyph-name="Ccedilla" unicode="&#xc7;" horiz-adv-x="1355" 
d="M758 -436q-61 0 -99 12t-94 53l94 119q40 -35 80 -35q25 0 44.5 14t19.5 44q0 22 -15.5 34.5t-35.5 12.5q-27 0 -45 -6l-9 6l70 155q-152 6 -285.5 67t-228 160t-149 233t-54.5 282q0 153 55.5 290t152.5 237.5t237.5 159t302.5 58.5q174 0 300.5 -54.5t223.5 -170.5
l-203 -176q-129 135 -321 135q-134 0 -238 -65.5t-158.5 -174t-54.5 -239.5q0 -132 54.5 -239t159.5 -171.5t243 -64.5q201 0 328 139l208 -178q-76 -91 -191 -150.5t-263 -73.5l-31 -65q53 -14 81 -58.5t28 -99.5q0 -91 -61.5 -140.5t-145.5 -49.5z" />
    <glyph glyph-name="Egrave" unicode="&#xc8;" horiz-adv-x="1026" 
d="M102 0v1434h840v-258h-553v-322h543v-250h-543v-346h557v-258h-844zM242 1884h325l70 -356h-193z" />
    <glyph glyph-name="Eacute" unicode="&#xc9;" horiz-adv-x="1026" 
d="M102 0v1434h840v-258h-553v-322h543v-250h-543v-346h557v-258h-844zM432 1528l90 356h283l-180 -356h-193z" />
    <glyph glyph-name="Ecircumflex" unicode="&#xca;" horiz-adv-x="1026" 
d="M102 0v1434h840v-258h-553v-322h543v-250h-543v-346h557v-258h-844zM215 1528l207 356h223l201 -356h-240l-74 164l-73 -164h-244z" />
    <glyph glyph-name="Edieresis" unicode="&#xcb;" horiz-adv-x="1026" 
d="M102 0v1434h840v-258h-553v-322h543v-250h-543v-346h557v-258h-844zM150 1686q0 67 47.5 114t117.5 47q71 0 118.5 -47t47.5 -114q0 -70 -47.5 -117t-118.5 -47q-70 0 -117.5 48t-47.5 116zM584 1686q0 67 48 114t118 47q71 0 118 -47t47 -114q0 -70 -47 -117t-118 -47
q-70 0 -118 48t-48 116z" />
    <glyph glyph-name="Igrave" unicode="&#xcc;" horiz-adv-x="491" 
d="M102 0v1434h287v-1434h-287zM-45 1884h326l69 -356h-192z" />
    <glyph glyph-name="Iacute" unicode="&#xcd;" horiz-adv-x="491" 
d="M102 0v1434h287v-1434h-287zM145 1528l91 356h282l-180 -356h-193z" />
    <glyph glyph-name="Icircumflex" unicode="&#xce;" horiz-adv-x="491" 
d="M102 0v1434h287v-1434h-287zM-72 1528l207 356h223l201 -356h-240l-73 164l-74 -164h-244z" />
    <glyph glyph-name="Idieresis" unicode="&#xcf;" horiz-adv-x="491" 
d="M102 0v1434h287v-1434h-287zM-137 1686q0 67 48 114t118 47q71 0 118.5 -47t47.5 -114q0 -70 -47.5 -117t-118.5 -47q-70 0 -118 48t-48 116zM297 1686q0 67 48 114t118 47q71 0 118.5 -47t47.5 -114q0 -70 -47.5 -117t-118.5 -47q-70 0 -118 48t-48 116z" />
    <glyph glyph-name="Eth" unicode="&#xd0;" horiz-adv-x="1499" 
d="M201 0v596h-193v242h193v596h512q182 0 323.5 -54t230.5 -151.5t135 -227.5t46 -286t-46 -285t-135 -226t-230.5 -150.5t-323.5 -53.5h-512zM487 258h191q124 0 216.5 34.5t148 97t82 144t26.5 181.5t-26.5 182t-81.5 145.5t-148 98.5t-217 35h-191v-338h297v-242h-297
v-338z" />
    <glyph glyph-name="Ntilde" unicode="&#xd1;" horiz-adv-x="1466" 
d="M102 0v1434h217l699 -830q56 -63 94 -119q-10 76 -10 234v715h262v-1434h-186l-725 862q-60 68 -95 119q11 -84 11 -233v-748h-267zM356 1538q0 70 23 126t62 90.5t87 52.5t101 18q56 0 105.5 -20t78.5 -43.5t62 -43.5t59 -20q72 0 72 104h178q0 -136 -63.5 -214.5
t-184.5 -78.5q-46 0 -84.5 13.5t-65 32.5t-50.5 38.5t-51.5 33t-57.5 13.5q-50 0 -72.5 -31t-22.5 -71h-176z" />
    <glyph glyph-name="Ograve" unicode="&#xd2;" horiz-adv-x="1593" 
d="M799 -27q-157 0 -296 58.5t-238 158.5t-156.5 236.5t-57.5 288.5t57.5 289.5t156.5 237.5t238 159t296 59q208 0 379 -100t267.5 -270.5t96.5 -374.5q0 -152 -57 -288.5t-155 -236.5t-236.5 -158.5t-294.5 -58.5zM348 715q0 -131 53.5 -238t157.5 -172t240 -65
q134 0 237 65t156 172t53 238t-53 239t-156 174t-237 66q-135 0 -239.5 -66t-158 -174t-53.5 -239zM508 1884h326l69 -356h-192z" />
    <glyph glyph-name="Oacute" unicode="&#xd3;" horiz-adv-x="1593" 
d="M799 -27q-157 0 -296 58.5t-238 158.5t-156.5 236.5t-57.5 288.5t57.5 289.5t156.5 237.5t238 159t296 59q208 0 379 -100t267.5 -270.5t96.5 -374.5q0 -152 -57 -288.5t-155 -236.5t-236.5 -158.5t-294.5 -58.5zM348 715q0 -131 53.5 -238t157.5 -172t240 -65
q134 0 237 65t156 172t53 238t-53 239t-156 174t-237 66q-135 0 -239.5 -66t-158 -174t-53.5 -239zM698 1528l90 356h283l-180 -356h-193z" />
    <glyph glyph-name="Ocircumflex" unicode="&#xd4;" horiz-adv-x="1593" 
d="M799 -27q-157 0 -296 58.5t-238 158.5t-156.5 236.5t-57.5 288.5t57.5 289.5t156.5 237.5t238 159t296 59q208 0 379 -100t267.5 -270.5t96.5 -374.5q0 -152 -57 -288.5t-155 -236.5t-236.5 -158.5t-294.5 -58.5zM348 715q0 -131 53.5 -238t157.5 -172t240 -65
q134 0 237 65t156 172t53 238t-53 239t-156 174t-237 66q-135 0 -239.5 -66t-158 -174t-53.5 -239zM481 1528l207 356h223l201 -356h-240l-73 164l-74 -164h-244z" />
    <glyph glyph-name="Otilde" unicode="&#xd5;" horiz-adv-x="1593" 
d="M799 -27q-157 0 -296 58.5t-238 158.5t-156.5 236.5t-57.5 288.5t57.5 289.5t156.5 237.5t238 159t296 59q208 0 379 -100t267.5 -270.5t96.5 -374.5q0 -152 -57 -288.5t-155 -236.5t-236.5 -158.5t-294.5 -58.5zM348 715q0 -131 53.5 -238t157.5 -172t240 -65
q134 0 237 65t156 172t53 238t-53 239t-156 174t-237 66q-135 0 -239.5 -66t-158 -174t-53.5 -239zM385 1538q0 137 80.5 212t191.5 75q56 0 105.5 -20t78.5 -43.5t62.5 -43.5t59.5 -20q71 0 71 104h178q0 -136 -63 -214.5t-184 -78.5q-56 0 -103 20.5t-73.5 45t-62 45
t-71.5 20.5q-50 0 -72 -31t-22 -71h-176z" />
    <glyph glyph-name="Odieresis" unicode="&#xd6;" horiz-adv-x="1593" 
d="M799 -27q-157 0 -296 58.5t-238 158.5t-156.5 236.5t-57.5 288.5t57.5 289.5t156.5 237.5t238 159t296 59q208 0 379 -100t267.5 -270.5t96.5 -374.5q0 -152 -57 -288.5t-155 -236.5t-236.5 -158.5t-294.5 -58.5zM348 715q0 -131 53.5 -238t157.5 -172t240 -65
q134 0 237 65t156 172t53 238t-53 239t-156 174t-237 66q-135 0 -239.5 -66t-158 -174t-53.5 -239zM416 1686q0 67 48 114t118 47q71 0 118.5 -47t47.5 -114q0 -70 -47 -117t-119 -47q-70 0 -118 48t-48 116zM850 1686q0 67 48 114t118 47q71 0 118.5 -47t47.5 -114
q0 -70 -47 -117t-119 -47q-70 0 -118 48t-48 116z" />
    <glyph glyph-name="multiply" unicode="&#xd7;" horiz-adv-x="1110" 
d="M821 152l-266 266l-268 -271l-154 158l266 268l-268 267l158 155l266 -266l266 268l154 -157l-264 -267l268 -268z" />
    <glyph glyph-name="Oslash" unicode="&#xd8;" horiz-adv-x="1593" 
d="M799 -27q-228 0 -414 121l-137 -176h-168l201 258q-109 103 -169.5 242.5t-60.5 296.5q0 152 57.5 289.5t156.5 237.5t238 159t296 59q219 0 393 -108l139 180h168l-201 -260q115 -104 179.5 -248.5t64.5 -308.5q0 -152 -57 -288.5t-155 -236.5t-236.5 -158.5
t-294.5 -58.5zM348 715q0 -186 105 -316l571 738q-97 57 -225 57q-135 0 -239.5 -66t-158 -174t-53.5 -239zM551 309q104 -69 248 -69q134 0 237 65t156 172t53 238q0 201 -119 336z" />
    <glyph glyph-name="Ugrave" unicode="&#xd9;" horiz-adv-x="1323" 
d="M662 -27q-261 0 -420.5 155t-159.5 402v904h287v-873q0 -155 74 -240t219 -85t218.5 85t73.5 240v873h287v-904q0 -248 -159 -402.5t-420 -154.5zM371 1851h325l70 -356h-193z" />
    <glyph glyph-name="Uacute" unicode="&#xda;" horiz-adv-x="1323" 
d="M662 -27q-261 0 -420.5 155t-159.5 402v904h287v-873q0 -155 74 -240t219 -85t218.5 85t73.5 240v873h287v-904q0 -248 -159 -402.5t-420 -154.5zM561 1495l90 356h283l-180 -356h-193z" />
    <glyph glyph-name="Ucircumflex" unicode="&#xdb;" horiz-adv-x="1323" 
d="M662 -27q-261 0 -420.5 155t-159.5 402v904h287v-873q0 -155 74 -240t219 -85t218.5 85t73.5 240v873h287v-904q0 -248 -159 -402.5t-420 -154.5zM344 1495l207 356h223l201 -356h-240l-73 164l-74 -164h-244z" />
    <glyph glyph-name="Udieresis" unicode="&#xdc;" horiz-adv-x="1323" 
d="M662 -27q-261 0 -420.5 155t-159.5 402v904h287v-873q0 -155 74 -240t219 -85t218.5 85t73.5 240v873h287v-904q0 -248 -159 -402.5t-420 -154.5zM279 1653q0 67 47.5 114.5t117.5 47.5q71 0 118.5 -47.5t47.5 -114.5q0 -69 -47 -116.5t-119 -47.5q-70 0 -117.5 48
t-47.5 116zM713 1653q0 67 48 114.5t118 47.5q71 0 118 -47.5t47 -114.5q0 -70 -47 -117t-118 -47q-70 0 -118 48t-48 116z" />
    <glyph glyph-name="Yacute" unicode="&#xdd;" horiz-adv-x="1159" 
d="M432 0v575l-485 859h315l225 -412q6 -11 21 -39t23.5 -44t20 -40t19.5 -45t13 -41q19 68 92 209l215 412h313l-485 -865v-569h-287zM479 1528l90 356h283l-180 -356h-193z" />
    <glyph glyph-name="Thorn" unicode="&#xde;" horiz-adv-x="1132" 
d="M102 0v1434h283v-242h203q243 0 380.5 -123.5t137.5 -347.5q0 -226 -137.5 -351.5t-380.5 -125.5h-199v-244h-287zM389 502h182q119 0 181.5 54t62.5 163q0 107 -62.5 161t-181.5 54h-182v-432z" />
    <glyph glyph-name="germandbls" unicode="&#xdf;" horiz-adv-x="1163" 
d="M649 -27q-164 0 -262 56l105 237q70 -45 149 -45q80 0 143.5 56t63.5 163q0 52 -19.5 97.5t-59.5 81.5t-110.5 50.5t-162.5 0.5v221q101 0 164 48.5t63 154.5q0 74 -51.5 125t-130.5 51q-85 0 -139 -56.5t-54 -160.5v-1053h-276v1053q0 97 34 183t95 149t151 100t197 37
q100 0 185 -33.5t142 -89t89 -127t32 -148.5q0 -79 -36 -159t-117 -138q140 -55 209 -163.5t69 -229.5q0 -87 -31.5 -169t-89.5 -147.5t-149.5 -105t-202.5 -39.5z" />
    <glyph glyph-name="agrave" unicode="&#xe0;" horiz-adv-x="1261" 
d="M567 -27q-144 0 -265 74t-191 202t-70 279t70 280t191 204t265 75q131 0 211.5 -49t126.5 -141v168h275v-1065h-269v174q-46 -97 -127.5 -149t-216.5 -52zM317 530q0 -125 83 -216t212 -91q133 0 216 88.5t83 216.5q0 129 -83 219.5t-216 90.5q-129 0 -212 -90t-83 -218z
M336 1516h326l69 -357h-192z" />
    <glyph glyph-name="aacute" unicode="&#xe1;" horiz-adv-x="1261" 
d="M567 -27q-144 0 -265 74t-191 202t-70 279t70 280t191 204t265 75q131 0 211.5 -49t126.5 -141v168h275v-1065h-269v174q-46 -97 -127.5 -149t-216.5 -52zM317 530q0 -125 83 -216t212 -91q133 0 216 88.5t83 216.5q0 129 -83 219.5t-216 90.5q-129 0 -212 -90t-83 -218z
M526 1159l90 357h283l-180 -357h-193z" />
    <glyph glyph-name="acircumflex" unicode="&#xe2;" horiz-adv-x="1261" 
d="M567 -27q-144 0 -265 74t-191 202t-70 279t70 280t191 204t265 75q131 0 211.5 -49t126.5 -141v168h275v-1065h-269v174q-46 -97 -127.5 -149t-216.5 -52zM309 1159l207 357h223l201 -357h-240l-73 164l-74 -164h-244zM317 530q0 -125 83 -216t212 -91q133 0 216 88.5
t83 216.5q0 129 -83 219.5t-216 90.5q-129 0 -212 -90t-83 -218z" />
    <glyph glyph-name="atilde" unicode="&#xe3;" horiz-adv-x="1261" 
d="M567 -27q-144 0 -265 74t-191 202t-70 279t70 280t191 204t265 75q131 0 211.5 -49t126.5 -141v168h275v-1065h-269v174q-46 -97 -127.5 -149t-216.5 -52zM213 1169q0 137 80.5 212t191.5 75q56 0 105.5 -20t78.5 -43.5t62.5 -43.5t59.5 -20q71 0 71 105h178
q0 -136 -63 -214.5t-184 -78.5q-56 0 -103 20.5t-73.5 45t-62 45t-71.5 20.5q-50 0 -72 -31.5t-22 -71.5h-176zM317 530q0 -125 83 -216t212 -91q133 0 216 88.5t83 216.5q0 129 -83 219.5t-216 90.5q-129 0 -212 -90t-83 -218z" />
    <glyph glyph-name="adieresis" unicode="&#xe4;" horiz-adv-x="1261" 
d="M567 -27q-144 0 -265 74t-191 202t-70 279t70 280t191 204t265 75q131 0 211.5 -49t126.5 -141v168h275v-1065h-269v174q-46 -97 -127.5 -149t-216.5 -52zM244 1317q0 67 48 114.5t118 47.5q71 0 118 -47.5t47 -114.5q0 -70 -47 -117t-118 -47q-70 0 -118 48t-48 116z
M317 530q0 -125 83 -216t212 -91q133 0 216 88.5t83 216.5q0 129 -83 219.5t-216 90.5q-129 0 -212 -90t-83 -218zM678 1317q0 67 48 114.5t118 47.5q71 0 118.5 -47.5t47.5 -114.5q0 -69 -47 -116.5t-119 -47.5q-70 0 -118 48t-48 116z" />
    <glyph glyph-name="aring" unicode="&#xe5;" horiz-adv-x="1261" 
d="M567 -27q-144 0 -265 74t-191 202t-70 279t70 280t191 204t265 75q131 0 211.5 -49t126.5 -141v168h275v-1065h-269v174q-46 -97 -127.5 -149t-216.5 -52zM317 530q0 -125 83 -216t212 -91q133 0 216 88.5t83 216.5q0 129 -83 219.5t-216 90.5q-129 0 -212 -90t-83 -218z
M408 1356q0 89 64.5 152t154.5 63q91 0 155 -63t64 -152t-64 -152t-155 -63q-90 0 -154.5 63t-64.5 152zM549 1356q0 -31 23.5 -54.5t54.5 -23.5q30 0 51.5 23.5t21.5 54.5t-21.5 53.5t-51.5 22.5q-31 0 -54.5 -22.5t-23.5 -53.5z" />
    <glyph glyph-name="ae" unicode="&#xe6;" horiz-adv-x="2111" 
d="M567 -27q-144 0 -265 74t-191 202t-70 279t70 280t191 204t265 75q219 0 336 -133v111h277v-121q123 146 362 146q151 0 273.5 -76t190 -203.5t67.5 -280.5q0 -48 -9 -100h-811q24 -96 92 -150.5t177 -54.5q94 0 162.5 36.5t103.5 100.5l219 -161q-66 -101 -191.5 -163.5
t-273.5 -62.5q-241 0 -362 144v-119h-269v115q-119 -142 -344 -142zM322 530q0 -126 81 -216.5t209 -90.5q133 0 216 88.5t83 216.5q0 129 -83 219.5t-216 90.5q-129 0 -209.5 -90t-80.5 -218zM1249 655h541q-29 87 -101 143t-171 56q-98 0 -170 -54.5t-99 -144.5z" />
    <glyph glyph-name="ccedilla" unicode="&#xe7;" horiz-adv-x="1073" 
d="M571 -436q-61 0 -98.5 12t-93.5 53l94 119q40 -35 80 -35q25 0 44 14t19 44q0 22 -15.5 34.5t-35.5 12.5q-27 0 -45 -6l-8 6l70 155q-148 2 -272.5 77t-196.5 203t-72 279q0 153 72 281t201.5 203t289.5 76q144 1 259.5 -51.5t183.5 -147.5l-213 -174q-37 56 -96.5 88.5
t-129.5 32.5q-129 0 -210 -90t-81 -218q0 -127 84 -217t213 -90q138 0 232 127l201 -174q-129 -163 -345 -196l-32 -70q53 -14 80.5 -58.5t27.5 -99.5q0 -91 -61.5 -140.5t-145.5 -49.5z" />
    <glyph glyph-name="egrave" unicode="&#xe8;" horiz-adv-x="1171" 
d="M592 -27q-161 0 -288 75t-195 202t-68 280q0 152 70.5 280.5t197.5 205t283 76.5t280.5 -76.5t192.5 -204.5t68 -281q0 -45 -9 -98h-796q24 -97 93 -155t171 -58q86 0 153.5 39.5t106.5 103.5l215 -161q-66 -102 -193 -165t-282 -63zM295 1516h326l69 -357h-192zM328 639
h526q-24 93 -96 154t-170 61q-97 0 -166.5 -59t-93.5 -156z" />
    <glyph glyph-name="eacute" unicode="&#xe9;" horiz-adv-x="1171" 
d="M592 -27q-161 0 -288 75t-195 202t-68 280q0 152 70.5 280.5t197.5 205t283 76.5t280.5 -76.5t192.5 -204.5t68 -281q0 -45 -9 -98h-796q24 -97 93 -155t171 -58q86 0 153.5 39.5t106.5 103.5l215 -161q-66 -102 -193 -165t-282 -63zM328 639h526q-24 93 -96 154t-170 61
q-97 0 -166.5 -59t-93.5 -156zM485 1159l90 357h283l-180 -357h-193z" />
    <glyph glyph-name="ecircumflex" unicode="&#xea;" horiz-adv-x="1171" 
d="M592 -27q-161 0 -288 75t-195 202t-68 280q0 152 70.5 280.5t197.5 205t283 76.5t280.5 -76.5t192.5 -204.5t68 -281q0 -45 -9 -98h-796q24 -97 93 -155t171 -58q86 0 153.5 39.5t106.5 103.5l215 -161q-66 -102 -193 -165t-282 -63zM268 1159l207 357h223l201 -357h-240
l-73 164l-74 -164h-244zM328 639h526q-24 93 -96 154t-170 61q-97 0 -166.5 -59t-93.5 -156z" />
    <glyph glyph-name="edieresis" unicode="&#xeb;" horiz-adv-x="1171" 
d="M592 -27q-161 0 -288 75t-195 202t-68 280q0 152 70.5 280.5t197.5 205t283 76.5t280.5 -76.5t192.5 -204.5t68 -281q0 -45 -9 -98h-796q24 -97 93 -155t171 -58q86 0 153.5 39.5t106.5 103.5l215 -161q-66 -102 -193 -165t-282 -63zM203 1317q0 67 48 114.5t118 47.5
q71 0 118.5 -47.5t47.5 -114.5q0 -69 -47.5 -116.5t-118.5 -47.5q-70 0 -118 48t-48 116zM328 639h526q-24 93 -96 154t-170 61q-97 0 -166.5 -59t-93.5 -156zM637 1317q0 67 48 114.5t118 47.5q71 0 118.5 -47.5t47.5 -114.5q0 -69 -47.5 -116.5t-118.5 -47.5
q-70 0 -118 48t-48 116z" />
    <glyph glyph-name="igrave" unicode="&#xec;" horiz-adv-x="440" 
d="M82 0v1065h276v-1065h-276zM-74 1516h326l70 -357h-193z" />
    <glyph glyph-name="iacute" unicode="&#xed;" horiz-adv-x="440" 
d="M82 0v1065h276v-1065h-276zM117 1159l90 357h282l-180 -357h-192z" />
    <glyph glyph-name="icircumflex" unicode="&#xee;" horiz-adv-x="440" 
d="M82 0v1065h276v-1065h-276zM-100 1159l206 357h224l200 -357h-239l-74 164l-74 -164h-243z" />
    <glyph glyph-name="idieresis" unicode="&#xef;" horiz-adv-x="440" 
d="M82 0v1065h276v-1065h-276zM-135 1317q0 67 48 114.5t118 47.5q71 0 118.5 -47.5t47.5 -114.5q0 -69 -47.5 -116.5t-118.5 -47.5q-70 0 -118 48t-48 116zM238 1317q0 67 47.5 114.5t117.5 47.5q71 0 118.5 -47.5t47.5 -114.5q0 -69 -47.5 -116.5t-118.5 -47.5
q-70 0 -117.5 48t-47.5 116z" />
    <glyph glyph-name="eth" unicode="&#xf0;" horiz-adv-x="1146" 
d="M580 -27q-155 0 -279 70.5t-192 189t-68 261.5q0 112 42.5 206.5t110 154.5t147.5 93t159 33q119 0 196 -61q-21 25 -64 65.5t-59 56.5l-92 93l-96 -84l-119 133l90 78l-84 84l228 176l67 -76l95 82l116 -133l-96 -84l170 -195q254 -294 254 -577q0 -262 -146.5 -414
t-379.5 -152zM322 494q0 -108 71.5 -184.5t186.5 -76.5q117 0 187.5 75t70.5 186q0 110 -71 186t-187 76t-187 -76t-71 -186z" />
    <glyph glyph-name="ntilde" unicode="&#xf1;" horiz-adv-x="1157" 
d="M82 0v1065h272v-156q84 181 326 181q175 0 290 -120.5t115 -318.5v-651h-276v584q0 133 -61 198.5t-168 65.5q-95 0 -158.5 -67t-63.5 -197v-584h-276zM193 1180q0 70 23 126t62 90t86.5 52t100.5 18q56 0 105.5 -20t78.5 -43.5t62 -43.5t59 -20q72 0 72 105h178
q0 -136 -63.5 -214.5t-184.5 -78.5q-46 0 -84.5 13.5t-65 32.5t-50.5 38.5t-51.5 33t-57.5 13.5q-50 0 -72 -31t-22 -71h-176z" />
    <glyph glyph-name="ograve" unicode="&#xf2;" horiz-adv-x="1216" 
d="M608 -27q-161 0 -292 75t-203 202.5t-72 279.5q0 153 72 280.5t203 203.5t292 76t292 -76t203.5 -204t72.5 -280t-72.5 -279.5t-203.5 -202.5t-292 -75zM317 530q0 -128 81 -216.5t210 -88.5t210 88.5t81 216.5t-81 218t-210 90t-210 -90t-81 -218zM317 1516h326l70 -357
h-193z" />
    <glyph glyph-name="oacute" unicode="&#xf3;" horiz-adv-x="1216" 
d="M608 -27q-161 0 -292 75t-203 202.5t-72 279.5q0 153 72 280.5t203 203.5t292 76t292 -76t203.5 -204t72.5 -280t-72.5 -279.5t-203.5 -202.5t-292 -75zM317 530q0 -128 81 -216.5t210 -88.5t210 88.5t81 216.5t-81 218t-210 90t-210 -90t-81 -218zM508 1159l90 357h283
l-181 -357h-192z" />
    <glyph glyph-name="ocircumflex" unicode="&#xf4;" horiz-adv-x="1216" 
d="M608 -27q-161 0 -292 75t-203 202.5t-72 279.5q0 153 72 280.5t203 203.5t292 76t292 -76t203.5 -204t72.5 -280t-72.5 -279.5t-203.5 -202.5t-292 -75zM291 1159l207 357h223l201 -357h-240l-74 164l-73 -164h-244zM317 530q0 -128 81 -216.5t210 -88.5t210 88.5
t81 216.5t-81 218t-210 90t-210 -90t-81 -218z" />
    <glyph glyph-name="otilde" unicode="&#xf5;" horiz-adv-x="1216" 
d="M608 -27q-161 0 -292 75t-203 202.5t-72 279.5q0 153 72 280.5t203 203.5t292 76t292 -76t203.5 -204t72.5 -280t-72.5 -279.5t-203.5 -202.5t-292 -75zM195 1169q0 137 80.5 212t191.5 75q56 0 105.5 -20t78.5 -43.5t62 -43.5t59 -20q72 0 72 105h178
q0 -136 -63.5 -214.5t-184.5 -78.5q-46 0 -84.5 13.5t-65 32.5t-50.5 38.5t-51.5 33t-57.5 13.5q-50 0 -72 -31.5t-22 -71.5h-176zM317 530q0 -128 81 -216.5t210 -88.5t210 88.5t81 216.5t-81 218t-210 90t-210 -90t-81 -218z" />
    <glyph glyph-name="odieresis" unicode="&#xf6;" horiz-adv-x="1216" 
d="M608 -27q-161 0 -292 75t-203 202.5t-72 279.5q0 153 72 280.5t203 203.5t292 76t292 -76t203.5 -204t72.5 -280t-72.5 -279.5t-203.5 -202.5t-292 -75zM225 1317q0 67 48 114.5t118 47.5q71 0 118.5 -47.5t47.5 -114.5q0 -69 -47.5 -116.5t-118.5 -47.5q-70 0 -118 48
t-48 116zM317 530q0 -128 81 -216.5t210 -88.5t210 88.5t81 216.5t-81 218t-210 90t-210 -90t-81 -218zM659 1317q0 67 48 114.5t118 47.5q71 0 118.5 -47.5t47.5 -114.5q0 -69 -47.5 -116.5t-118.5 -47.5q-70 0 -118 48t-48 116z" />
    <glyph glyph-name="divide" unicode="&#xf7;" horiz-adv-x="1112" 
d="M92 453v225h928l-2 -225h-926zM395 188q0 64 45.5 109t112.5 45t112.5 -45t45.5 -109q0 -66 -45.5 -110.5t-112.5 -44.5t-112.5 45t-45.5 110zM399 940q0 64 45.5 109t112.5 45t112.5 -45t45.5 -109q0 -66 -45.5 -111t-112.5 -45t-112.5 45.5t-45.5 110.5z" />
    <glyph glyph-name="oslash" unicode="&#xf8;" horiz-adv-x="1216" 
d="M608 -27q-171 0 -309 86l-106 -139h-142l160 207q-81 78 -125.5 182t-44.5 221q0 153 72 280.5t203 203.5t292 76q157 0 289 -74l102 133h142l-154 -199q90 -77 139.5 -186t49.5 -234q0 -152 -72.5 -279.5t-203.5 -202.5t-292 -75zM317 530q0 -110 60 -188l360 467
q-63 29 -129 29q-129 0 -210 -90t-81 -218zM459 264q67 -39 149 -39q129 0 210 88.5t81 216.5q0 122 -74 209z" />
    <glyph glyph-name="ugrave" unicode="&#xf9;" horiz-adv-x="1140" 
d="M477 -25q-175 0 -290 120.5t-115 318.5v651h276v-584q0 -264 213 -264q95 0 158 67t63 197v584h277v-1065h-268v160q-39 -93 -115 -139t-199 -46zM268 1516h326l70 -357h-193z" />
    <glyph glyph-name="uacute" unicode="&#xfa;" horiz-adv-x="1140" 
d="M477 -25q-175 0 -290 120.5t-115 318.5v651h276v-584q0 -264 213 -264q95 0 158 67t63 197v584h277v-1065h-268v160q-39 -93 -115 -139t-199 -46zM459 1159l90 357h282l-180 -357h-192z" />
    <glyph glyph-name="ucircumflex" unicode="&#xfb;" horiz-adv-x="1140" 
d="M477 -25q-175 0 -290 120.5t-115 318.5v651h276v-584q0 -264 213 -264q95 0 158 67t63 197v584h277v-1065h-268v160q-39 -93 -115 -139t-199 -46zM242 1159l207 357h223l200 -357h-239l-74 164l-74 -164h-243z" />
    <glyph glyph-name="udieresis" unicode="&#xfc;" horiz-adv-x="1140" 
d="M477 -25q-175 0 -290 120.5t-115 318.5v651h276v-584q0 -264 213 -264q95 0 158 67t63 197v584h277v-1065h-268v160q-39 -93 -115 -139t-199 -46zM176 1317q0 67 48 114.5t118 47.5q71 0 118.5 -47.5t47.5 -114.5q0 -69 -47 -116.5t-119 -47.5q-70 0 -118 48t-48 116z
M610 1317q0 67 48 114.5t118 47.5q71 0 118.5 -47.5t47.5 -114.5q0 -69 -47 -116.5t-119 -47.5q-70 0 -118 48t-48 116z" />
    <glyph glyph-name="yacute" unicode="&#xfd;" horiz-adv-x="1103" 
d="M190 -428q-115 0 -184 20l41 265q62 -15 125 -15q76 0 128.5 44t76.5 118l14 45l-422 1016h334l207 -608q29 -82 45 -170q16 88 45 170l207 608h328l-471 -1133q-35 -84 -77.5 -147.5t-99 -112.5t-131.5 -74.5t-166 -25.5zM446 1159l91 357h282l-180 -357h-193z" />
    <glyph glyph-name="thorn" unicode="&#xfe;" horiz-adv-x="1261" 
d="M82 -410v1905h276v-594q45 90 125.5 138t210.5 48q108 0 205.5 -44.5t168 -119.5t112 -178.5t41.5 -216.5t-41.5 -216t-112 -177t-168 -118t-205.5 -44q-241 0 -336 185v-568h-276zM350 528q0 -128 83 -216.5t216 -88.5q129 0 212 91t83 216q0 128 -83 218t-212 90
q-133 0 -216 -90.5t-83 -219.5z" />
    <glyph glyph-name="ydieresis" unicode="&#xff;" horiz-adv-x="1103" 
d="M190 -428q-115 0 -184 20l41 265q62 -15 125 -15q76 0 128.5 44t76.5 118l14 45l-422 1016h334l207 -608q29 -82 45 -170q16 88 45 170l207 608h328l-471 -1133q-35 -84 -77.5 -147.5t-99 -112.5t-131.5 -74.5t-166 -25.5zM164 1317q0 67 48 114.5t118 47.5
q71 0 118.5 -47.5t47.5 -114.5q0 -69 -47 -116.5t-119 -47.5q-70 0 -118 48t-48 116zM598 1317q0 67 48 114.5t118 47.5q71 0 118.5 -47.5t47.5 -114.5q0 -69 -47 -116.5t-119 -47.5q-70 0 -118 48t-48 116z" />
    <glyph glyph-name="Amacron" unicode="&#x100;" horiz-adv-x="1339" 
d="M-39 0l586 1434h248l583 -1434h-311l-98 272h-598l-99 -272h-311zM358 1593v185h627v-185h-627zM465 520h409l-153 391q-36 96 -51 164q-23 -89 -52 -164z" />
    <glyph glyph-name="amacron" unicode="&#x101;" horiz-adv-x="1261" 
d="M567 -27q-144 0 -265 74t-191 202t-70 279t70 280t191 204t265 75q131 0 211.5 -49t126.5 -141v168h275v-1065h-269v174q-46 -97 -127.5 -149t-216.5 -52zM315 1225v184h627v-184h-627zM317 530q0 -125 83 -216t212 -91q133 0 216 88.5t83 216.5q0 129 -83 219.5
t-216 90.5q-129 0 -212 -90t-83 -218z" />
    <glyph glyph-name="Abreve" unicode="&#x102;" horiz-adv-x="1339" 
d="M-39 0l586 1434h248l583 -1434h-311l-98 272h-598l-99 -272h-311zM342 1794h219q-2 -46 27 -80.5t82 -34.5q55 0 82.5 34t25.5 81h219q0 -126 -88.5 -205.5t-238.5 -79.5q-149 0 -238.5 79.5t-89.5 205.5zM465 520h409l-153 391q-36 96 -51 164q-23 -89 -52 -164z" />
    <glyph glyph-name="abreve" unicode="&#x103;" horiz-adv-x="1261" 
d="M567 -27q-144 0 -265 74t-191 202t-70 279t70 280t191 204t265 75q131 0 211.5 -49t126.5 -141v168h275v-1065h-269v174q-46 -97 -127.5 -149t-216.5 -52zM299 1425h219q-2 -46 27 -80t82 -34q55 0 82.5 33.5t25.5 80.5h219q0 -126 -88.5 -205t-238.5 -79
q-149 0 -238.5 79t-89.5 205zM317 530q0 -125 83 -216t212 -91q133 0 216 88.5t83 216.5q0 129 -83 219.5t-216 90.5q-129 0 -212 -90t-83 -218z" />
    <glyph glyph-name="Aogonek" unicode="&#x104;" horiz-adv-x="1339" 
d="M-39 0l586 1434h248l583 -1434h-102l-105 -76q-57 -41 -57 -94q0 -36 31 -55t74 -19q25 0 53 8l49 -178q-78 -22 -154 -22q-115 0 -180 57t-65 154q0 66 32 115.5t113 109.5l-98 272h-598l-99 -272h-311zM465 520h409l-153 391q-36 96 -51 164q-23 -89 -52 -164z" />
    <glyph glyph-name="aogonek" unicode="&#x105;" horiz-adv-x="1261" 
d="M567 -27q-144 0 -265 74t-191 202t-70 279t70 280t191 204t265 75q131 0 211.5 -49t126.5 -141v168h275v-1065h-60l-104 -76q-58 -42 -58 -94q0 -36 31 -55t74 -19q25 0 53 8l49 -178q-78 -22 -153 -22q-116 0 -181 57.5t-65 153.5q0 66 32 115.5t113 109.5v174
q-46 -97 -127.5 -149t-216.5 -52zM317 530q0 -125 83 -216t212 -91q133 0 216 88.5t83 216.5q0 129 -83 219.5t-216 90.5q-129 0 -212 -90t-83 -218z" />
    <glyph glyph-name="Cacute" unicode="&#x106;" horiz-adv-x="1355" 
d="M799 -27q-157 0 -296 58.5t-238 158.5t-156.5 236.5t-57.5 288.5q0 153 55.5 290t152.5 237.5t237.5 159t302.5 58.5q174 0 300.5 -54.5t223.5 -170.5l-203 -176q-129 135 -321 135q-134 0 -238 -65.5t-158.5 -174t-54.5 -239.5q0 -132 54.5 -239t159.5 -171.5t243 -64.5
q201 0 328 139l208 -178q-87 -104 -225 -166t-317 -62zM698 1528l90 356h283l-180 -356h-193z" />
    <glyph glyph-name="cacute" unicode="&#x107;" horiz-adv-x="1073" 
d="M590 -27q-150 0 -276.5 75t-199.5 203.5t-73 280.5q0 153 72 281t201.5 203t289.5 76q144 1 259.5 -51.5t183.5 -147.5l-213 -174q-37 56 -96.5 88.5t-129.5 32.5q-129 0 -210 -90t-81 -218q0 -127 84 -217t213 -90q138 0 232 127l201 -174q-159 -205 -457 -205z
M512 1159l90 357h283l-180 -357h-193z" />
    <glyph glyph-name="Ccircumflex" unicode="&#x108;" horiz-adv-x="1355" 
d="M799 -27q-157 0 -296 58.5t-238 158.5t-156.5 236.5t-57.5 288.5q0 153 55.5 290t152.5 237.5t237.5 159t302.5 58.5q174 0 300.5 -54.5t223.5 -170.5l-203 -176q-129 135 -321 135q-134 0 -238 -65.5t-158.5 -174t-54.5 -239.5q0 -132 54.5 -239t159.5 -171.5t243 -64.5
q201 0 328 139l208 -178q-87 -104 -225 -166t-317 -62zM481 1528l207 356h223l201 -356h-240l-73 164l-74 -164h-244z" />
    <glyph glyph-name="ccircumflex" unicode="&#x109;" horiz-adv-x="1073" 
d="M590 -27q-150 0 -276.5 75t-199.5 203.5t-73 280.5q0 153 72 281t201.5 203t289.5 76q144 1 259.5 -51.5t183.5 -147.5l-213 -174q-37 56 -96.5 88.5t-129.5 32.5q-129 0 -210 -90t-81 -218q0 -127 84 -217t213 -90q138 0 232 127l201 -174q-159 -205 -457 -205z
M295 1159l207 357h223l201 -357h-240l-74 164l-73 -164h-244z" />
    <glyph glyph-name="Cdotaccent" unicode="&#x10a;" horiz-adv-x="1355" 
d="M799 -27q-157 0 -296 58.5t-238 158.5t-156.5 236.5t-57.5 288.5q0 153 55.5 290t152.5 237.5t237.5 159t302.5 58.5q174 0 300.5 -54.5t223.5 -170.5l-203 -176q-129 135 -321 135q-134 0 -238 -65.5t-158.5 -174t-54.5 -239.5q0 -132 54.5 -239t159.5 -171.5t243 -64.5
q201 0 328 139l208 -178q-87 -104 -225 -166t-317 -62zM633 1686q0 67 48 114t118 47q71 0 118.5 -47t47.5 -114q0 -70 -47.5 -117t-118.5 -47q-70 0 -118 48t-48 116z" />
    <glyph glyph-name="cdotaccent" unicode="&#x10b;" horiz-adv-x="1073" 
d="M590 -27q-150 0 -276.5 75t-199.5 203.5t-73 280.5q0 153 72 281t201.5 203t289.5 76q144 1 259.5 -51.5t183.5 -147.5l-213 -174q-37 56 -96.5 88.5t-129.5 32.5q-129 0 -210 -90t-81 -218q0 -127 84 -217t213 -90q138 0 232 127l201 -174q-159 -205 -457 -205z
M446 1317q0 67 48 114.5t118 47.5q71 0 118.5 -47.5t47.5 -114.5q0 -69 -47 -116.5t-119 -47.5q-70 0 -118 48t-48 116z" />
    <glyph glyph-name="Ccaron" unicode="&#x10c;" horiz-adv-x="1355" 
d="M799 -27q-157 0 -296 58.5t-238 158.5t-156.5 236.5t-57.5 288.5q0 153 55.5 290t152.5 237.5t237.5 159t302.5 58.5q174 0 300.5 -54.5t223.5 -170.5l-203 -176q-129 135 -321 135q-134 0 -238 -65.5t-158.5 -174t-54.5 -239.5q0 -132 54.5 -239t159.5 -171.5t243 -64.5
q201 0 328 139l208 -178q-87 -104 -225 -166t-317 -62zM481 1884h244l74 -164l73 164h240l-201 -356h-223z" />
    <glyph glyph-name="ccaron" unicode="&#x10d;" horiz-adv-x="1073" 
d="M590 -27q-150 0 -276.5 75t-199.5 203.5t-73 280.5q0 153 72 281t201.5 203t289.5 76q144 1 259.5 -51.5t183.5 -147.5l-213 -174q-37 56 -96.5 88.5t-129.5 32.5q-129 0 -210 -90t-81 -218q0 -127 84 -217t213 -90q138 0 232 127l201 -174q-159 -205 -457 -205z
M295 1516h244l73 -164l74 164h240l-201 -357h-223z" />
    <glyph glyph-name="Dcaron" unicode="&#x10e;" horiz-adv-x="1400" 
d="M102 0v1434h512q182 0 323.5 -54t231 -151t135.5 -227.5t46 -286.5t-46 -285t-135.5 -226t-231 -150.5t-323.5 -53.5h-512zM352 1884h244l74 -164l73 164h240l-201 -356h-223zM389 258h191q124 0 216.5 34.5t148 97t82 144t26.5 181.5t-26.5 182t-81.5 145.5t-148 98.5
t-217 35h-191v-918z" />
    <glyph glyph-name="dcaron" unicode="&#x10f;" horiz-adv-x="1282" 
d="M567 -27q-144 0 -265 74t-191 202t-70 279t70 280t191 204t265 75q130 0 210.5 -48t125.5 -138v594h277v-1495h-269v174q-46 -97 -127.5 -149t-216.5 -52zM317 530q0 -125 83 -216t212 -91q133 0 216 88.5t83 216.5q0 129 -83 219.5t-216 90.5q-129 0 -212 -90t-83 -218z
M1223 1077l102 418h291l-201 -418h-192z" />
    <glyph glyph-name="Dcroat" unicode="&#x110;" horiz-adv-x="1499" 
d="M201 0v596h-193v242h193v596h512q182 0 323.5 -54t230.5 -151.5t135 -227.5t46 -286t-46 -285t-135 -226t-230.5 -150.5t-323.5 -53.5h-512zM487 258h191q124 0 216.5 34.5t148 97t82 144t26.5 181.5t-26.5 182t-81.5 145.5t-148 98.5t-217 35h-191v-338h297v-242h-297
v-338z" />
    <glyph glyph-name="dcroat" unicode="&#x111;" horiz-adv-x="1261" 
d="M614 1169v205h289v121h277v-121h133v-205h-133v-1169h-269v174q-46 -97 -127.5 -149t-216.5 -52q-144 0 -265 74t-191 202t-70 279t70 280t191 204t265 75q130 0 210.5 -48t125.5 -138v268h-289zM317 530q0 -125 83 -216t212 -91q133 0 216 88.5t83 216.5
q0 129 -83 219.5t-216 90.5q-129 0 -212 -90t-83 -218z" />
    <glyph glyph-name="Emacron" unicode="&#x112;" horiz-adv-x="1026" 
d="M102 0v1434h840v-258h-553v-322h543v-250h-543v-346h557v-258h-844zM221 1593v185h627v-185h-627z" />
    <glyph glyph-name="emacron" unicode="&#x113;" horiz-adv-x="1171" 
d="M592 -27q-161 0 -288 75t-195 202t-68 280q0 152 70.5 280.5t197.5 205t283 76.5t280.5 -76.5t192.5 -204.5t68 -281q0 -45 -9 -98h-796q24 -97 93 -155t171 -58q86 0 153.5 39.5t106.5 103.5l215 -161q-66 -102 -193 -165t-282 -63zM274 1225v184h627v-184h-627z
M328 639h526q-24 93 -96 154t-170 61q-97 0 -166.5 -59t-93.5 -156z" />
    <glyph glyph-name="Edotaccent" unicode="&#x116;" horiz-adv-x="1026" 
d="M102 0v1434h840v-258h-553v-322h543v-250h-543v-346h557v-258h-844zM367 1686q0 67 47.5 114t117.5 47q71 0 118.5 -47t47.5 -114q0 -70 -47 -117t-119 -47q-70 0 -117.5 48t-47.5 116z" />
    <glyph glyph-name="edotaccent" unicode="&#x117;" horiz-adv-x="1171" 
d="M592 -27q-161 0 -288 75t-195 202t-68 280q0 152 70.5 280.5t197.5 205t283 76.5t280.5 -76.5t192.5 -204.5t68 -281q0 -45 -9 -98h-796q24 -97 93 -155t171 -58q86 0 153.5 39.5t106.5 103.5l215 -161q-66 -102 -193 -165t-282 -63zM328 639h526q-24 93 -96 154t-170 61
q-97 0 -166.5 -59t-93.5 -156zM420 1317q0 67 48 114.5t118 47.5q71 0 118.5 -47.5t47.5 -114.5q0 -69 -47 -116.5t-119 -47.5q-70 0 -118 48t-48 116z" />
    <glyph glyph-name="Eogonek" unicode="&#x118;" horiz-adv-x="1026" 
d="M102 0v1434h840v-258h-553v-322h543v-250h-543v-346h557v-258h-2l-104 -76q-58 -42 -58 -94q0 -36 31 -55t74 -19q25 0 53 8l49 -178q-78 -22 -153 -22q-116 0 -181 57.5t-65 153.5q0 66 32 115.5t113 109.5h-633z" />
    <glyph glyph-name="eogonek" unicode="&#x119;" horiz-adv-x="1171" 
d="M592 -27q-161 0 -288 75t-195 202t-68 280q0 152 70.5 280.5t197.5 205t283 76.5t280.5 -76.5t192.5 -204.5t68 -281q0 -45 -9 -98h-796q24 -97 93 -155t171 -58q86 0 153.5 39.5t106.5 103.5l215 -161q-60 -91 -166 -150l-100 -82q-58 -45 -58 -102q0 -40 30.5 -61
t74.5 -21q25 0 53 8l49 -194q-79 -25 -153 -25q-116 0 -181 62.5t-65 168.5q0 96 61 168h-20zM328 639h526q-24 93 -96 154t-170 61q-97 0 -166.5 -59t-93.5 -156z" />
    <glyph glyph-name="Ecaron" unicode="&#x11a;" horiz-adv-x="1026" 
d="M102 0v1434h840v-258h-553v-322h543v-250h-543v-346h557v-258h-844zM215 1884h244l73 -164l74 164h240l-201 -356h-223z" />
    <glyph glyph-name="ecaron" unicode="&#x11b;" horiz-adv-x="1171" 
d="M592 -27q-161 0 -288 75t-195 202t-68 280q0 152 70.5 280.5t197.5 205t283 76.5t280.5 -76.5t192.5 -204.5t68 -281q0 -45 -9 -98h-796q24 -97 93 -155t171 -58q86 0 153.5 39.5t106.5 103.5l215 -161q-66 -102 -193 -165t-282 -63zM268 1516h244l74 -164l73 164h240
l-201 -357h-223zM328 639h526q-24 93 -96 154t-170 61q-97 0 -166.5 -59t-93.5 -156z" />
    <glyph glyph-name="Gcircumflex" unicode="&#x11c;" horiz-adv-x="1540" 
d="M799 -27q-157 0 -296 58.5t-238 158.5t-156.5 236.5t-57.5 288.5t57.5 289.5t156.5 237.5t238 159t296 59q179 0 306.5 -56.5t219.5 -168.5l-205 -176q-125 135 -321 135q-134 0 -238 -65.5t-158.5 -174t-54.5 -239.5t54.5 -239.5t158.5 -174t238 -65.5q173 0 276 82
t127 247l-471 -4v258h748q10 -72 10 -160q0 -199 -82 -353.5t-239.5 -243.5t-368.5 -89zM481 1528l207 356h223l201 -356h-240l-73 164l-74 -164h-244z" />
    <glyph glyph-name="gcircumflex" unicode="&#x11d;" horiz-adv-x="1236" 
d="M600 -436q-169 0 -293.5 46t-216.5 154l172 203q71 -82 152 -114.5t188 -32.5q113 0 195 83t82 208v47q-95 -164 -322 -164q-144 0 -262.5 73t-186 198.5t-67.5 277.5t67.5 277.5t186 198.5t262.5 73q235 0 326 -172v145h272v-971q0 -243 -153.5 -386.5t-401.5 -143.5z
M272 1159l207 357h223l201 -357h-239l-74 164l-74 -164h-244zM317 543q0 -126 77 -211.5t208 -85.5q133 0 211 84.5t78 212.5t-78 212.5t-211 84.5q-131 0 -208 -84.5t-77 -212.5z" />
    <glyph glyph-name="Gbreve" unicode="&#x11e;" horiz-adv-x="1540" 
d="M799 -27q-157 0 -296 58.5t-238 158.5t-156.5 236.5t-57.5 288.5t57.5 289.5t156.5 237.5t238 159t296 59q179 0 306.5 -56.5t219.5 -168.5l-205 -176q-125 135 -321 135q-134 0 -238 -65.5t-158.5 -174t-54.5 -239.5t54.5 -239.5t158.5 -174t238 -65.5q173 0 276 82
t127 247l-471 -4v258h748q10 -72 10 -160q0 -199 -82 -353.5t-239.5 -243.5t-368.5 -89zM471 1794h219q-2 -46 27 -80.5t82 -34.5q55 0 82.5 34t25.5 81h219q0 -126 -88.5 -205.5t-238.5 -79.5q-149 0 -238.5 79.5t-89.5 205.5z" />
    <glyph glyph-name="gbreve" unicode="&#x11f;" horiz-adv-x="1236" 
d="M600 -436q-169 0 -293.5 46t-216.5 154l172 203q71 -82 152 -114.5t188 -32.5q113 0 195 83t82 208v47q-95 -164 -322 -164q-144 0 -262.5 73t-186 198.5t-67.5 277.5t67.5 277.5t186 198.5t262.5 73q235 0 326 -172v145h272v-971q0 -243 -153.5 -386.5t-401.5 -143.5z
M262 1425h219q-2 -46 27 -80t82 -34q55 0 82.5 33.5t25.5 80.5h220q0 -126 -89 -205t-239 -79q-149 0 -238.5 79t-89.5 205zM317 543q0 -126 77 -211.5t208 -85.5q133 0 211 84.5t78 212.5t-78 212.5t-211 84.5q-131 0 -208 -84.5t-77 -212.5z" />
    <glyph glyph-name="Gdotaccent" unicode="&#x120;" horiz-adv-x="1540" 
d="M799 -27q-157 0 -296 58.5t-238 158.5t-156.5 236.5t-57.5 288.5t57.5 289.5t156.5 237.5t238 159t296 59q179 0 306.5 -56.5t219.5 -168.5l-205 -176q-125 135 -321 135q-134 0 -238 -65.5t-158.5 -174t-54.5 -239.5t54.5 -239.5t158.5 -174t238 -65.5q173 0 276 82
t127 247l-471 -4v258h748q10 -72 10 -160q0 -199 -82 -353.5t-239.5 -243.5t-368.5 -89zM633 1686q0 67 48 114t118 47q71 0 118.5 -47t47.5 -114q0 -70 -47.5 -117t-118.5 -47q-70 0 -118 48t-48 116z" />
    <glyph glyph-name="gdotaccent" unicode="&#x121;" horiz-adv-x="1236" 
d="M600 -436q-169 0 -293.5 46t-216.5 154l172 203q71 -82 152 -114.5t188 -32.5q113 0 195 83t82 208v47q-95 -164 -322 -164q-144 0 -262.5 73t-186 198.5t-67.5 277.5t67.5 277.5t186 198.5t262.5 73q235 0 326 -172v145h272v-971q0 -243 -153.5 -386.5t-401.5 -143.5z
M317 543q0 -126 77 -211.5t208 -85.5q133 0 211 84.5t78 212.5t-78 212.5t-211 84.5q-131 0 -208 -84.5t-77 -212.5zM424 1317q0 67 48 114.5t118 47.5q71 0 118.5 -47.5t47.5 -114.5q0 -69 -47 -116.5t-119 -47.5q-70 0 -118 48t-48 116z" />
    <glyph glyph-name="uni0122" unicode="&#x122;" horiz-adv-x="1540" 
d="M799 -27q-157 0 -296 58.5t-238 158.5t-156.5 236.5t-57.5 288.5t57.5 289.5t156.5 237.5t238 159t296 59q179 0 306.5 -56.5t219.5 -168.5l-205 -176q-125 135 -321 135q-134 0 -238 -65.5t-158.5 -174t-54.5 -239.5t54.5 -239.5t158.5 -174t238 -65.5q173 0 276 82
t127 247l-471 -4v258h748q10 -72 10 -160q0 -199 -82 -353.5t-239.5 -243.5t-368.5 -89zM588 -410l69 318h283l-201 -318h-151z" />
    <glyph glyph-name="uni0123" unicode="&#x123;" horiz-adv-x="1236" 
d="M600 -436q-169 0 -293.5 46t-216.5 154l172 203q71 -82 152 -114.5t188 -32.5q113 0 195 83t82 208v47q-95 -164 -322 -164q-144 0 -262.5 73t-186 198.5t-67.5 277.5t67.5 277.5t186 198.5t262.5 73q235 0 326 -172v145h272v-971q0 -243 -153.5 -386.5t-401.5 -143.5z
M317 543q0 -126 77 -211.5t208 -85.5q133 0 211 84.5t78 212.5t-78 212.5t-211 84.5q-131 0 -208 -84.5t-77 -212.5zM401 1159l203 357h193l-70 -357h-326z" />
    <glyph glyph-name="Hcircumflex" unicode="&#x124;" horiz-adv-x="1372" 
d="M102 0v1434h287v-578h594v578h287v-1434h-287v598h-594v-598h-287zM369 1528l206 356h224l200 -356h-239l-74 164l-74 -164h-243z" />
    <glyph glyph-name="hcircumflex" unicode="&#x125;" horiz-adv-x="1157" 
d="M82 0v1495h276v-577q85 172 322 172q175 0 290 -120.5t115 -318.5v-651h-276v584q0 133 -61 198.5t-168 65.5q-95 0 -158.5 -67t-63.5 -197v-584h-276zM-100 1589l206 357h224l200 -357h-239l-74 164l-74 -164h-243z" />
    <glyph glyph-name="Hbar" unicode="&#x126;" horiz-adv-x="1372" 
d="M8 1047v192h94v195h287v-195h594v195h287v-195h94v-192h-94v-1047h-287v598h-594v-598h-287v1047h-94zM389 856h594v191h-594v-191z" />
    <glyph glyph-name="hbar" unicode="&#x127;" horiz-adv-x="1157" 
d="M82 0v1145h-135v235h135v115h276v-115h365v-235h-365v-227q85 172 322 172q175 0 290 -120.5t115 -318.5v-651h-276v584q0 133 -61 198.5t-168 65.5q-95 0 -158.5 -67t-63.5 -197v-584h-276z" />
    <glyph glyph-name="Itilde" unicode="&#x128;" horiz-adv-x="491" 
d="M102 0v1434h287v-1434h-287zM-168 1538q0 137 80.5 212t191.5 75q56 0 105.5 -20t78.5 -43.5t62.5 -43.5t59.5 -20q71 0 71 104h178q0 -136 -63 -214.5t-184 -78.5q-56 0 -103 20.5t-73.5 45t-62 45t-71.5 20.5q-50 0 -72 -31t-22 -71h-176z" />
    <glyph glyph-name="itilde" unicode="&#x129;" horiz-adv-x="440" 
d="M367 1141q-50 0 -89.5 14t-62.5 34.5t-41 40.5t-36.5 34t-37.5 14q-80 0 -80 -115h-176q0 123 72 208t168 85q55 0 95 -14t62 -34t38 -40.5t33 -34.5t38 -14q38 0 50 29.5t12 85.5h178q0 -74 -25.5 -140t-77.5 -109.5t-120 -43.5zM82 0v1065h276v-1065h-276z" />
    <glyph glyph-name="Imacron" unicode="&#x12a;" horiz-adv-x="491" 
d="M102 0v1434h287v-1434h-287zM-66 1593v185h627v-185h-627z" />
    <glyph glyph-name="imacron" unicode="&#x12b;" horiz-adv-x="440" 
d="M82 0v1065h276v-1065h-276zM-94 1225v184h626v-184h-626z" />
    <glyph glyph-name="Iogonek" unicode="&#x12e;" horiz-adv-x="491" 
d="M102 0v1434h287v-1434l-94 -76q-51 -41 -51 -94q0 -36 27 -55t67 -19q23 0 47 8l45 -178q-73 -22 -139 -22q-103 0 -162 57.5t-59 153.5q0 66 29 115.5t102 109.5h-99z" />
    <glyph glyph-name="iogonek" unicode="&#x12f;" horiz-adv-x="440" 
d="M82 0v1065h276v-1065l-92 -76q-51 -41 -51 -94q0 -36 27 -55t65 -19q23 0 47 8l43 -178q-70 -22 -135 -22q-101 0 -158 57t-57 154q0 66 27.5 115.5t99.5 109.5h-92zM51 1317q0 67 48 114.5t118 47.5q71 0 118.5 -47.5t47.5 -114.5q0 -69 -47.5 -116.5t-118.5 -47.5
q-70 0 -118 48t-48 116z" />
    <glyph glyph-name="Idotaccent" unicode="&#x130;" horiz-adv-x="491" 
d="M102 0v1434h287v-1434h-287zM80 1686q0 67 48 114t118 47q71 0 118.5 -47t47.5 -114q0 -70 -47 -117t-119 -47q-70 0 -118 48t-48 116z" />
    <glyph glyph-name="dotlessi" unicode="&#x131;" horiz-adv-x="440" 
d="M82 0v1065h276v-1065h-276z" />
    <glyph glyph-name="IJ" unicode="&#x132;" horiz-adv-x="1282" 
d="M102 0v1434h287v-1434h-287zM496 33l108 235q46 -32 131 -32q77 0 122.5 37.5t45.5 117.5v1043h287v-1053q0 -201 -113.5 -302.5t-302.5 -101.5q-187 0 -278 56z" />
    <glyph glyph-name="ij" unicode="&#x133;" horiz-adv-x="880" 
d="M82 0v1065h276v-1065h-276zM53 1317q0 67 48 114.5t118 47.5q71 0 118.5 -47.5t47.5 -114.5q0 -69 -47.5 -116.5t-118.5 -47.5q-70 0 -118 48t-48 116zM383 -410v246h53q86 0 86 98v1131h277v-1145q0 -170 -82 -250t-244 -80h-90zM496 1317q0 67 48 114.5t118 47.5
q71 0 118 -47.5t47 -114.5q0 -70 -47 -117t-118 -47q-70 0 -118 48t-48 116z" />
    <glyph glyph-name="Jcircumflex" unicode="&#x134;" horiz-adv-x="790" 
d="M283 -23q-86 0 -161.5 15t-117.5 41l109 235q46 -32 131 -32q77 0 122.5 37.5t45.5 117.5v1043h286v-1053q0 -201 -113 -302.5t-302 -101.5zM238 1528l206 356h224l200 -356h-239l-74 164l-74 -164h-243z" />
    <glyph glyph-name="jcircumflex" unicode="&#x135;" horiz-adv-x="440" 
d="M-57 -410v246h53q86 0 86 98v1131h276v-1145q0 -170 -82 -250t-243 -80h-90zM-100 1159l206 357h224l200 -357h-239l-74 164l-74 -164h-243z" />
    <glyph glyph-name="uni0136" unicode="&#x136;" horiz-adv-x="1204" 
d="M885 0l-496 633v-633h-287v1434h287v-592l447 592h374l-555 -672l596 -762h-366zM410 -410l69 318h283l-201 -318h-151z" />
    <glyph glyph-name="uni0137" unicode="&#x137;" horiz-adv-x="1142" 
d="M786 0l-428 506v-506h-276v1495h276v-860l400 430h393l-502 -496l504 -569h-367zM348 -410l70 318h282l-200 -318h-152z" />
    <glyph glyph-name="kgreenlandic" unicode="&#x138;" horiz-adv-x="1142" 
d="M786 0l-428 502v-502h-276v1065h276v-434l400 434h393l-502 -502l504 -563h-367z" />
    <glyph glyph-name="Lacute" unicode="&#x139;" horiz-adv-x="974" 
d="M102 0v1434h287v-1176h535v-258h-822zM137 1528l90 356h283l-180 -356h-193z" />
    <glyph glyph-name="lacute" unicode="&#x13a;" horiz-adv-x="440" 
d="M82 0v1495h276v-1495h-276zM111 1589l90 357h282l-180 -357h-192z" />
    <glyph glyph-name="uni013B" unicode="&#x13b;" horiz-adv-x="974" 
d="M102 0v1434h287v-1176h535v-258h-822zM328 -410l69 318h283l-201 -318h-151z" />
    <glyph glyph-name="uni013C" unicode="&#x13c;" horiz-adv-x="440" 
d="M82 0v1495h276v-1495h-276zM14 -410l70 318h283l-201 -318h-152z" />
    <glyph glyph-name="Lcaron" unicode="&#x13d;" horiz-adv-x="974" 
d="M102 0v1434h287v-1176h535v-258h-822zM516 1016l102 418h291l-200 -418h-193z" />
    <glyph glyph-name="lcaron" unicode="&#x13e;" horiz-adv-x="460" 
d="M82 0v1495h276v-1495h-276zM401 1077l103 418h291l-201 -418h-193z" />
    <glyph glyph-name="Lslash" unicode="&#x141;" horiz-adv-x="974" 
d="M102 0v506l-151 -107v258l151 107v670h287v-496l191 143v-272l-191 -133v-418h535v-258h-822z" />
    <glyph glyph-name="lslash" unicode="&#x142;" horiz-adv-x="464" 
d="M-37 399v258l131 93v745h277v-580l135 107v-258l-135 -94v-670h-277v492z" />
    <glyph glyph-name="Nacute" unicode="&#x143;" horiz-adv-x="1466" 
d="M102 0v1434h217l699 -830q56 -63 94 -119q-10 76 -10 234v715h262v-1434h-186l-725 862q-60 68 -95 119q11 -84 11 -233v-748h-267zM670 1528l90 356h282l-180 -356h-192z" />
    <glyph glyph-name="nacute" unicode="&#x144;" horiz-adv-x="1157" 
d="M82 0v1065h272v-156q84 181 326 181q175 0 290 -120.5t115 -318.5v-651h-276v584q0 133 -61 198.5t-168 65.5q-95 0 -158.5 -67t-63.5 -197v-584h-276zM506 1169l90 357h283l-181 -357h-192z" />
    <glyph glyph-name="uni0145" unicode="&#x145;" horiz-adv-x="1466" 
d="M102 0v1434h217l699 -830q56 -63 94 -119q-10 76 -10 234v715h262v-1434h-186l-725 862q-60 68 -95 119q11 -84 11 -233v-748h-267zM578 -410l69 318h283l-201 -318h-151z" />
    <glyph glyph-name="uni0146" unicode="&#x146;" horiz-adv-x="1157" 
d="M82 0v1065h272v-156q84 181 326 181q175 0 290 -120.5t115 -318.5v-651h-276v584q0 133 -61 198.5t-168 65.5q-95 0 -158.5 -67t-63.5 -197v-584h-276zM379 -410l70 318h282l-201 -318h-151z" />
    <glyph glyph-name="Ncaron" unicode="&#x147;" horiz-adv-x="1466" 
d="M102 0v1434h217l699 -830q56 -63 94 -119q-10 76 -10 234v715h262v-1434h-186l-725 862q-60 68 -95 119q11 -84 11 -233v-748h-267zM453 1884h243l74 -164l74 164h239l-200 -356h-224z" />
    <glyph glyph-name="ncaron" unicode="&#x148;" horiz-adv-x="1157" 
d="M82 0v1065h272v-156q84 181 326 181q175 0 290 -120.5t115 -318.5v-651h-276v584q0 133 -61 198.5t-168 65.5q-95 0 -158.5 -67t-63.5 -197v-584h-276zM289 1526h243l74 -164l74 164h240l-201 -357h-223z" />
    <glyph glyph-name="Eng" unicode="&#x14a;" horiz-adv-x="1466" 
d="M948 -410v246h82q86 0 86 98v140l-663 788q-60 68 -95 119q11 -84 11 -233v-748h-267v1434h217l699 -830q56 -63 94 -119q-10 76 -10 234v715h262v-1514q0 -170 -82 -250t-244 -80h-90z" />
    <glyph glyph-name="eng" unicode="&#x14b;" horiz-adv-x="1157" 
d="M670 -410v246h53q86 0 86 98v650q0 133 -61 198.5t-168 65.5q-95 0 -158.5 -67t-63.5 -197v-584h-276v1065h272v-156q84 181 326 181q175 0 290 -120.5t115 -318.5v-731q0 -170 -82 -250t-243 -80h-90z" />
    <glyph glyph-name="Omacron" unicode="&#x14c;" horiz-adv-x="1593" 
d="M799 -27q-157 0 -296 58.5t-238 158.5t-156.5 236.5t-57.5 288.5t57.5 289.5t156.5 237.5t238 159t296 59q208 0 379 -100t267.5 -270.5t96.5 -374.5q0 -152 -57 -288.5t-155 -236.5t-236.5 -158.5t-294.5 -58.5zM348 715q0 -131 53.5 -238t157.5 -172t240 -65
q134 0 237 65t156 172t53 238t-53 239t-156 174t-237 66q-135 0 -239.5 -66t-158 -174t-53.5 -239zM487 1593v185h627v-185h-627z" />
    <glyph glyph-name="omacron" unicode="&#x14d;" horiz-adv-x="1216" 
d="M608 -27q-161 0 -292 75t-203 202.5t-72 279.5q0 153 72 280.5t203 203.5t292 76t292 -76t203.5 -204t72.5 -280t-72.5 -279.5t-203.5 -202.5t-292 -75zM297 1225v184h627v-184h-627zM317 530q0 -128 81 -216.5t210 -88.5t210 88.5t81 216.5t-81 218t-210 90t-210 -90
t-81 -218z" />
    <glyph glyph-name="Ohungarumlaut" unicode="&#x150;" horiz-adv-x="1593" 
d="M799 -27q-157 0 -296 58.5t-238 158.5t-156.5 236.5t-57.5 288.5t57.5 289.5t156.5 237.5t238 159t296 59q208 0 379 -100t267.5 -270.5t96.5 -374.5q0 -152 -57 -288.5t-155 -236.5t-236.5 -158.5t-294.5 -58.5zM348 715q0 -131 53.5 -238t157.5 -172t240 -65
q134 0 237 65t156 172t53 238t-53 239t-156 174t-237 66q-135 0 -239.5 -66t-158 -174t-53.5 -239zM541 1528l65 356h273l-197 -356h-141zM879 1528l65 356h273l-197 -356h-141z" />
    <glyph glyph-name="ohungarumlaut" unicode="&#x151;" horiz-adv-x="1216" 
d="M608 -27q-161 0 -292 75t-203 202.5t-72 279.5q0 153 72 280.5t203 203.5t292 76t292 -76t203.5 -204t72.5 -280t-72.5 -279.5t-203.5 -202.5t-292 -75zM317 530q0 -128 81 -216.5t210 -88.5t210 88.5t81 216.5t-81 218t-210 90t-210 -90t-81 -218zM350 1159l66 357h272
l-196 -357h-142zM688 1159l66 357h272l-197 -357h-141z" />
    <glyph glyph-name="OE" unicode="&#x152;" horiz-adv-x="2113" 
d="M778 -27q-200 0 -367 99.5t-263.5 270t-96.5 372.5q0 152 57 290t154 237.5t232 158.5t284 59q302 0 461 -203v177h791v-258h-553v-322h542v-250h-542v-346h557v-258h-795v174q-158 -201 -461 -201zM348 715q0 -131 53.5 -238t157.5 -172t240 -65q106 0 189.5 37.5
t136 103t79.5 150.5t27 184t-27 184.5t-79.5 152t-136 104.5t-189.5 38q-135 0 -239.5 -66t-158 -174t-53.5 -239z" />
    <glyph glyph-name="oe" unicode="&#x153;" horiz-adv-x="2009" 
d="M608 -27q-161 0 -292 75t-203 202.5t-72 279.5q0 153 72 280.5t203 203.5t292 76q139 0 246 -64t172 -176q62 112 166 177t238 65q156 0 280.5 -76.5t192 -204.5t67.5 -281q0 -51 -8 -98h-797q24 -96 93.5 -154.5t171.5 -58.5q86 0 153.5 39.5t106.5 103.5l215 -161
q-66 -102 -193 -165t-282 -63q-136 0 -240 63t-166 173q-65 -110 -172 -173t-244 -63zM317 530q0 -128 81 -216.5t210 -88.5t210 88.5t81 216.5t-81 218t-210 90t-210 -90t-81 -218zM1167 639h525q-24 93 -96.5 154t-170.5 61q-97 0 -165.5 -59t-92.5 -156z" />
    <glyph glyph-name="Racute" unicode="&#x154;" horiz-adv-x="1128" 
d="M102 0v1434l463 2q243 2 380.5 -113t137.5 -324q0 -168 -89.5 -272.5t-254.5 -140.5l402 -586h-338l-305 455q-35 55 -56 104h-53v-559h-287zM389 817h160q117 0 180.5 46.5t63.5 133.5q0 86 -63.5 132.5t-180.5 46.5h-160v-359zM473 1528l90 356h283l-180 -356h-193z
" />
    <glyph glyph-name="racute" unicode="&#x155;" horiz-adv-x="690" 
d="M82 0v1065h268v-203q28 117 111 176t219 52v-261h-39q-123 0 -203 -77t-80 -207v-545h-276zM324 1159l90 357h282l-180 -357h-192z" />
    <glyph glyph-name="uni0156" unicode="&#x156;" horiz-adv-x="1128" 
d="M102 0v1434l463 2q243 2 380.5 -113t137.5 -324q0 -168 -89.5 -272.5t-254.5 -140.5l402 -586h-338l-305 455q-35 55 -56 104h-53v-559h-287zM389 817h160q117 0 180.5 46.5t63.5 133.5q0 86 -63.5 132.5t-180.5 46.5h-160v-359zM414 -410l69 318h283l-201 -318h-151z
" />
    <glyph glyph-name="uni0157" unicode="&#x157;" horiz-adv-x="690" 
d="M82 0v1065h268v-203q28 117 111 176t219 52v-261h-39q-123 0 -203 -77t-80 -207v-545h-276zM6 -410l70 318h282l-200 -318h-152z" />
    <glyph glyph-name="Rcaron" unicode="&#x158;" horiz-adv-x="1128" 
d="M102 0v1434l463 2q243 2 380.5 -113t137.5 -324q0 -168 -89.5 -272.5t-254.5 -140.5l402 -586h-338l-305 455q-35 55 -56 104h-53v-559h-287zM256 1884h244l73 -164l74 164h240l-201 -356h-223zM389 817h160q117 0 180.5 46.5t63.5 133.5q0 86 -63.5 132.5t-180.5 46.5
h-160v-359z" />
    <glyph glyph-name="rcaron" unicode="&#x159;" horiz-adv-x="690" 
d="M82 0v1065h268v-203q28 117 111 176t219 52v-261h-39q-123 0 -203 -77t-80 -207v-545h-276zM106 1516h244l74 -164l74 164h239l-200 -357h-224z" />
    <glyph glyph-name="Sacute" unicode="&#x15a;" horiz-adv-x="1138" 
d="M569 -27q-372 0 -549 310l248 157q53 -106 136.5 -158.5t181.5 -52.5q99 0 157 45t58 119q0 42 -18.5 75.5t-45 55.5t-74.5 42.5t-87 32.5t-103 28q-172 44 -267 144.5t-95 258.5q0 193 138.5 310.5t366.5 117.5q162 0 276.5 -67.5t197.5 -198.5l-246 -152
q-54 86 -109 124t-133 38q-87 0 -143 -43.5t-56 -114.5q0 -31 13 -56t30.5 -41.5t51.5 -33t60 -25.5t73 -24q145 -46 198 -70q221 -100 257 -298q8 -40 8 -86q0 -197 -141.5 -317t-383.5 -120zM512 1528l90 356h283l-180 -356h-193z" />
    <glyph glyph-name="sacute" unicode="&#x15b;" horiz-adv-x="886" 
d="M446 -27q-267 0 -442 187l186 170q116 -131 250 -131q69 0 108.5 30.5t39.5 79.5q0 44 -37.5 70.5t-157.5 54.5q-83 20 -143.5 48t-95 58.5t-55 70t-27 75t-6.5 80.5q0 143 107 234.5t290 91.5q133 0 224 -41t171 -144l-201 -153q-71 114 -188 114q-60 0 -96.5 -23.5
t-36.5 -70.5q0 -32 28 -55.5t115 -46.5q113 -29 189.5 -66t117.5 -82.5t57.5 -94t16.5 -112.5q0 -148 -118.5 -246t-295.5 -98zM362 1159l91 357h282l-180 -357h-193z" />
    <glyph glyph-name="Scircumflex" unicode="&#x15c;" horiz-adv-x="1138" 
d="M569 -27q-372 0 -549 310l248 157q53 -106 136.5 -158.5t181.5 -52.5q99 0 157 45t58 119q0 42 -18.5 75.5t-45 55.5t-74.5 42.5t-87 32.5t-103 28q-172 44 -267 144.5t-95 258.5q0 193 138.5 310.5t366.5 117.5q162 0 276.5 -67.5t197.5 -198.5l-246 -152
q-54 86 -109 124t-133 38q-87 0 -143 -43.5t-56 -114.5q0 -31 13 -56t30.5 -41.5t51.5 -33t60 -25.5t73 -24q145 -46 198 -70q221 -100 257 -298q8 -40 8 -86q0 -197 -141.5 -317t-383.5 -120zM295 1528l207 356h223l201 -356h-240l-74 164l-73 -164h-244z" />
    <glyph glyph-name="scircumflex" unicode="&#x15d;" horiz-adv-x="886" 
d="M446 -27q-267 0 -442 187l186 170q116 -131 250 -131q69 0 108.5 30.5t39.5 79.5q0 44 -37.5 70.5t-157.5 54.5q-83 20 -143.5 48t-95 58.5t-55 70t-27 75t-6.5 80.5q0 143 107 234.5t290 91.5q133 0 224 -41t171 -144l-201 -153q-71 114 -188 114q-60 0 -96.5 -23.5
t-36.5 -70.5q0 -32 28 -55.5t115 -46.5q113 -29 189.5 -66t117.5 -82.5t57.5 -94t16.5 -112.5q0 -148 -118.5 -246t-295.5 -98zM145 1159l207 357h223l201 -357h-239l-74 164l-74 -164h-244z" />
    <glyph glyph-name="Scedilla" unicode="&#x15e;" horiz-adv-x="1138" 
d="M537 -436q-61 0 -99 12t-94 53l94 119q40 -35 80 -35q25 0 44.5 14t19.5 44q0 22 -16 34.5t-36 12.5q-27 0 -45 -6l-8 6l70 155q-355 10 -527 310l248 157q53 -106 136.5 -158.5t181.5 -52.5q99 0 157 45t58 119q0 42 -18.5 75.5t-45 55.5t-74.5 42.5t-87 32.5t-103 28
q-172 44 -267 144.5t-95 258.5q0 193 138.5 310.5t366.5 117.5q162 0 276.5 -67.5t197.5 -198.5l-246 -152q-54 86 -109 124t-133 38q-87 0 -143 -43.5t-56 -114.5q0 -31 13 -56t30.5 -41.5t51.5 -33t60 -25.5t73 -24q145 -46 198 -70q221 -100 257 -298q8 -40 8 -86
q0 -176 -113.5 -291.5t-312.5 -138.5l-33 -68q53 -14 80.5 -58.5t27.5 -99.5q0 -91 -61 -140.5t-145 -49.5z" />
    <glyph glyph-name="scedilla" unicode="&#x15f;" horiz-adv-x="886" 
d="M406 -436q-61 0 -99 12t-94 53l94 119q40 -35 80 -35q25 0 44.5 14t19.5 44q0 22 -16 34.5t-36 12.5q-27 0 -45 -6l-8 6l70 155q-246 12 -412 187l186 170q116 -131 250 -131q69 0 108.5 30.5t39.5 79.5q0 44 -37.5 70.5t-157.5 54.5q-83 20 -143.5 48t-95 58.5t-55 70
t-27 75t-6.5 80.5q0 143 107 234.5t290 91.5q133 0 224 -41t171 -144l-201 -153q-71 114 -188 114q-60 0 -96.5 -23.5t-36.5 -70.5q0 -32 28 -55.5t115 -46.5q113 -29 189.5 -66t117.5 -82.5t57.5 -94t16.5 -112.5q0 -127 -90 -219.5t-233 -115.5l-33 -70q53 -14 80.5 -58.5
t27.5 -99.5q0 -91 -61 -140.5t-145 -49.5z" />
    <glyph glyph-name="Scaron" unicode="&#x160;" horiz-adv-x="1138" 
d="M569 -27q-372 0 -549 310l248 157q53 -106 136.5 -158.5t181.5 -52.5q99 0 157 45t58 119q0 42 -18.5 75.5t-45 55.5t-74.5 42.5t-87 32.5t-103 28q-172 44 -267 144.5t-95 258.5q0 193 138.5 310.5t366.5 117.5q162 0 276.5 -67.5t197.5 -198.5l-246 -152
q-54 86 -109 124t-133 38q-87 0 -143 -43.5t-56 -114.5q0 -31 13 -56t30.5 -41.5t51.5 -33t60 -25.5t73 -24q145 -46 198 -70q221 -100 257 -298q8 -40 8 -86q0 -197 -141.5 -317t-383.5 -120zM295 1884h244l73 -164l74 164h240l-201 -356h-223z" />
    <glyph glyph-name="scaron" unicode="&#x161;" horiz-adv-x="886" 
d="M446 -27q-267 0 -442 187l186 170q116 -131 250 -131q69 0 108.5 30.5t39.5 79.5q0 44 -37.5 70.5t-157.5 54.5q-83 20 -143.5 48t-95 58.5t-55 70t-27 75t-6.5 80.5q0 143 107 234.5t290 91.5q133 0 224 -41t171 -144l-201 -153q-71 114 -188 114q-60 0 -96.5 -23.5
t-36.5 -70.5q0 -32 28 -55.5t115 -46.5q113 -29 189.5 -66t117.5 -82.5t57.5 -94t16.5 -112.5q0 -148 -118.5 -246t-295.5 -98zM145 1516h244l74 -164l74 164h239l-201 -357h-223z" />
    <glyph glyph-name="uni0162" unicode="&#x162;" horiz-adv-x="1167" 
d="M440 0v1176h-409v258h1106v-258h-410v-1176h-45l-41 -88q53 -14 81 -58.5t28 -99.5q0 -91 -61.5 -140.5t-145.5 -49.5q-61 0 -99 12t-94 53l94 119q40 -35 80 -35q25 0 44.5 14t19.5 44q0 22 -15.5 34.5t-35.5 12.5q-27 0 -45 -6l-9 6l80 182h-123z" />
    <glyph glyph-name="uni0163" unicode="&#x163;" horiz-adv-x="671" 
d="M10 829v236h150v215l276 29v-244h226v-236h-226v-485q0 -98 86 -98h115v-246h-135l-41 -88q53 -14 80.5 -58.5t27.5 -99.5q0 -91 -61.5 -140.5t-145.5 -49.5q-61 0 -98.5 12t-93.5 53l94 119q40 -35 80 -35q25 0 44.5 14t19.5 44q0 22 -16 34.5t-36 12.5q-27 0 -45 -6
l-8 6l84 190q-227 45 -227 322v499h-150z" />
    <glyph glyph-name="Tcaron" unicode="&#x164;" horiz-adv-x="1167" 
d="M440 0v1176h-409v258h1106v-258h-410v-1176h-287zM266 1884h244l74 -164l73 164h240l-201 -356h-223z" />
    <glyph glyph-name="tcaron" unicode="&#x165;" horiz-adv-x="692" 
d="M485 0q-161 0 -243 80t-82 250v499h-150v236h150v215l276 29v-244h226v-236h-226v-485q0 -98 86 -98h115v-246h-152zM500 1118l102 377h291l-201 -377h-192z" />
    <glyph glyph-name="Utilde" unicode="&#x168;" horiz-adv-x="1323" 
d="M662 -27q-261 0 -420.5 155t-159.5 402v904h287v-873q0 -155 74 -240t219 -85t218.5 85t73.5 240v873h287v-904q0 -248 -159 -402.5t-420 -154.5zM248 1505q0 137 80.5 212t191.5 75q56 0 105.5 -20t78.5 -43.5t62 -43.5t59 -20q72 0 72 104h178q0 -136 -63 -214
t-185 -78q-46 0 -84.5 13.5t-65 32.5t-50.5 38.5t-51.5 33t-57.5 13.5q-50 0 -72 -31.5t-22 -71.5h-176z" />
    <glyph glyph-name="utilde" unicode="&#x169;" horiz-adv-x="1140" 
d="M477 -25q-175 0 -290 120.5t-115 318.5v651h276v-584q0 -264 213 -264q95 0 158 67t63 197v584h277v-1065h-268v160q-39 -93 -115 -139t-199 -46zM145 1169q0 70 23 126t62 90.5t87 52.5t101 18q56 0 105.5 -20t78.5 -43.5t62 -43.5t59 -20q72 0 72 105h178
q0 -136 -63.5 -214.5t-184.5 -78.5q-46 0 -84.5 13.5t-65 32.5t-50.5 38.5t-51.5 33t-57.5 13.5q-50 0 -72 -31.5t-22 -71.5h-177z" />
    <glyph glyph-name="Umacron" unicode="&#x16a;" horiz-adv-x="1323" 
d="M662 -27q-261 0 -420.5 155t-159.5 402v904h287v-873q0 -155 74 -240t219 -85t218.5 85t73.5 240v873h287v-904q0 -248 -159 -402.5t-420 -154.5zM350 1561v184h627v-184h-627z" />
    <glyph glyph-name="umacron" unicode="&#x16b;" horiz-adv-x="1140" 
d="M477 -25q-175 0 -290 120.5t-115 318.5v651h276v-584q0 -264 213 -264q95 0 158 67t63 197v584h277v-1065h-268v160q-39 -93 -115 -139t-199 -46zM248 1225v184h626v-184h-626z" />
    <glyph glyph-name="Ubreve" unicode="&#x16c;" horiz-adv-x="1323" 
d="M662 -27q-261 0 -420.5 155t-159.5 402v904h287v-873q0 -155 74 -240t219 -85t218.5 85t73.5 240v873h287v-904q0 -248 -159 -402.5t-420 -154.5zM334 1761h219q-2 -46 27 -80t82 -34q55 0 82.5 33.5t25.5 80.5h219q0 -126 -88.5 -205t-238.5 -79q-149 0 -238.5 79
t-89.5 205z" />
    <glyph glyph-name="ubreve" unicode="&#x16d;" horiz-adv-x="1140" 
d="M477 -25q-175 0 -290 120.5t-115 318.5v651h276v-584q0 -264 213 -264q95 0 158 67t63 197v584h277v-1065h-268v160q-39 -93 -115 -139t-199 -46zM231 1425h220q-2 -46 26.5 -80t81.5 -34q55 0 83 33.5t26 80.5h219q0 -126 -89 -205t-239 -79q-149 0 -238.5 79t-89.5 205
z" />
    <glyph glyph-name="Uring" unicode="&#x16e;" horiz-adv-x="1323" 
d="M662 -27q-261 0 -420.5 155t-159.5 402v904h287v-873q0 -155 74 -240t219 -85t218.5 85t73.5 240v873h287v-904q0 -248 -159 -402.5t-420 -154.5zM442 1692q0 89 65 152t155 63q91 0 155 -63t64 -152t-64 -152t-155 -63q-90 0 -155 63t-65 152zM584 1692
q0 -31 23.5 -54.5t54.5 -23.5q30 0 51.5 23.5t21.5 54.5t-21 53t-52 22t-54.5 -22.5t-23.5 -52.5z" />
    <glyph glyph-name="uring" unicode="&#x16f;" horiz-adv-x="1140" 
d="M477 -25q-175 0 -290 120.5t-115 318.5v651h276v-584q0 -264 213 -264q95 0 158 67t63 197v584h277v-1065h-268v160q-39 -93 -115 -139t-199 -46zM340 1356q0 89 64.5 152t154.5 63q91 0 155 -63t64 -152t-64 -152t-155 -63q-90 0 -154.5 63t-64.5 152zM481 1356
q0 -31 23.5 -54.5t54.5 -23.5q30 0 52 23.5t22 54.5t-21.5 53.5t-52.5 22.5t-54.5 -22.5t-23.5 -53.5z" />
    <glyph glyph-name="Uhungarumlaut" unicode="&#x170;" horiz-adv-x="1323" 
d="M662 -27q-261 0 -420.5 155t-159.5 402v904h287v-873q0 -155 74 -240t219 -85t218.5 85t73.5 240v873h287v-904q0 -248 -159 -402.5t-420 -154.5zM403 1495l66 356h272l-196 -356h-142zM741 1495l66 356h272l-196 -356h-142z" />
    <glyph glyph-name="uhungarumlaut" unicode="&#x171;" horiz-adv-x="1140" 
d="M477 -25q-175 0 -290 120.5t-115 318.5v651h276v-584q0 -264 213 -264q95 0 158 67t63 197v584h277v-1065h-268v160q-39 -93 -115 -139t-199 -46zM301 1159l66 357h272l-197 -357h-141zM639 1159l66 357h272l-197 -357h-141z" />
    <glyph glyph-name="Uogonek" unicode="&#x172;" horiz-adv-x="1323" 
d="M821 -438q-115 0 -180.5 61t-65.5 164q0 56 19 99t63 87q-259 1 -417 156t-158 401v904h287v-873q0 -155 74 -240t219 -85t218.5 85t73.5 240v873h287v-904q0 -176 -83.5 -309t-233.5 -196l-99 -78q-57 -44 -57 -101q0 -39 30 -58t74 -19q26 0 54 8l49 -191
q-76 -24 -154 -24z" />
    <glyph glyph-name="uogonek" unicode="&#x173;" horiz-adv-x="1140" 
d="M477 -25q-175 0 -290 120.5t-115 318.5v651h276v-584q0 -264 213 -264q95 0 158 67t63 197v584h277v-1065h-60l-104 -76q-57 -41 -57 -94q0 -36 30.5 -55t73.5 -19q25 0 53 8l49 -178q-78 -22 -153 -22q-116 0 -181 57.5t-65 153.5q0 66 32 115.5t114 109.5v160
q-39 -93 -115 -139t-199 -46z" />
    <glyph glyph-name="Wcircumflex" unicode="&#x174;" horiz-adv-x="2138" 
d="M461 0l-479 1434h327l230 -811q43 -154 57 -246q16 127 59 246l285 811h258l285 -811q45 -123 63 -246q13 103 53 246l230 811h328l-480 -1434h-258l-291 809q-40 113 -59 235q-19 -122 -59 -235l-291 -809h-258zM764 1528l207 356h223l201 -356h-240l-74 164l-73 -164
h-244z" />
    <glyph glyph-name="wcircumflex" unicode="&#x175;" horiz-adv-x="1630" 
d="M305 0l-332 1065h324l137 -604q24 -101 33 -162q12 81 35 164l155 602h318l166 -602q23 -83 35 -164q11 73 32 162l148 604h301l-332 -1065h-299l-174 606q-25 79 -37 160q-13 -88 -33 -160l-159 -606h-318zM498 1159l207 357h223l200 -357h-239l-74 164l-74 -164h-243z
" />
    <glyph glyph-name="Ycircumflex" unicode="&#x176;" horiz-adv-x="1159" 
d="M432 0v575l-485 859h315l225 -412q6 -11 21 -39t23.5 -44t20 -40t19.5 -45t13 -41q19 68 92 209l215 412h313l-485 -865v-569h-287zM262 1528l207 356h223l201 -356h-240l-73 164l-74 -164h-244z" />
    <glyph glyph-name="ycircumflex" unicode="&#x177;" horiz-adv-x="1103" 
d="M190 -428q-115 0 -184 20l41 265q62 -15 125 -15q76 0 128.5 44t76.5 118l14 45l-422 1016h334l207 -608q29 -82 45 -170q16 88 45 170l207 608h328l-471 -1133q-35 -84 -77.5 -147.5t-99 -112.5t-131.5 -74.5t-166 -25.5zM229 1159l207 357h223l201 -357h-239l-74 164
l-74 -164h-244z" />
    <glyph glyph-name="Ydieresis" unicode="&#x178;" horiz-adv-x="1159" 
d="M432 0v575l-485 859h315l225 -412q6 -11 21 -39t23.5 -44t20 -40t19.5 -45t13 -41q19 68 92 209l215 412h313l-485 -865v-569h-287zM197 1686q0 67 47.5 114t117.5 47q71 0 118.5 -47t47.5 -114q0 -70 -47 -117t-119 -47q-70 0 -117.5 48t-47.5 116zM631 1686
q0 67 48 114t118 47q71 0 118.5 -47t47.5 -114q0 -70 -47.5 -117t-118.5 -47q-70 0 -118 48t-48 116z" />
    <glyph glyph-name="Zacute" unicode="&#x179;" horiz-adv-x="1204" 
d="M20 0v31l652 1085q16 27 47 66h-660v252h1117v-31l-652 -1086q-14 -22 -47 -65h699v-252h-1156zM483 1528l90 356h283l-180 -356h-193z" />
    <glyph glyph-name="zacute" unicode="&#x17a;" horiz-adv-x="1005" 
d="M29 0v31l467 739q9 15 49 66h-494v229h918v-31l-471 -751q-8 -13 -39 -54h499v-229h-929zM412 1159l90 357h282l-180 -357h-192z" />
    <glyph glyph-name="Zdotaccent" unicode="&#x17b;" horiz-adv-x="1204" 
d="M20 0v31l652 1085q16 27 47 66h-660v252h1117v-31l-652 -1086q-14 -22 -47 -65h699v-252h-1156zM418 1686q0 67 48 114t118 47q71 0 118.5 -47t47.5 -114q0 -70 -47 -117t-119 -47q-70 0 -118 48t-48 116z" />
    <glyph glyph-name="zdotaccent" unicode="&#x17c;" horiz-adv-x="1005" 
d="M29 0v31l467 739q9 15 49 66h-494v229h918v-31l-471 -751q-8 -13 -39 -54h499v-229h-929zM346 1317q0 67 48 114.5t118 47.5q71 0 118.5 -47.5t47.5 -114.5q0 -69 -47 -116.5t-119 -47.5q-70 0 -118 48t-48 116z" />
    <glyph glyph-name="Zcaron" unicode="&#x17d;" horiz-adv-x="1204" 
d="M20 0v31l652 1085q16 27 47 66h-660v252h1117v-31l-652 -1086q-14 -22 -47 -65h699v-252h-1156zM266 1884h244l74 -164l73 164h240l-201 -356h-223z" />
    <glyph glyph-name="zcaron" unicode="&#x17e;" horiz-adv-x="1005" 
d="M29 0v31l467 739q9 15 49 66h-494v229h918v-31l-471 -751q-8 -13 -39 -54h499v-229h-929zM195 1516h243l74 -164l74 164h239l-200 -357h-224z" />
    <glyph glyph-name="uni018F" unicode="&#x18f;" horiz-adv-x="1546" 
d="M766 -35q-156 0 -291.5 59.5t-229 160.5t-147 238.5t-53.5 289.5q0 56 10 112h1116q-26 167 -131 264t-299 97q-111 0 -208.5 -58t-153.5 -153l-246 184q87 133 252 215t354 82q152 0 277 -38t213 -105.5t148.5 -161t89 -203.5t28.5 -235q0 -204 -92.5 -374.5
t-260.5 -272t-376 -101.5zM369 571q30 -147 141.5 -246.5t267.5 -99.5q157 0 263 99t133 262z" />
    <glyph glyph-name="florin" unicode="&#x192;" 
d="M78 0v238h158q76 0 120.5 35.5t65.5 127.5l55 244h-338v225h387l45 197q23 105 64.5 178t99 113.5t122.5 58t147 17.5h149v-240h-127q-87 0 -133.5 -34.5t-67.5 -127.5l-37 -162h304v-225h-353l-63 -278q-23 -104 -64 -177t-97 -113.5t-118.5 -58.5t-138.5 -18h-180z" />
    <glyph glyph-name="Ohorn" unicode="&#x1a0;" horiz-adv-x="1593" 
d="M799 -27q-157 0 -296 58.5t-238 158.5t-156.5 236.5t-57.5 288.5t57.5 289.5t156.5 237.5t238 159t296 59q107 0 223 -33h20q93 0 128.5 37t35.5 146v65h234v-82q0 -223 -164 -301q125 -104 195.5 -254.5t70.5 -322.5q0 -152 -57 -288.5t-155 -236.5t-236.5 -158.5
t-294.5 -58.5zM348 715q0 -131 53.5 -238t157.5 -172t240 -65q134 0 237 65t156 172t53 238t-53 239t-156 174t-237 66q-135 0 -239.5 -66t-158 -174t-53.5 -239z" />
    <glyph glyph-name="ohorn" unicode="&#x1a1;" horiz-adv-x="1216" 
d="M608 -27q-161 0 -292 75t-203 202.5t-72 279.5q0 153 72 280.5t203 203.5t292 76q89 0 172 -25h21q93 0 128.5 36.5t35.5 145.5v66h233v-82q0 -234 -180 -309q75 -75 116.5 -177t41.5 -215q0 -152 -72.5 -279.5t-203.5 -202.5t-292 -75zM317 530q0 -128 81 -216.5
t210 -88.5t210 88.5t81 216.5t-81 218t-210 90t-210 -90t-81 -218z" />
    <glyph glyph-name="Uhorn" unicode="&#x1af;" horiz-adv-x="1323" 
d="M662 -27q-261 0 -420.5 155t-159.5 402v904h287v-873q0 -155 74 -240t219 -85t218.5 85t73.5 240v873h107q93 0 128.5 36.5t35.5 145.5v65h233v-82q0 -255 -217 -321v-748q0 -248 -159 -402.5t-420 -154.5z" />
    <glyph glyph-name="uhorn" unicode="&#x1b0;" horiz-adv-x="1175" 
d="M477 -25q-175 0 -290 120.5t-115 318.5v651h276v-584q0 -264 213 -264q95 0 158 67t63 197v584h78q93 0 128.5 36.5t35.5 145.5v66h233v-82q0 -247 -198 -316v-915h-268v160q-39 -93 -115 -139t-199 -46z" />
    <glyph glyph-name="uni01E2" unicode="&#x1e2;" horiz-adv-x="1988" 
d="M-61 0l966 1434h1000v-258h-553v-322h542v-250h-542v-346h557v-258h-844v285h-616l-179 -285h-331zM582 510h483v661h-49q-19 -39 -43.5 -79.5t-69 -105.5t-51.5 -75zM897 1593v185h627v-185h-627z" />
    <glyph glyph-name="uni01E3" unicode="&#x1e3;" horiz-adv-x="2111" 
d="M567 -27q-144 0 -265 74t-191 202t-70 279t70 280t191 204t265 75q219 0 336 -133v111h277v-121q123 146 362 146q151 0 273.5 -76t190 -203.5t67.5 -280.5q0 -48 -9 -100h-811q24 -96 92 -150.5t177 -54.5q94 0 162.5 36.5t103.5 100.5l219 -161q-66 -101 -191.5 -163.5
t-273.5 -62.5q-241 0 -362 144v-119h-269v115q-119 -142 -344 -142zM322 530q0 -126 81 -216.5t209 -90.5q133 0 216 88.5t83 216.5q0 129 -83 219.5t-216 90.5q-129 0 -209.5 -90t-80.5 -218zM727 1225v184h627v-184h-627zM1249 655h541q-29 87 -101 143t-171 56
q-98 0 -170 -54.5t-99 -144.5z" />
    <glyph glyph-name="uni0218" unicode="&#x218;" horiz-adv-x="1138" 
d="M569 -27q-372 0 -549 310l248 157q53 -106 136.5 -158.5t181.5 -52.5q99 0 157 45t58 119q0 42 -18.5 75.5t-45 55.5t-74.5 42.5t-87 32.5t-103 28q-172 44 -267 144.5t-95 258.5q0 193 138.5 310.5t366.5 117.5q162 0 276.5 -67.5t197.5 -198.5l-246 -152
q-54 86 -109 124t-133 38q-87 0 -143 -43.5t-56 -114.5q0 -31 13 -56t30.5 -41.5t51.5 -33t60 -25.5t73 -24q145 -46 198 -70q221 -100 257 -298q8 -40 8 -86q0 -197 -141.5 -317t-383.5 -120zM367 -410l69 318h283l-201 -318h-151z" />
    <glyph glyph-name="uni0219" unicode="&#x219;" horiz-adv-x="886" 
d="M446 -27q-267 0 -442 187l186 170q116 -131 250 -131q69 0 108.5 30.5t39.5 79.5q0 44 -37.5 70.5t-157.5 54.5q-83 20 -143.5 48t-95 58.5t-55 70t-27 75t-6.5 80.5q0 143 107 234.5t290 91.5q133 0 224 -41t171 -144l-201 -153q-71 114 -188 114q-60 0 -96.5 -23.5
t-36.5 -70.5q0 -32 28 -55.5t115 -46.5q113 -29 189.5 -66t117.5 -82.5t57.5 -94t16.5 -112.5q0 -148 -118.5 -246t-295.5 -98zM236 -410l69 318h283l-201 -318h-151z" />
    <glyph glyph-name="uni021A" unicode="&#x21a;" horiz-adv-x="1167" 
d="M440 0v1176h-409v258h1106v-258h-410v-1176h-287zM373 -410l69 318h283l-201 -318h-151z" />
    <glyph glyph-name="uni021B" unicode="&#x21b;" horiz-adv-x="671" 
d="M485 0q-161 0 -243 80t-82 250v499h-150v236h150v215l276 29v-244h226v-236h-226v-485q0 -98 86 -98h115v-246h-152zM193 -410l69 318h283l-201 -318h-151z" />
    <glyph glyph-name="uni0237" unicode="&#x237;" horiz-adv-x="440" 
d="M-57 -410v246h53q86 0 86 98v1131h276v-1145q0 -170 -82 -250t-243 -80h-90z" />
    <glyph glyph-name="uni0259" unicode="&#x259;" horiz-adv-x="1167" 
d="M580 -35q-156 0 -280.5 76t-192.5 204t-68 281q0 52 8 99h793q-46 213 -281 213q-72 0 -137.5 -38.5t-102.5 -101.5l-215 162q65 100 189 161.5t266 61.5t252 -43.5t178 -120.5t102.5 -176.5t34.5 -216.5q0 -114 -41 -217t-112 -179t-173.5 -120.5t-219.5 -44.5zM317 418
q24 -93 96.5 -154t170.5 -61q97 0 165.5 59t90.5 156h-523z" />
    <glyph glyph-name="circumflex" unicode="&#x2c6;" 
d="M299 1159l207 357h223l201 -357h-240l-74 164l-73 -164h-244z" />
    <glyph glyph-name="caron" unicode="&#x2c7;" 
d="M299 1516h244l73 -164l74 164h240l-201 -357h-223z" />
    <glyph glyph-name="breve" unicode="&#x2d8;" 
d="M614 1141q-149 0 -238 79t-89 205h219q-2 -46 27 -80t81 -34q55 0 83 33.5t26 80.5h219q0 -126 -89 -205t-239 -79z" />
    <glyph glyph-name="dotaccent" unicode="&#x2d9;" horiz-adv-x="1085" 
d="M543 1153q-70 0 -118 48t-48 116q0 67 48 114.5t118 47.5q71 0 118.5 -47.5t47.5 -114.5q0 -69 -47.5 -116.5t-118.5 -47.5z" />
    <glyph glyph-name="ring" unicode="&#x2da;" 
d="M614 1141q-90 0 -154.5 63t-64.5 152t64.5 152t154.5 63q91 0 155.5 -63t64.5 -152t-64.5 -152t-155.5 -63zM537 1356q0 -31 23 -54.5t54 -23.5q30 0 52 23.5t22 54.5t-21.5 53.5t-52.5 22.5t-54 -22.5t-23 -53.5z" />
    <glyph glyph-name="ogonek" unicode="&#x2db;" 
d="M856 -436q-116 0 -181 57.5t-65 153.5q0 66 32 115.5t114 109.5l47 35l88 -23l74 -12l-105 -76q-57 -41 -57 -94q0 -36 30.5 -55t73.5 -19q26 0 54 8l49 -178q-78 -22 -154 -22z" />
    <glyph glyph-name="tilde" unicode="&#x2dc;" 
d="M780 1141q-46 0 -84.5 13.5t-65 32.5t-50.5 38.5t-51.5 33t-57.5 13.5q-50 0 -72 -31.5t-22 -71.5h-176q0 137 80.5 212t191.5 75q56 0 105.5 -20t78.5 -43.5t62 -43.5t59 -20q72 0 72 105h178q0 -136 -63.5 -214.5t-184.5 -78.5z" />
    <glyph glyph-name="hungarumlaut" unicode="&#x2dd;" 
d="M625 1159l65 357h273l-197 -357h-141zM287 1159l65 357h273l-197 -357h-141z" />
    <glyph glyph-name="pi" unicode="&#x3c0;" horiz-adv-x="1107" 
d="M174 0v829h-151v236h1054v-236h-119v-505q0 -82 93 -82h28v-242h-92q-65 0 -117.5 15t-96 47.5t-67.5 90.5t-24 138v538h-231v-829h-277z" />
    <glyph glyph-name="uni1E0C" unicode="&#x1e0c;" horiz-adv-x="1400" 
d="M102 0v1434h512q182 0 323.5 -54t231 -151t135.5 -227.5t46 -286.5t-46 -285t-135.5 -226t-231 -150.5t-323.5 -53.5h-512zM389 258h191q124 0 216.5 34.5t148 97t82 144t26.5 181.5t-26.5 182t-81.5 145.5t-148 98.5t-217 35h-191v-918zM467 -272q0 67 48 114t118 47
q71 0 118.5 -47t47.5 -114q0 -70 -47.5 -117t-118.5 -47q-70 0 -118 48t-48 116z" />
    <glyph glyph-name="uni1E0D" unicode="&#x1e0d;" horiz-adv-x="1261" 
d="M567 -27q-144 0 -265 74t-191 202t-70 279t70 280t191 204t265 75q130 0 210.5 -48t125.5 -138v594h277v-1495h-269v174q-46 -97 -127.5 -149t-216.5 -52zM317 530q0 -125 83 -216t212 -91q133 0 216 88.5t83 216.5q0 129 -83 219.5t-216 90.5q-129 0 -212 -90t-83 -218z
M406 -272q0 67 47.5 114t117.5 47q71 0 118.5 -47t47.5 -114q0 -70 -47.5 -117t-118.5 -47q-70 0 -117.5 48t-47.5 116z" />
    <glyph glyph-name="uni1E20" unicode="&#x1e20;" horiz-adv-x="1540" 
d="M799 -27q-157 0 -296 58.5t-238 158.5t-156.5 236.5t-57.5 288.5t57.5 289.5t156.5 237.5t238 159t296 59q179 0 306.5 -56.5t219.5 -168.5l-205 -176q-125 135 -321 135q-134 0 -238 -65.5t-158.5 -174t-54.5 -239.5t54.5 -239.5t158.5 -174t238 -65.5q173 0 276 82
t127 247l-471 -4v258h748q10 -72 10 -160q0 -199 -82 -353.5t-239.5 -243.5t-368.5 -89zM487 1593v185h627v-185h-627z" />
    <glyph glyph-name="uni1E21" unicode="&#x1e21;" horiz-adv-x="1236" 
d="M600 -436q-169 0 -293.5 46t-216.5 154l172 203q71 -82 152 -114.5t188 -32.5q113 0 195 83t82 208v47q-95 -164 -322 -164q-144 0 -262.5 73t-186 198.5t-67.5 277.5t67.5 277.5t186 198.5t262.5 73q235 0 326 -172v145h272v-971q0 -243 -153.5 -386.5t-401.5 -143.5z
M279 1225v184h626v-184h-626zM317 543q0 -126 77 -211.5t208 -85.5q133 0 211 84.5t78 212.5t-78 212.5t-211 84.5q-131 0 -208 -84.5t-77 -212.5z" />
    <glyph glyph-name="uni1E24" unicode="&#x1e24;" horiz-adv-x="1372" 
d="M102 0v1434h287v-578h594v578h287v-1434h-287v598h-594v-598h-287zM520 -272q0 67 48 114t118 47q71 0 118.5 -47t47.5 -114q0 -70 -47 -117t-119 -47q-70 0 -118 48t-48 116z" />
    <glyph glyph-name="uni1E25" unicode="&#x1e25;" horiz-adv-x="1157" 
d="M82 0v1495h276v-577q85 172 322 172q175 0 290 -120.5t115 -318.5v-651h-276v584q0 133 -61 198.5t-168 65.5q-95 0 -158.5 -67t-63.5 -197v-584h-276zM428 -272q0 67 48 114t118 47q71 0 118.5 -47t47.5 -114q0 -70 -47 -117t-119 -47q-70 0 -118 48t-48 116z" />
    <glyph glyph-name="uni1E2A" unicode="&#x1e2a;" horiz-adv-x="1372" 
d="M102 0v1434h287v-578h594v578h287v-1434h-287v598h-594v-598h-287zM358 -168h220q-2 -46 27 -80.5t81 -34.5q55 0 83 34t26 81h219q0 -126 -89 -205.5t-239 -79.5q-149 0 -238.5 79.5t-89.5 205.5z" />
    <glyph glyph-name="uni1E2B" unicode="&#x1e2b;" horiz-adv-x="1157" 
d="M82 0v1495h276v-577q85 172 322 172q175 0 290 -120.5t115 -318.5v-651h-276v584q0 133 -61 198.5t-168 65.5q-95 0 -158.5 -67t-63.5 -197v-584h-276zM266 -168h219q-2 -46 27 -80.5t82 -34.5q55 0 82.5 34t25.5 81h220q0 -126 -89 -205.5t-239 -79.5
q-149 0 -238.5 79.5t-89.5 205.5z" />
    <glyph glyph-name="uni1E34" unicode="&#x1e34;" horiz-adv-x="1204" 
d="M885 0l-496 633v-633h-287v1434h287v-592l447 592h374l-555 -672l596 -762h-366zM307 -371v185h627v-185h-627z" />
    <glyph glyph-name="uni1E35" unicode="&#x1e35;" horiz-adv-x="1142" 
d="M786 0l-428 506v-506h-276v1495h276v-860l400 430h393l-502 -496l504 -569h-367zM246 -371v185h626v-185h-626z" />
    <glyph glyph-name="uni1E36" unicode="&#x1e36;" horiz-adv-x="974" 
d="M102 0v1434h287v-1176h535v-258h-822zM373 -272q0 67 48 114t118 47q71 0 118.5 -47t47.5 -114q0 -70 -47.5 -117t-118.5 -47q-70 0 -118 48t-48 116z" />
    <glyph glyph-name="uni1E37" unicode="&#x1e37;" horiz-adv-x="440" 
d="M82 0v1495h276v-1495h-276zM59 -272q0 67 48 114t118 47q71 0 118.5 -47t47.5 -114q0 -70 -47.5 -117t-118.5 -47q-70 0 -118 48t-48 116z" />
    <glyph glyph-name="uni1E38" unicode="&#x1e38;" horiz-adv-x="974" 
d="M102 0v1434h287v-1176h535v-258h-822zM-74 1593v185h627v-185h-627zM373 -272q0 67 48 114t118 47q71 0 118.5 -47t47.5 -114q0 -70 -47.5 -117t-118.5 -47q-70 0 -118 48t-48 116z" />
    <glyph glyph-name="uni1E39" unicode="&#x1e39;" horiz-adv-x="440" 
d="M82 0v1495h276v-1495h-276zM-100 1655v184h626v-184h-626zM59 -272q0 67 48 114t118 47q71 0 118.5 -47t47.5 -114q0 -70 -47.5 -117t-118.5 -47q-70 0 -118 48t-48 116z" />
    <glyph glyph-name="uni1E3A" unicode="&#x1e3a;" horiz-adv-x="974" 
d="M102 0v1434h287v-1176h535v-258h-822zM225 -371v185h627v-185h-627z" />
    <glyph glyph-name="uni1E3B" unicode="&#x1e3b;" horiz-adv-x="440" 
d="M82 0v1495h276v-1495h-276zM-88 -371v185h627v-185h-627z" />
    <glyph glyph-name="uni1E40" unicode="&#x1e40;" horiz-adv-x="1818" 
d="M102 0v1434h357l297 -633q126 -268 159 -383q27 104 158 383l299 633h344v-1434h-280v580q0 236 20 415l-477 -995h-139l-478 995q21 -187 21 -415v-580h-281zM741 1686q0 67 48 114t118 47q71 0 118.5 -47t47.5 -114q0 -70 -47.5 -117t-118.5 -47q-70 0 -118 48t-48 116
z" />
    <glyph glyph-name="uni1E41" unicode="&#x1e41;" horiz-adv-x="1863" 
d="M82 0v1065h272v-156q84 181 326 181q113 0 203.5 -52.5t142.5 -148.5q56 101 140.5 151t219.5 50q175 0 290.5 -121t115.5 -318v-651h-276v584q0 133 -57.5 198.5t-155.5 65.5q-105 0 -161.5 -59.5t-56.5 -204.5v-584h-276v584q0 133 -61 198.5t-168 65.5
q-95 0 -158.5 -67t-63.5 -197v-584h-276zM803 1317q0 67 48 114.5t118 47.5q71 0 118.5 -47.5t47.5 -114.5q0 -69 -47.5 -116.5t-118.5 -47.5q-70 0 -118 48t-48 116z" />
    <glyph glyph-name="uni1E42" unicode="&#x1e42;" horiz-adv-x="1818" 
d="M102 0v1434h357l297 -633q126 -268 159 -383q27 104 158 383l299 633h344v-1434h-280v580q0 236 20 415l-477 -995h-139l-478 995q21 -187 21 -415v-580h-281zM743 -272q0 67 48 114t118 47q71 0 118.5 -47t47.5 -114q0 -70 -47.5 -117t-118.5 -47q-70 0 -118 48t-48 116
z" />
    <glyph glyph-name="uni1E43" unicode="&#x1e43;" horiz-adv-x="1863" 
d="M82 0v1065h272v-156q84 181 326 181q113 0 203.5 -52.5t142.5 -148.5q56 101 140.5 151t219.5 50q175 0 290.5 -121t115.5 -318v-651h-276v584q0 133 -57.5 198.5t-155.5 65.5q-105 0 -161.5 -59.5t-56.5 -204.5v-584h-276v584q0 133 -61 198.5t-168 65.5
q-95 0 -158.5 -67t-63.5 -197v-584h-276zM778 -272q0 67 48 114t118 47q71 0 118.5 -47t47.5 -114q0 -70 -47 -117t-119 -47q-70 0 -118 48t-48 116z" />
    <glyph glyph-name="uni1E44" unicode="&#x1e44;" horiz-adv-x="1466" 
d="M102 0v1434h217l699 -830q56 -63 94 -119q-10 76 -10 234v715h262v-1434h-186l-725 862q-60 68 -95 119q11 -84 11 -233v-748h-267zM604 1686q0 67 48 114t118 47q71 0 118.5 -47t47.5 -114q0 -70 -47 -117t-119 -47q-70 0 -118 48t-48 116z" />
    <glyph glyph-name="uni1E45" unicode="&#x1e45;" horiz-adv-x="1157" 
d="M82 0v1065h272v-156q84 181 326 181q175 0 290 -120.5t115 -318.5v-651h-276v584q0 133 -61 198.5t-168 65.5q-95 0 -158.5 -67t-63.5 -197v-584h-276zM440 1327q0 67 48 114.5t118 47.5q71 0 118.5 -47.5t47.5 -114.5q0 -69 -47 -116.5t-119 -47.5q-70 0 -118 48
t-48 116z" />
    <glyph glyph-name="uni1E46" unicode="&#x1e46;" horiz-adv-x="1466" 
d="M102 0v1434h217l699 -830q56 -63 94 -119q-10 76 -10 234v715h262v-1434h-186l-725 862q-60 68 -95 119q11 -84 11 -233v-748h-267zM623 -272q0 67 47.5 114t117.5 47q71 0 118.5 -47t47.5 -114q0 -70 -47 -117t-119 -47q-70 0 -117.5 48t-47.5 116z" />
    <glyph glyph-name="uni1E47" unicode="&#x1e47;" horiz-adv-x="1157" 
d="M82 0v1065h272v-156q84 181 326 181q175 0 290 -120.5t115 -318.5v-651h-276v584q0 133 -61 198.5t-168 65.5q-95 0 -158.5 -67t-63.5 -197v-584h-276zM424 -272q0 67 48 114t118 47q71 0 118.5 -47t47.5 -114q0 -70 -47 -117t-119 -47q-70 0 -118 48t-48 116z" />
    <glyph glyph-name="uni1E48" unicode="&#x1e48;" horiz-adv-x="1466" 
d="M102 0v1434h217l699 -830q56 -63 94 -119q-10 76 -10 234v715h262v-1434h-186l-725 862q-60 68 -95 119q11 -84 11 -233v-748h-267zM475 -371v185h627v-185h-627z" />
    <glyph glyph-name="uni1E49" unicode="&#x1e49;" horiz-adv-x="1157" 
d="M82 0v1065h272v-156q84 181 326 181q175 0 290 -120.5t115 -318.5v-651h-276v584q0 133 -61 198.5t-168 65.5q-95 0 -158.5 -67t-63.5 -197v-584h-276zM276 -371v185h627v-185h-627z" />
    <glyph glyph-name="uni1E5C" unicode="&#x1e5c;" horiz-adv-x="1128" 
d="M102 0v1434l463 2q243 2 380.5 -113t137.5 -324q0 -168 -89.5 -272.5t-254.5 -140.5l402 -586h-338l-305 455q-35 55 -56 104h-53v-559h-287zM262 1593v185h627v-185h-627zM389 817h160q117 0 180.5 46.5t63.5 133.5q0 86 -63.5 132.5t-180.5 46.5h-160v-359zM459 -272
q0 67 48 114t118 47q71 0 118.5 -47t47.5 -114q0 -70 -47.5 -117t-118.5 -47q-70 0 -118 48t-48 116z" />
    <glyph glyph-name="uni1E5D" unicode="&#x1e5d;" horiz-adv-x="690" 
d="M82 0v1065h268v-203q28 117 111 176t219 52v-261h-39q-123 0 -203 -77t-80 -207v-545h-276zM51 -272q0 67 48 114t118 47q71 0 118.5 -47t47.5 -114q0 -70 -47.5 -117t-118.5 -47q-70 0 -118 48t-48 116zM113 1225v184h626v-184h-626z" />
    <glyph glyph-name="uni1E5E" unicode="&#x1e5e;" horiz-adv-x="1128" 
d="M102 0v1434l463 2q243 2 380.5 -113t137.5 -324q0 -168 -89.5 -272.5t-254.5 -140.5l402 -586h-338l-305 455q-35 55 -56 104h-53v-559h-287zM311 -371v185h627v-185h-627zM389 817h160q117 0 180.5 46.5t63.5 133.5q0 86 -63.5 132.5t-180.5 46.5h-160v-359z" />
    <glyph glyph-name="uni1E5F" unicode="&#x1e5f;" horiz-adv-x="690" 
d="M82 0v1065h268v-203q28 117 111 176t219 52v-261h-39q-123 0 -203 -77t-80 -207v-545h-276zM-96 -371v185h626v-185h-626z" />
    <glyph glyph-name="uni1E62" unicode="&#x1e62;" horiz-adv-x="1138" 
d="M569 -27q-372 0 -549 310l248 157q53 -106 136.5 -158.5t181.5 -52.5q99 0 157 45t58 119q0 42 -18.5 75.5t-45 55.5t-74.5 42.5t-87 32.5t-103 28q-172 44 -267 144.5t-95 258.5q0 193 138.5 310.5t366.5 117.5q162 0 276.5 -67.5t197.5 -198.5l-246 -152
q-54 86 -109 124t-133 38q-87 0 -143 -43.5t-56 -114.5q0 -31 13 -56t30.5 -41.5t51.5 -33t60 -25.5t73 -24q145 -46 198 -70q221 -100 257 -298q8 -40 8 -86q0 -197 -141.5 -317t-383.5 -120zM412 -272q0 67 48 114t118 47q71 0 118 -47t47 -114q0 -70 -47 -117t-118 -47
q-70 0 -118 48t-48 116z" />
    <glyph glyph-name="uni1E63" unicode="&#x1e63;" horiz-adv-x="886" 
d="M446 -27q-267 0 -442 187l186 170q116 -131 250 -131q69 0 108.5 30.5t39.5 79.5q0 44 -37.5 70.5t-157.5 54.5q-83 20 -143.5 48t-95 58.5t-55 70t-27 75t-6.5 80.5q0 143 107 234.5t290 91.5q133 0 224 -41t171 -144l-201 -153q-71 114 -188 114q-60 0 -96.5 -23.5
t-36.5 -70.5q0 -32 28 -55.5t115 -46.5q113 -29 189.5 -66t117.5 -82.5t57.5 -94t16.5 -112.5q0 -148 -118.5 -246t-295.5 -98zM281 -272q0 67 47.5 114t117.5 47q71 0 118.5 -47t47.5 -114q0 -70 -47 -117t-119 -47q-70 0 -117.5 48t-47.5 116z" />
    <glyph glyph-name="uni1E6C" unicode="&#x1e6c;" horiz-adv-x="1167" 
d="M440 0v1176h-409v258h1106v-258h-410v-1176h-287zM418 -272q0 67 48 114t118 47q71 0 118.5 -47t47.5 -114q0 -70 -47 -117t-119 -47q-70 0 -118 48t-48 116z" />
    <glyph glyph-name="uni1E6D" unicode="&#x1e6d;" horiz-adv-x="671" 
d="M485 0q-161 0 -243 80t-82 250v499h-150v236h150v215l276 29v-244h226v-236h-226v-485q0 -98 86 -98h115v-246h-152zM238 -272q0 67 47.5 114t117.5 47q71 0 118.5 -47t47.5 -114q0 -70 -47.5 -117t-118.5 -47q-70 0 -117.5 48t-47.5 116z" />
    <glyph glyph-name="uni1E6E" unicode="&#x1e6e;" horiz-adv-x="1167" 
d="M440 0v1176h-409v258h1106v-258h-410v-1176h-287zM270 -371v185h627v-185h-627z" />
    <glyph glyph-name="uni1E6F" unicode="&#x1e6f;" horiz-adv-x="671" 
d="M485 0q-161 0 -243 80t-82 250v499h-150v236h150v215l276 29v-244h226v-236h-226v-485q0 -98 86 -98h115v-246h-152zM90 -371v185h627v-185h-627z" />
    <glyph glyph-name="Wgrave" unicode="&#x1e80;" horiz-adv-x="2138" 
d="M461 0l-479 1434h327l230 -811q43 -154 57 -246q16 127 59 246l285 811h258l285 -811q45 -123 63 -246q13 103 53 246l230 811h328l-480 -1434h-258l-291 809q-40 113 -59 235q-19 -122 -59 -235l-291 -809h-258zM791 1884h325l70 -356h-193z" />
    <glyph glyph-name="wgrave" unicode="&#x1e81;" horiz-adv-x="1630" 
d="M305 0l-332 1065h324l137 -604q24 -101 33 -162q12 81 35 164l155 602h318l166 -602q23 -83 35 -164q11 73 32 162l148 604h301l-332 -1065h-299l-174 606q-25 79 -37 160q-13 -88 -33 -160l-159 -606h-318zM524 1516h326l70 -357h-193z" />
    <glyph glyph-name="Wacute" unicode="&#x1e82;" horiz-adv-x="2138" 
d="M461 0l-479 1434h327l230 -811q43 -154 57 -246q16 127 59 246l285 811h258l285 -811q45 -123 63 -246q13 103 53 246l230 811h328l-480 -1434h-258l-291 809q-40 113 -59 235q-19 -122 -59 -235l-291 -809h-258zM981 1528l90 356h283l-180 -356h-193z" />
    <glyph glyph-name="wacute" unicode="&#x1e83;" horiz-adv-x="1630" 
d="M305 0l-332 1065h324l137 -604q24 -101 33 -162q12 81 35 164l155 602h318l166 -602q23 -83 35 -164q11 73 32 162l148 604h301l-332 -1065h-299l-174 606q-25 79 -37 160q-13 -88 -33 -160l-159 -606h-318zM715 1159l90 357h282l-180 -357h-192z" />
    <glyph glyph-name="Wdieresis" unicode="&#x1e84;" horiz-adv-x="2138" 
d="M461 0l-479 1434h327l230 -811q43 -154 57 -246q16 127 59 246l285 811h258l285 -811q45 -123 63 -246q13 103 53 246l230 811h328l-480 -1434h-258l-291 809q-40 113 -59 235q-19 -122 -59 -235l-291 -809h-258zM698 1686q0 67 48 114t118 47q71 0 118.5 -47t47.5 -114
q0 -70 -47 -117t-119 -47q-70 0 -118 48t-48 116zM1133 1686q0 67 47.5 114t117.5 47q71 0 118.5 -47t47.5 -114q0 -70 -47 -117t-119 -47q-70 0 -117.5 48t-47.5 116z" />
    <glyph glyph-name="wdieresis" unicode="&#x1e85;" horiz-adv-x="1630" 
d="M305 0l-332 1065h324l137 -604q24 -101 33 -162q12 81 35 164l155 602h318l166 -602q23 -83 35 -164q11 73 32 162l148 604h301l-332 -1065h-299l-174 606q-25 79 -37 160q-13 -88 -33 -160l-159 -606h-318zM432 1317q0 67 48 114.5t118 47.5q71 0 118.5 -47.5
t47.5 -114.5q0 -69 -47 -116.5t-119 -47.5q-70 0 -118 48t-48 116zM866 1317q0 67 48 114.5t118 47.5q71 0 118.5 -47.5t47.5 -114.5q0 -69 -47 -116.5t-119 -47.5q-70 0 -118 48t-48 116z" />
    <glyph glyph-name="uni1E8E" unicode="&#x1e8e;" horiz-adv-x="1159" 
d="M432 0v575l-485 859h315l225 -412q6 -11 21 -39t23.5 -44t20 -40t19.5 -45t13 -41q19 68 92 209l215 412h313l-485 -865v-569h-287zM414 1686q0 67 48 114t118 47q71 0 118 -47t47 -114q0 -70 -47 -117t-118 -47q-70 0 -118 48t-48 116z" />
    <glyph glyph-name="uni1E8F" unicode="&#x1e8f;" horiz-adv-x="1103" 
d="M190 -428q-115 0 -184 20l41 265q62 -15 125 -15q76 0 128.5 44t76.5 118l14 45l-422 1016h334l207 -608q29 -82 45 -170q16 88 45 170l207 608h328l-471 -1133q-35 -84 -77.5 -147.5t-99 -112.5t-131.5 -74.5t-166 -25.5zM381 1317q0 67 48 114.5t118 47.5
q71 0 118.5 -47.5t47.5 -114.5q0 -69 -47.5 -116.5t-118.5 -47.5q-70 0 -118 48t-48 116z" />
    <glyph glyph-name="uni1E92" unicode="&#x1e92;" horiz-adv-x="1204" 
d="M20 0v31l652 1085q16 27 47 66h-660v252h1117v-31l-652 -1086q-14 -22 -47 -65h699v-252h-1156zM459 -272q0 67 48 114t118 47q71 0 118.5 -47t47.5 -114q0 -70 -47.5 -117t-118.5 -47q-70 0 -118 48t-48 116z" />
    <glyph glyph-name="uni1E93" unicode="&#x1e93;" horiz-adv-x="1005" 
d="M29 0v31l467 739q9 15 49 66h-494v229h918v-31l-471 -751q-8 -13 -39 -54h499v-229h-929zM346 -272q0 67 48 114t118 47q71 0 118.5 -47t47.5 -114q0 -70 -47 -117t-119 -47q-70 0 -118 48t-48 116z" />
    <glyph glyph-name="uni1E94" unicode="&#x1e94;" horiz-adv-x="1204" 
d="M20 0v31l652 1085q16 27 47 66h-660v252h1117v-31l-652 -1086q-14 -22 -47 -65h699v-252h-1156zM311 -371v185h627v-185h-627z" />
    <glyph glyph-name="uni1E95" unicode="&#x1e95;" horiz-adv-x="1005" 
d="M29 0v31l467 739q9 15 49 66h-494v229h918v-31l-471 -751q-8 -13 -39 -54h499v-229h-929zM199 -371v185h626v-185h-626z" />
    <glyph glyph-name="uni1E96" unicode="&#x1e96;" horiz-adv-x="1157" 
d="M82 0v1495h276v-577q85 172 322 172q175 0 290 -120.5t115 -318.5v-651h-276v584q0 133 -61 198.5t-168 65.5q-95 0 -158.5 -67t-63.5 -197v-584h-276zM281 -371v185h626v-185h-626z" />
    <glyph glyph-name="uni1E9E" unicode="&#x1e9e;" horiz-adv-x="1308" 
d="M770 -27q-116 0 -191.5 18t-148.5 68l156 220q65 -58 159 -58q96 0 150.5 59.5t54.5 143.5q0 96 -62.5 149.5t-174.5 53.5h-183v26l279 463q23 38 51 66h-201q-154 0 -218 -71t-64 -243v-868h-285v889q0 270 142 409.5t423 139.5h617v-33l-348 -590q86 -21 147.5 -65
t93 -100.5t45 -112t13.5 -115.5q0 -84 -29 -163t-84 -143.5t-144 -103.5t-198 -39z" />
    <glyph glyph-name="uni1EA0" unicode="&#x1ea0;" horiz-adv-x="1339" 
d="M-39 0l586 1434h248l583 -1434h-311l-98 272h-598l-99 -272h-311zM465 520h409l-153 391q-36 96 -51 164q-23 -89 -52 -164zM516 -272q0 67 48 114t118 47q71 0 118.5 -47t47.5 -114q0 -70 -47 -117t-119 -47q-70 0 -118 48t-48 116z" />
    <glyph glyph-name="uni1EA1" unicode="&#x1ea1;" horiz-adv-x="1261" 
d="M567 -27q-144 0 -265 74t-191 202t-70 279t70 280t191 204t265 75q131 0 211.5 -49t126.5 -141v168h275v-1065h-269v174q-46 -97 -127.5 -149t-216.5 -52zM317 530q0 -125 83 -216t212 -91q133 0 216 88.5t83 216.5q0 129 -83 219.5t-216 90.5q-129 0 -212 -90t-83 -218z
M453 -272q0 67 47.5 114t117.5 47q71 0 118.5 -47t47.5 -114q0 -70 -47 -117t-119 -47q-70 0 -117.5 48t-47.5 116z" />
    <glyph glyph-name="uni1EA2" unicode="&#x1ea2;" horiz-adv-x="1339" 
d="M-39 0l586 1434h248l583 -1434h-311l-98 272h-598l-99 -272h-311zM426 1718q0 97 66.5 159t166.5 62q102 0 168 -57t66 -151q0 -101 -61.5 -161.5t-165.5 -60.5q-56 0 -115 27l47 137q18 -10 47 -10q70 0 70 61q0 23 -17.5 39.5t-40.5 16.5q-26 0 -42.5 -17t-16.5 -45
h-172zM465 520h409l-153 391q-36 96 -51 164q-23 -89 -52 -164z" />
    <glyph glyph-name="uni1EA3" unicode="&#x1ea3;" horiz-adv-x="1261" 
d="M567 -27q-144 0 -265 74t-191 202t-70 279t70 280t191 204t265 75q131 0 211.5 -49t126.5 -141v168h275v-1065h-269v174q-46 -97 -127.5 -149t-216.5 -52zM317 530q0 -125 83 -216t212 -91q133 0 216 88.5t83 216.5q0 129 -83 219.5t-216 90.5q-129 0 -212 -90t-83 -218z
M383 1350q0 97 66.5 159t166.5 62q101 0 167.5 -57.5t66.5 -151.5q0 -101 -61.5 -161t-165.5 -60q-58 0 -115 26l47 138q19 -11 47 -11q70 0 70 62q0 23 -17 39t-41 16q-26 0 -42.5 -16.5t-16.5 -44.5h-172z" />
    <glyph glyph-name="uni1EA4" unicode="&#x1ea4;" horiz-adv-x="1339" 
d="M-39 0l586 1434h248l583 -1434h-311l-98 272h-598l-99 -272h-311zM352 1528l207 356h223l201 -356h-240l-73 164l-74 -164h-244zM465 520h409l-153 391q-36 96 -51 164q-23 -89 -52 -164zM885 1737l90 356h282l-180 -356h-192z" />
    <glyph glyph-name="uni1EA5" unicode="&#x1ea5;" horiz-adv-x="1261" 
d="M567 -27q-144 0 -265 74t-191 202t-70 279t70 280t191 204t265 75q131 0 211.5 -49t126.5 -141v168h275v-1065h-269v174q-46 -97 -127.5 -149t-216.5 -52zM309 1159l207 357h223l72 -127l86 344h283l-181 -357h-182l123 -217h-240l-73 164l-74 -164h-244zM317 530
q0 -125 83 -216t212 -91q133 0 216 88.5t83 216.5q0 129 -83 219.5t-216 90.5q-129 0 -212 -90t-83 -218z" />
    <glyph glyph-name="uni1EA6" unicode="&#x1ea6;" horiz-adv-x="1339" 
d="M-39 0l586 1434h248l583 -1434h-311l-98 272h-598l-99 -272h-311zM63 2093h326l70 -356h-193zM352 1528l207 356h223l201 -356h-240l-73 164l-74 -164h-244zM465 520h409l-153 391q-36 96 -51 164q-23 -89 -52 -164z" />
    <glyph glyph-name="uni1EA7" unicode="&#x1ea7;" horiz-adv-x="1261" 
d="M567 -27q-144 0 -265 74t-191 202t-70 279t70 280t191 204t265 75q131 0 211.5 -49t126.5 -141v168h275v-1065h-269v174q-46 -97 -127.5 -149t-216.5 -52zM0 1733h326l69 -357h-192zM309 1159l207 357h223l201 -357h-240l-73 164l-74 -164h-244zM317 530q0 -125 83 -216
t212 -91q133 0 216 88.5t83 216.5q0 129 -83 219.5t-216 90.5q-129 0 -212 -90t-83 -218z" />
    <glyph glyph-name="uni1EA8" unicode="&#x1ea8;" horiz-adv-x="1339" 
d="M-39 0l586 1434h248l583 -1434h-311l-98 272h-598l-99 -272h-311zM352 1528l207 356h223l201 -356h-240l-73 164l-74 -164h-244zM426 2111q0 97 67 159.5t166 62.5q101 0 167.5 -57.5t66.5 -151.5q0 -101 -61.5 -161t-165.5 -60q-58 0 -115 26l47 137q18 -10 47 -10
q70 0 70 62q0 23 -17 39t-41 16q-26 0 -42.5 -17t-16.5 -45h-172zM465 520h409l-153 391q-36 96 -51 164q-23 -89 -52 -164z" />
    <glyph glyph-name="uni1EA9" unicode="&#x1ea9;" horiz-adv-x="1261" 
d="M567 -27q-144 0 -265 74t-191 202t-70 279t70 280t191 204t265 75q131 0 211.5 -49t126.5 -141v168h275v-1065h-269v174q-46 -97 -127.5 -149t-216.5 -52zM309 1159l207 357h223l201 -357h-240l-73 164l-74 -164h-244zM317 530q0 -125 83 -216t212 -91q133 0 216 88.5
t83 216.5q0 129 -83 219.5t-216 90.5q-129 0 -212 -90t-83 -218zM383 1743q0 97 66.5 159t166.5 62q101 0 167.5 -57.5t66.5 -151.5q0 -101 -61.5 -161t-165.5 -60q-56 0 -115 27l47 137q17 -10 47 -10q70 0 70 61q0 23 -17 39t-41 16q-26 0 -42.5 -16.5t-16.5 -44.5h-172z
" />
    <glyph glyph-name="uni1EAA" unicode="&#x1eaa;" horiz-adv-x="1339" 
d="M-39 0l586 1434h248l583 -1434h-311l-98 272h-598l-99 -272h-311zM256 1931q0 137 80.5 212t191.5 75q56 0 105.5 -20t78.5 -43.5t62.5 -43.5t59.5 -20q71 0 71 104h178q0 -136 -63 -214t-184 -78q-56 0 -103 20.5t-73.5 45t-62 45t-71.5 20.5q-50 0 -72 -31.5t-22 -71.5
h-176zM352 1528l207 356h223l201 -356h-240l-73 164l-74 -164h-244zM465 520h409l-153 391q-36 96 -51 164q-23 -89 -52 -164z" />
    <glyph glyph-name="uni1EAB" unicode="&#x1eab;" horiz-adv-x="1261" 
d="M567 -27q-144 0 -265 74t-191 202t-70 279t70 280t191 204t265 75q131 0 211.5 -49t126.5 -141v168h275v-1065h-269v174q-46 -97 -127.5 -149t-216.5 -52zM213 1563q0 70 23 126t62 90t86.5 52t100.5 18q56 0 105.5 -20t78.5 -43.5t62.5 -43.5t59.5 -20q71 0 71 105h178
q0 -136 -63 -214.5t-184 -78.5q-56 0 -103 20.5t-73.5 45t-62 45t-71.5 20.5q-50 0 -72 -31t-22 -71h-176zM309 1159l207 357h223l201 -357h-240l-73 164l-74 -164h-244zM317 530q0 -125 83 -216t212 -91q133 0 216 88.5t83 216.5q0 129 -83 219.5t-216 90.5
q-129 0 -212 -90t-83 -218z" />
    <glyph glyph-name="uni1EAC" unicode="&#x1eac;" horiz-adv-x="1339" 
d="M-39 0l586 1434h248l583 -1434h-311l-98 272h-598l-99 -272h-311zM352 1528l207 356h223l201 -356h-240l-73 164l-74 -164h-244zM465 520h409l-153 391q-36 96 -51 164q-23 -89 -52 -164zM516 -272q0 67 48 114t118 47q71 0 118.5 -47t47.5 -114q0 -70 -47 -117t-119 -47
q-70 0 -118 48t-48 116z" />
    <glyph glyph-name="uni1EAD" unicode="&#x1ead;" horiz-adv-x="1261" 
d="M567 -27q-144 0 -265 74t-191 202t-70 279t70 280t191 204t265 75q131 0 211.5 -49t126.5 -141v168h275v-1065h-269v174q-46 -97 -127.5 -149t-216.5 -52zM309 1159l207 357h223l201 -357h-240l-73 164l-74 -164h-244zM317 530q0 -125 83 -216t212 -91q133 0 216 88.5
t83 216.5q0 129 -83 219.5t-216 90.5q-129 0 -212 -90t-83 -218zM453 -272q0 67 47.5 114t117.5 47q71 0 118.5 -47t47.5 -114q0 -70 -47 -117t-119 -47q-70 0 -117.5 48t-47.5 116z" />
    <glyph glyph-name="uni1EAE" unicode="&#x1eae;" horiz-adv-x="1339" 
d="M-39 0l586 1434h248l583 -1434h-311l-98 272h-598l-99 -272h-311zM342 1794h219q-2 -46 27 -80.5t82 -34.5q55 0 82.5 34t25.5 81h219q0 -126 -88.5 -205.5t-238.5 -79.5q-149 0 -238.5 79.5t-89.5 205.5zM465 520h409l-153 391q-36 96 -51 164q-23 -89 -52 -164z
M569 1855l90 357h283l-180 -357h-193z" />
    <glyph glyph-name="uni1EAF" unicode="&#x1eaf;" horiz-adv-x="1261" 
d="M567 -27q-144 0 -265 74t-191 202t-70 279t70 280t191 204t265 75q131 0 211.5 -49t126.5 -141v168h275v-1065h-269v174q-46 -97 -127.5 -149t-216.5 -52zM299 1425h219q-2 -46 27 -80t82 -34q55 0 82.5 33.5t25.5 80.5h219q0 -126 -88.5 -205t-238.5 -79
q-149 0 -238.5 79t-89.5 205zM317 530q0 -125 83 -216t212 -91q133 0 216 88.5t83 216.5q0 129 -83 219.5t-216 90.5q-129 0 -212 -90t-83 -218zM526 1487l90 356h283l-180 -356h-193z" />
    <glyph glyph-name="uni1EB0" unicode="&#x1eb0;" horiz-adv-x="1339" 
d="M-39 0l586 1434h248l583 -1434h-311l-98 272h-598l-99 -272h-311zM342 1794h219q-2 -46 27 -80.5t82 -34.5q55 0 82.5 34t25.5 81h219q0 -126 -88.5 -205.5t-238.5 -79.5q-149 0 -238.5 79.5t-89.5 205.5zM379 2212h326l69 -357h-192zM465 520h409l-153 391
q-36 96 -51 164q-23 -89 -52 -164z" />
    <glyph glyph-name="uni1EB1" unicode="&#x1eb1;" horiz-adv-x="1261" 
d="M567 -27q-144 0 -265 74t-191 202t-70 279t70 280t191 204t265 75q131 0 211.5 -49t126.5 -141v168h275v-1065h-269v174q-46 -97 -127.5 -149t-216.5 -52zM299 1425h219q-2 -46 27 -80t82 -34q55 0 82.5 33.5t25.5 80.5h219q0 -126 -88.5 -205t-238.5 -79
q-149 0 -238.5 79t-89.5 205zM317 530q0 -125 83 -216t212 -91q133 0 216 88.5t83 216.5q0 129 -83 219.5t-216 90.5q-129 0 -212 -90t-83 -218zM336 1843h326l69 -356h-192z" />
    <glyph glyph-name="uni1EB2" unicode="&#x1eb2;" horiz-adv-x="1339" 
d="M-39 0l586 1434h248l583 -1434h-311l-98 272h-598l-99 -272h-311zM342 1794h219q-2 -46 27 -80.5t82 -34.5q55 0 82.5 34t25.5 81h219q0 -126 -88.5 -205.5t-238.5 -79.5q-149 0 -238.5 79.5t-89.5 205.5zM426 2046q0 97 66.5 159t166.5 62q101 0 167.5 -57.5
t66.5 -151.5q0 -101 -61.5 -161t-165.5 -60q-56 0 -115 27l47 137q18 -10 47 -10q70 0 70 61q0 23 -17 39t-41 16q-26 0 -42.5 -16.5t-16.5 -44.5h-172zM465 520h409l-153 391q-36 96 -51 164q-23 -89 -52 -164z" />
    <glyph glyph-name="uni1EB3" unicode="&#x1eb3;" horiz-adv-x="1261" 
d="M567 -27q-144 0 -265 74t-191 202t-70 279t70 280t191 204t265 75q131 0 211.5 -49t126.5 -141v168h275v-1065h-269v174q-46 -97 -127.5 -149t-216.5 -52zM299 1425h219q-2 -46 27 -80t82 -34q55 0 82.5 33.5t25.5 80.5h219q0 -126 -88.5 -205t-238.5 -79
q-149 0 -238.5 79t-89.5 205zM317 530q0 -125 83 -216t212 -91q133 0 216 88.5t83 216.5q0 129 -83 219.5t-216 90.5q-129 0 -212 -90t-83 -218zM383 1677q0 97 66.5 159t166.5 62q102 0 168 -57t66 -151q0 -101 -61.5 -161.5t-165.5 -60.5q-56 0 -115 27l47 137
q17 -10 47 -10q70 0 70 61q0 23 -17.5 39.5t-40.5 16.5q-26 0 -42.5 -17t-16.5 -45h-172z" />
    <glyph glyph-name="uni1EB4" unicode="&#x1eb4;" horiz-adv-x="1339" 
d="M-39 0l586 1434h248l583 -1434h-311l-98 272h-598l-99 -272h-311zM256 1866q0 70 23 126t62 90t86.5 52t100.5 18q56 0 105.5 -20t78.5 -43.5t62.5 -43.5t59.5 -20q71 0 71 105h178q0 -136 -63 -214.5t-184 -78.5q-56 0 -103 20.5t-73.5 45t-62 45t-71.5 20.5
q-50 0 -72 -31t-22 -71h-176zM342 1794h219q-2 -46 27 -80.5t82 -34.5q55 0 82.5 34t25.5 81h219q0 -126 -88.5 -205.5t-238.5 -79.5q-149 0 -238.5 79.5t-89.5 205.5zM465 520h409l-153 391q-36 96 -51 164q-23 -89 -52 -164z" />
    <glyph glyph-name="uni1EB5" unicode="&#x1eb5;" horiz-adv-x="1261" 
d="M567 -27q-144 0 -265 74t-191 202t-70 279t70 280t191 204t265 75q131 0 211.5 -49t126.5 -141v168h275v-1065h-269v174q-46 -97 -127.5 -149t-216.5 -52zM213 1497q0 137 80.5 212t191.5 75q56 0 105.5 -20t78.5 -43.5t62.5 -43.5t59.5 -20q71 0 71 104h178
q0 -136 -63 -214.5t-184 -78.5q-56 0 -103 20.5t-73.5 45t-62 45t-71.5 20.5q-50 0 -72 -31t-22 -71h-176zM299 1425h219q-2 -46 27 -80t82 -34q55 0 82.5 33.5t25.5 80.5h219q0 -126 -88.5 -205t-238.5 -79q-149 0 -238.5 79t-89.5 205zM317 530q0 -125 83 -216t212 -91
q133 0 216 88.5t83 216.5q0 129 -83 219.5t-216 90.5q-129 0 -212 -90t-83 -218z" />
    <glyph glyph-name="uni1EB6" unicode="&#x1eb6;" horiz-adv-x="1339" 
d="M-39 0l586 1434h248l583 -1434h-311l-98 272h-598l-99 -272h-311zM342 1794h219q-2 -46 27 -80.5t82 -34.5q55 0 82.5 34t25.5 81h219q0 -126 -88.5 -205.5t-238.5 -79.5q-149 0 -238.5 79.5t-89.5 205.5zM465 520h409l-153 391q-36 96 -51 164q-23 -89 -52 -164z
M516 -272q0 67 48 114t118 47q71 0 118.5 -47t47.5 -114q0 -70 -47 -117t-119 -47q-70 0 -118 48t-48 116z" />
    <glyph glyph-name="uni1EB7" unicode="&#x1eb7;" horiz-adv-x="1261" 
d="M567 -27q-144 0 -265 74t-191 202t-70 279t70 280t191 204t265 75q131 0 211.5 -49t126.5 -141v168h275v-1065h-269v174q-46 -97 -127.5 -149t-216.5 -52zM299 1425h219q-2 -46 27 -80t82 -34q55 0 82.5 33.5t25.5 80.5h219q0 -126 -88.5 -205t-238.5 -79
q-149 0 -238.5 79t-89.5 205zM317 530q0 -125 83 -216t212 -91q133 0 216 88.5t83 216.5q0 129 -83 219.5t-216 90.5q-129 0 -212 -90t-83 -218zM453 -272q0 67 47.5 114t117.5 47q71 0 118.5 -47t47.5 -114q0 -70 -47 -117t-119 -47q-70 0 -117.5 48t-47.5 116z" />
    <glyph glyph-name="uni1EB8" unicode="&#x1eb8;" horiz-adv-x="1026" 
d="M102 0v1434h840v-258h-553v-322h543v-250h-543v-346h557v-258h-844zM387 -272q0 67 48 114t118 47q71 0 118.5 -47t47.5 -114q0 -70 -47.5 -117t-118.5 -47q-70 0 -118 48t-48 116z" />
    <glyph glyph-name="uni1EB9" unicode="&#x1eb9;" horiz-adv-x="1171" 
d="M592 -27q-161 0 -288 75t-195 202t-68 280q0 152 70.5 280.5t197.5 205t283 76.5t280.5 -76.5t192.5 -204.5t68 -281q0 -45 -9 -98h-796q24 -97 93 -155t171 -58q86 0 153.5 39.5t106.5 103.5l215 -161q-66 -102 -193 -165t-282 -63zM328 639h526q-24 93 -96 154t-170 61
q-97 0 -166.5 -59t-93.5 -156zM426 -272q0 67 48 114t118 47q71 0 118.5 -47t47.5 -114q0 -70 -47 -117t-119 -47q-70 0 -118 48t-48 116z" />
    <glyph glyph-name="uni1EBA" unicode="&#x1eba;" horiz-adv-x="1026" 
d="M102 0v1434h840v-258h-553v-322h543v-250h-543v-346h557v-258h-844zM289 1718q0 97 66.5 159t166.5 62q102 0 168 -57t66 -151q0 -101 -62 -161.5t-166 -60.5q-55 0 -114 27l47 137q17 -10 47 -10q70 0 70 61q0 23 -17.5 39.5t-40.5 16.5q-26 0 -42.5 -17t-16.5 -45h-172
z" />
    <glyph glyph-name="uni1EBB" unicode="&#x1ebb;" horiz-adv-x="1171" 
d="M592 -27q-161 0 -288 75t-195 202t-68 280q0 152 70.5 280.5t197.5 205t283 76.5t280.5 -76.5t192.5 -204.5t68 -281q0 -45 -9 -98h-796q24 -97 93 -155t171 -58q86 0 153.5 39.5t106.5 103.5l215 -161q-66 -102 -193 -165t-282 -63zM328 639h526q-24 93 -96 154t-170 61
q-97 0 -166.5 -59t-93.5 -156zM342 1350q0 97 66.5 159t166.5 62q101 0 167.5 -57.5t66.5 -151.5q0 -101 -61.5 -161t-165.5 -60q-58 0 -115 26l47 138q19 -11 47 -11q70 0 70 62q0 23 -17 39t-41 16q-26 0 -42.5 -16.5t-16.5 -44.5h-172z" />
    <glyph glyph-name="uni1EBC" unicode="&#x1ebc;" horiz-adv-x="1026" 
d="M102 0v1434h840v-258h-553v-322h543v-250h-543v-346h557v-258h-844zM119 1538q0 137 80.5 212t191.5 75q56 0 105.5 -20t78.5 -43.5t62 -43.5t59 -20q72 0 72 104h178q0 -136 -63.5 -214.5t-184.5 -78.5q-46 0 -84.5 13.5t-65 32.5t-50.5 38.5t-51.5 33t-57.5 13.5
q-50 0 -72 -31t-22 -71h-176z" />
    <glyph glyph-name="uni1EBD" unicode="&#x1ebd;" horiz-adv-x="1171" 
d="M592 -27q-161 0 -288 75t-195 202t-68 280q0 152 70.5 280.5t197.5 205t283 76.5t280.5 -76.5t192.5 -204.5t68 -281q0 -45 -9 -98h-796q24 -97 93 -155t171 -58q86 0 153.5 39.5t106.5 103.5l215 -161q-66 -102 -193 -165t-282 -63zM172 1169q0 137 80.5 212t191.5 75
q56 0 105.5 -20t78.5 -43.5t62.5 -43.5t59.5 -20q71 0 71 105h178q0 -136 -63 -214.5t-184 -78.5q-56 0 -103 20.5t-73.5 45t-62 45t-71.5 20.5q-50 0 -72 -31.5t-22 -71.5h-176zM328 639h526q-24 93 -96 154t-170 61q-97 0 -166.5 -59t-93.5 -156z" />
    <glyph glyph-name="uni1EBE" unicode="&#x1ebe;" horiz-adv-x="1026" 
d="M102 0v1434h840v-258h-553v-322h543v-250h-543v-346h557v-258h-844zM215 1528l207 356h223l201 -356h-240l-74 164l-73 -164h-244zM754 1737l90 356h282l-180 -356h-192z" />
    <glyph glyph-name="uni1EBF" unicode="&#x1ebf;" horiz-adv-x="1171" 
d="M592 -27q-161 0 -288 75t-195 202t-68 280q0 152 70.5 280.5t197.5 205t283 76.5t280.5 -76.5t192.5 -204.5t68 -281q0 -45 -9 -98h-796q24 -97 93 -155t171 -58q86 0 153.5 39.5t106.5 103.5l215 -161q-66 -102 -193 -165t-282 -63zM268 1159l207 357h223l201 -357h-240
l-73 164l-74 -164h-244zM328 639h526q-24 93 -96 154t-170 61q-97 0 -166.5 -59t-93.5 -156zM807 1376l90 357h283l-181 -357h-192z" />
    <glyph glyph-name="uni1EC0" unicode="&#x1ec0;" horiz-adv-x="1026" 
d="M102 0v1434h840v-258h-553v-322h543v-250h-543v-346h557v-258h-844zM-72 2093h326l70 -356h-193zM215 1528l207 356h223l201 -356h-240l-74 164l-73 -164h-244z" />
    <glyph glyph-name="uni1EC1" unicode="&#x1ec1;" horiz-adv-x="1171" 
d="M592 -27q-161 0 -288 75t-195 202t-68 280q0 152 70.5 280.5t197.5 205t283 76.5t280.5 -76.5t192.5 -204.5t68 -281q0 -45 -9 -98h-796q24 -97 93 -155t171 -58q86 0 153.5 39.5t106.5 103.5l215 -161q-66 -102 -193 -165t-282 -63zM0 1733h326l69 -355l80 138h223
l201 -357h-240l-73 164l-74 -164h-244l127 217h-192zM328 639h526q-24 93 -96 154t-170 61q-97 0 -166.5 -59t-93.5 -156z" />
    <glyph glyph-name="uni1EC2" unicode="&#x1ec2;" horiz-adv-x="1026" 
d="M102 0v1434h840v-258h-553v-322h543v-250h-543v-346h557v-258h-844zM215 1528l207 356h223l201 -356h-240l-74 164l-73 -164h-244zM289 2111q0 97 67 159.5t166 62.5q101 0 167.5 -57.5t66.5 -151.5q0 -101 -62 -161t-166 -60q-57 0 -114 26l47 137q18 -10 47 -10
q70 0 70 62q0 23 -17 39t-41 16q-26 0 -42.5 -17t-16.5 -45h-172z" />
    <glyph glyph-name="uni1EC3" unicode="&#x1ec3;" horiz-adv-x="1171" 
d="M592 -27q-161 0 -288 75t-195 202t-68 280q0 152 70.5 280.5t197.5 205t283 76.5t280.5 -76.5t192.5 -204.5t68 -281q0 -45 -9 -98h-796q24 -97 93 -155t171 -58q86 0 153.5 39.5t106.5 103.5l215 -161q-66 -102 -193 -165t-282 -63zM268 1159l207 357h223l201 -357h-240
l-73 164l-74 -164h-244zM328 639h526q-24 93 -96 154t-170 61q-97 0 -166.5 -59t-93.5 -156zM342 1743q0 97 66.5 159t166.5 62q101 0 167.5 -57.5t66.5 -151.5q0 -101 -61.5 -161t-165.5 -60q-56 0 -115 27l47 137q18 -10 47 -10q70 0 70 61q0 23 -17 39t-41 16
q-26 0 -42.5 -16.5t-16.5 -44.5h-172z" />
    <glyph glyph-name="uni1EC4" unicode="&#x1ec4;" horiz-adv-x="1026" 
d="M102 0v1434h840v-258h-553v-322h543v-250h-543v-346h557v-258h-844zM119 1931q0 137 80.5 212t191.5 75q56 0 105.5 -20t78.5 -43.5t62 -43.5t59 -20q72 0 72 104h178q0 -136 -63 -214t-185 -78q-46 0 -84.5 13.5t-65 32.5t-50.5 38.5t-51.5 33t-57.5 13.5
q-50 0 -72 -31.5t-22 -71.5h-176zM215 1528l207 356h223l201 -356h-240l-74 164l-73 -164h-244z" />
    <glyph glyph-name="uni1EC5" unicode="&#x1ec5;" horiz-adv-x="1171" 
d="M592 -27q-161 0 -288 75t-195 202t-68 280q0 152 70.5 280.5t197.5 205t283 76.5t280.5 -76.5t192.5 -204.5t68 -281q0 -45 -9 -98h-796q24 -97 93 -155t171 -58q86 0 153.5 39.5t106.5 103.5l215 -161q-66 -102 -193 -165t-282 -63zM172 1563q0 70 23 126t62 90t86.5 52
t100.5 18q56 0 105.5 -20t78.5 -43.5t62.5 -43.5t59.5 -20q71 0 71 105h178q0 -136 -63 -214.5t-184 -78.5q-56 0 -103 20.5t-73.5 45t-62 45t-71.5 20.5q-50 0 -72 -31t-22 -71h-176zM268 1159l207 357h223l201 -357h-240l-73 164l-74 -164h-244zM328 639h526
q-24 93 -96 154t-170 61q-97 0 -166.5 -59t-93.5 -156z" />
    <glyph glyph-name="uni1EC6" unicode="&#x1ec6;" horiz-adv-x="1026" 
d="M102 0v1434h840v-258h-553v-322h543v-250h-543v-346h557v-258h-844zM215 1528l207 356h223l201 -356h-240l-74 164l-73 -164h-244zM387 -272q0 67 48 114t118 47q71 0 118.5 -47t47.5 -114q0 -70 -47.5 -117t-118.5 -47q-70 0 -118 48t-48 116z" />
    <glyph glyph-name="uni1EC7" unicode="&#x1ec7;" horiz-adv-x="1171" 
d="M592 -27q-161 0 -288 75t-195 202t-68 280q0 152 70.5 280.5t197.5 205t283 76.5t280.5 -76.5t192.5 -204.5t68 -281q0 -45 -9 -98h-796q24 -97 93 -155t171 -58q86 0 153.5 39.5t106.5 103.5l215 -161q-66 -102 -193 -165t-282 -63zM268 1159l207 357h223l201 -357h-240
l-73 164l-74 -164h-244zM328 639h526q-24 93 -96 154t-170 61q-97 0 -166.5 -59t-93.5 -156zM426 -272q0 67 48 114t118 47q71 0 118.5 -47t47.5 -114q0 -70 -47 -117t-119 -47q-70 0 -118 48t-48 116z" />
    <glyph glyph-name="uni1EC8" unicode="&#x1ec8;" horiz-adv-x="491" 
d="M102 0v1434h287v-1434h-287zM2 1718q0 97 67 159t167 62q101 0 167 -57t66 -151q0 -101 -61.5 -161.5t-165.5 -60.5q-56 0 -115 27l47 137q17 -10 47 -10q70 0 70 61q0 23 -17.5 39.5t-40.5 16.5q-26 0 -42.5 -17t-16.5 -45h-172z" />
    <glyph glyph-name="uni1EC9" unicode="&#x1ec9;" horiz-adv-x="440" 
d="M82 0v1065h276v-1065h-276zM-27 1350q0 97 67 159t167 62q101 0 167 -57.5t66 -151.5q0 -101 -61.5 -161t-165.5 -60q-58 0 -115 26l47 138q19 -11 48 -11q69 0 69 62q0 23 -17 39t-40 16q-27 0 -43.5 -16.5t-16.5 -44.5h-172z" />
    <glyph glyph-name="uni1ECA" unicode="&#x1eca;" horiz-adv-x="491" 
d="M102 0v1434h287v-1434h-287zM80 -272q0 67 48 114t118 47q71 0 118.5 -47t47.5 -114q0 -70 -47 -117t-119 -47q-70 0 -118 48t-48 116z" />
    <glyph glyph-name="uni1ECB" unicode="&#x1ecb;" horiz-adv-x="440" 
d="M82 0v1065h276v-1065h-276zM51 -272q0 67 48 114t118 47q71 0 118.5 -47t47.5 -114q0 -70 -47.5 -117t-118.5 -47q-70 0 -118 48t-48 116zM53 1317q0 67 48 114.5t118 47.5q71 0 118.5 -47.5t47.5 -114.5q0 -69 -47.5 -116.5t-118.5 -47.5q-70 0 -118 48t-48 116z" />
    <glyph glyph-name="uni1ECC" unicode="&#x1ecc;" horiz-adv-x="1593" 
d="M799 -27q-157 0 -296 58.5t-238 158.5t-156.5 236.5t-57.5 288.5t57.5 289.5t156.5 237.5t238 159t296 59q208 0 379 -100t267.5 -270.5t96.5 -374.5q0 -152 -57 -288.5t-155 -236.5t-236.5 -158.5t-294.5 -58.5zM348 715q0 -131 53.5 -238t157.5 -172t240 -65
q134 0 237 65t156 172t53 238t-53 239t-156 174t-237 66q-135 0 -239.5 -66t-158 -174t-53.5 -239zM633 -272q0 67 48 114t118 47q71 0 118.5 -47t47.5 -114q0 -70 -47.5 -117t-118.5 -47q-70 0 -118 48t-48 116z" />
    <glyph glyph-name="uni1ECD" unicode="&#x1ecd;" horiz-adv-x="1216" 
d="M608 -27q-161 0 -292 75t-203 202.5t-72 279.5q0 153 72 280.5t203 203.5t292 76t292 -76t203.5 -204t72.5 -280t-72.5 -279.5t-203.5 -202.5t-292 -75zM317 530q0 -128 81 -216.5t210 -88.5t210 88.5t81 216.5t-81 218t-210 90t-210 -90t-81 -218zM444 -272q0 67 48 114
t118 47q71 0 118.5 -47t47.5 -114q0 -70 -47 -117t-119 -47q-70 0 -118 48t-48 116z" />
    <glyph glyph-name="uni1ECE" unicode="&#x1ece;" horiz-adv-x="1593" 
d="M799 -27q-157 0 -296 58.5t-238 158.5t-156.5 236.5t-57.5 288.5t57.5 289.5t156.5 237.5t238 159t296 59q208 0 379 -100t267.5 -270.5t96.5 -374.5q0 -152 -57 -288.5t-155 -236.5t-236.5 -158.5t-294.5 -58.5zM348 715q0 -131 53.5 -238t157.5 -172t240 -65
q134 0 237 65t156 172t53 238t-53 239t-156 174t-237 66q-135 0 -239.5 -66t-158 -174t-53.5 -239zM555 1718q0 97 66.5 159t166.5 62q102 0 168 -57t66 -151q0 -101 -61.5 -161.5t-165.5 -60.5q-56 0 -115 27l47 137q18 -10 47 -10q70 0 70 61q0 23 -17.5 39.5t-40.5 16.5
q-26 0 -42.5 -17t-16.5 -45h-172z" />
    <glyph glyph-name="uni1ECF" unicode="&#x1ecf;" horiz-adv-x="1216" 
d="M608 -27q-161 0 -292 75t-203 202.5t-72 279.5q0 153 72 280.5t203 203.5t292 76t292 -76t203.5 -204t72.5 -280t-72.5 -279.5t-203.5 -202.5t-292 -75zM317 530q0 -128 81 -216.5t210 -88.5t210 88.5t81 216.5t-81 218t-210 90t-210 -90t-81 -218zM365 1350
q0 97 66.5 159t166.5 62q101 0 167 -57.5t66 -151.5q0 -101 -61.5 -161t-165.5 -60q-58 0 -115 26l48 138q19 -11 47 -11q69 0 69 62q0 23 -17 39t-40 16q-26 0 -42.5 -16.5t-16.5 -44.5h-172z" />
    <glyph glyph-name="uni1ED0" unicode="&#x1ed0;" horiz-adv-x="1593" 
d="M799 -27q-157 0 -296 58.5t-238 158.5t-156.5 236.5t-57.5 288.5t57.5 289.5t156.5 237.5t238 159t296 59q208 0 379 -100t267.5 -270.5t96.5 -374.5q0 -152 -57 -288.5t-155 -236.5t-236.5 -158.5t-294.5 -58.5zM348 715q0 -131 53.5 -238t157.5 -172t240 -65
q134 0 237 65t156 172t53 238t-53 239t-156 174t-237 66q-135 0 -239.5 -66t-158 -174t-53.5 -239zM481 1528l207 356h223l201 -356h-240l-73 164l-74 -164h-244zM1022 1737l90 356h283l-181 -356h-192z" />
    <glyph glyph-name="uni1ED1" unicode="&#x1ed1;" horiz-adv-x="1216" 
d="M608 -27q-161 0 -292 75t-203 202.5t-72 279.5q0 153 72 280.5t203 203.5t292 76t292 -76t203.5 -204t72.5 -280t-72.5 -279.5t-203.5 -202.5t-292 -75zM291 1159l207 357h223l201 -357h-240l-74 164l-73 -164h-244zM317 530q0 -128 81 -216.5t210 -88.5t210 88.5
t81 216.5t-81 218t-210 90t-210 -90t-81 -218zM807 1376l90 357h283l-181 -357h-192z" />
    <glyph glyph-name="uni1ED2" unicode="&#x1ed2;" horiz-adv-x="1593" 
d="M799 -27q-157 0 -296 58.5t-238 158.5t-156.5 236.5t-57.5 288.5t57.5 289.5t156.5 237.5t238 159t296 59q208 0 379 -100t267.5 -270.5t96.5 -374.5q0 -152 -57 -288.5t-155 -236.5t-236.5 -158.5t-294.5 -58.5zM176 2093h326l69 -356h-192zM348 715q0 -131 53.5 -238
t157.5 -172t240 -65q134 0 237 65t156 172t53 238t-53 239t-156 174t-237 66q-135 0 -239.5 -66t-158 -174t-53.5 -239zM481 1528l207 356h223l201 -356h-240l-73 164l-74 -164h-244z" />
    <glyph glyph-name="uni1ED3" unicode="&#x1ed3;" horiz-adv-x="1216" 
d="M608 -27q-161 0 -292 75t-203 202.5t-72 279.5q0 153 72 280.5t203 203.5t292 76t292 -76t203.5 -204t72.5 -280t-72.5 -279.5t-203.5 -202.5t-292 -75zM0 1733h326l69 -357h-192zM291 1159l207 357h223l201 -357h-240l-74 164l-73 -164h-244zM317 530q0 -128 81 -216.5
t210 -88.5t210 88.5t81 216.5t-81 218t-210 90t-210 -90t-81 -218z" />
    <glyph glyph-name="uni1ED4" unicode="&#x1ed4;" horiz-adv-x="1593" 
d="M799 -27q-157 0 -296 58.5t-238 158.5t-156.5 236.5t-57.5 288.5t57.5 289.5t156.5 237.5t238 159t296 59q208 0 379 -100t267.5 -270.5t96.5 -374.5q0 -152 -57 -288.5t-155 -236.5t-236.5 -158.5t-294.5 -58.5zM348 715q0 -131 53.5 -238t157.5 -172t240 -65
q134 0 237 65t156 172t53 238t-53 239t-156 174t-237 66q-135 0 -239.5 -66t-158 -174t-53.5 -239zM481 1528l207 356h223l201 -356h-240l-73 164l-74 -164h-244zM555 2111q0 97 67 159.5t166 62.5q101 0 167.5 -57.5t66.5 -151.5q0 -101 -61.5 -161t-165.5 -60
q-58 0 -115 26l47 137q18 -10 47 -10q70 0 70 62q0 23 -17 39t-41 16q-26 0 -42.5 -17t-16.5 -45h-172z" />
    <glyph glyph-name="uni1ED5" unicode="&#x1ed5;" horiz-adv-x="1216" 
d="M608 -27q-161 0 -292 75t-203 202.5t-72 279.5q0 153 72 280.5t203 203.5t292 76t292 -76t203.5 -204t72.5 -280t-72.5 -279.5t-203.5 -202.5t-292 -75zM291 1159l207 357h223l201 -357h-240l-74 164l-73 -164h-244zM317 530q0 -128 81 -216.5t210 -88.5t210 88.5
t81 216.5t-81 218t-210 90t-210 -90t-81 -218zM365 1743q0 97 66.5 159t166.5 62q101 0 167 -57.5t66 -151.5q0 -101 -61.5 -161t-165.5 -60q-56 0 -115 27l48 137q18 -10 47 -10q69 0 69 61q0 23 -17 39t-40 16q-26 0 -42.5 -16.5t-16.5 -44.5h-172z" />
    <glyph glyph-name="uni1ED6" unicode="&#x1ed6;" horiz-adv-x="1593" 
d="M799 -27q-157 0 -296 58.5t-238 158.5t-156.5 236.5t-57.5 288.5t57.5 289.5t156.5 237.5t238 159t296 59q208 0 379 -100t267.5 -270.5t96.5 -374.5q0 -152 -57 -288.5t-155 -236.5t-236.5 -158.5t-294.5 -58.5zM348 715q0 -131 53.5 -238t157.5 -172t240 -65
q134 0 237 65t156 172t53 238t-53 239t-156 174t-237 66q-135 0 -239.5 -66t-158 -174t-53.5 -239zM385 1931q0 137 80.5 212t191.5 75q56 0 105.5 -20t78.5 -43.5t62.5 -43.5t59.5 -20q71 0 71 104h178q0 -136 -63 -214t-184 -78q-56 0 -103 20.5t-73.5 45t-62 45
t-71.5 20.5q-50 0 -72 -31.5t-22 -71.5h-176zM481 1528l207 356h223l201 -356h-240l-73 164l-74 -164h-244z" />
    <glyph glyph-name="uni1ED7" unicode="&#x1ed7;" horiz-adv-x="1216" 
d="M608 -27q-161 0 -292 75t-203 202.5t-72 279.5q0 153 72 280.5t203 203.5t292 76t292 -76t203.5 -204t72.5 -280t-72.5 -279.5t-203.5 -202.5t-292 -75zM195 1563q0 70 23 126t62 90t86.5 52t100.5 18q56 0 105.5 -20t78.5 -43.5t62 -43.5t59 -20q72 0 72 105h178
q0 -136 -63.5 -214.5t-184.5 -78.5q-46 0 -84.5 13.5t-65 33t-50.5 38.5t-51.5 32.5t-57.5 13.5q-50 0 -72 -31t-22 -71h-176zM291 1159l207 357h223l201 -357h-240l-74 164l-73 -164h-244zM317 530q0 -128 81 -216.5t210 -88.5t210 88.5t81 216.5t-81 218t-210 90t-210 -90
t-81 -218z" />
    <glyph glyph-name="uni1ED8" unicode="&#x1ed8;" horiz-adv-x="1593" 
d="M799 -27q-157 0 -296 58.5t-238 158.5t-156.5 236.5t-57.5 288.5t57.5 289.5t156.5 237.5t238 159t296 59q208 0 379 -100t267.5 -270.5t96.5 -374.5q0 -152 -57 -288.5t-155 -236.5t-236.5 -158.5t-294.5 -58.5zM348 715q0 -131 53.5 -238t157.5 -172t240 -65
q134 0 237 65t156 172t53 238t-53 239t-156 174t-237 66q-135 0 -239.5 -66t-158 -174t-53.5 -239zM481 1528l207 356h223l201 -356h-240l-73 164l-74 -164h-244zM633 -272q0 67 48 114t118 47q71 0 118.5 -47t47.5 -114q0 -70 -47.5 -117t-118.5 -47q-70 0 -118 48t-48 116
z" />
    <glyph glyph-name="uni1ED9" unicode="&#x1ed9;" horiz-adv-x="1216" 
d="M608 -27q-161 0 -292 75t-203 202.5t-72 279.5q0 153 72 280.5t203 203.5t292 76t292 -76t203.5 -204t72.5 -280t-72.5 -279.5t-203.5 -202.5t-292 -75zM291 1159l207 357h223l201 -357h-240l-74 164l-73 -164h-244zM317 530q0 -128 81 -216.5t210 -88.5t210 88.5
t81 216.5t-81 218t-210 90t-210 -90t-81 -218zM444 -272q0 67 48 114t118 47q71 0 118.5 -47t47.5 -114q0 -70 -47 -117t-119 -47q-70 0 -118 48t-48 116z" />
    <glyph glyph-name="uni1EDA" unicode="&#x1eda;" horiz-adv-x="1593" 
d="M799 -27q-157 0 -296 58.5t-238 158.5t-156.5 236.5t-57.5 288.5t57.5 289.5t156.5 237.5t238 159t296 59q107 0 223 -33h20q93 0 128.5 37t35.5 146v65h234v-82q0 -223 -164 -301q125 -104 195.5 -254.5t70.5 -322.5q0 -152 -57 -288.5t-155 -236.5t-236.5 -158.5
t-294.5 -58.5zM348 715q0 -131 53.5 -238t157.5 -172t240 -65q134 0 237 65t156 172t53 238t-53 239t-156 174t-237 66q-135 0 -239.5 -66t-158 -174t-53.5 -239zM698 1528l90 356h283l-180 -356h-193z" />
    <glyph glyph-name="uni1EDB" unicode="&#x1edb;" horiz-adv-x="1216" 
d="M608 -27q-161 0 -292 75t-203 202.5t-72 279.5q0 153 72 280.5t203 203.5t292 76q89 0 172 -25h21q93 0 128.5 36.5t35.5 145.5v66h233v-82q0 -234 -180 -309q75 -75 116.5 -177t41.5 -215q0 -152 -72.5 -279.5t-203.5 -202.5t-292 -75zM317 530q0 -128 81 -216.5
t210 -88.5t210 88.5t81 216.5t-81 218t-210 90t-210 -90t-81 -218zM508 1159l90 357h283l-181 -357h-192z" />
    <glyph glyph-name="uni1EDC" unicode="&#x1edc;" horiz-adv-x="1593" 
d="M799 -27q-157 0 -296 58.5t-238 158.5t-156.5 236.5t-57.5 288.5t57.5 289.5t156.5 237.5t238 159t296 59q107 0 223 -33h20q93 0 128.5 37t35.5 146v65h234v-82q0 -223 -164 -301q125 -104 195.5 -254.5t70.5 -322.5q0 -152 -57 -288.5t-155 -236.5t-236.5 -158.5
t-294.5 -58.5zM348 715q0 -131 53.5 -238t157.5 -172t240 -65q134 0 237 65t156 172t53 238t-53 239t-156 174t-237 66q-135 0 -239.5 -66t-158 -174t-53.5 -239zM508 1884h326l69 -356h-192z" />
    <glyph glyph-name="uni1EDD" unicode="&#x1edd;" horiz-adv-x="1216" 
d="M608 -27q-161 0 -292 75t-203 202.5t-72 279.5q0 153 72 280.5t203 203.5t292 76q89 0 172 -25h21q93 0 128.5 36.5t35.5 145.5v66h233v-82q0 -234 -180 -309q75 -75 116.5 -177t41.5 -215q0 -152 -72.5 -279.5t-203.5 -202.5t-292 -75zM317 530q0 -128 81 -216.5
t210 -88.5t210 88.5t81 216.5t-81 218t-210 90t-210 -90t-81 -218zM317 1516h326l70 -357h-193z" />
    <glyph glyph-name="uni1EDE" unicode="&#x1ede;" horiz-adv-x="1593" 
d="M799 -27q-157 0 -296 58.5t-238 158.5t-156.5 236.5t-57.5 288.5t57.5 289.5t156.5 237.5t238 159t296 59q107 0 223 -33h20q93 0 128.5 37t35.5 146v65h234v-82q0 -223 -164 -301q125 -104 195.5 -254.5t70.5 -322.5q0 -152 -57 -288.5t-155 -236.5t-236.5 -158.5
t-294.5 -58.5zM348 715q0 -131 53.5 -238t157.5 -172t240 -65q134 0 237 65t156 172t53 238t-53 239t-156 174t-237 66q-135 0 -239.5 -66t-158 -174t-53.5 -239zM555 1718q0 97 66.5 159t166.5 62q102 0 168 -57t66 -151q0 -101 -61.5 -161.5t-165.5 -60.5q-56 0 -115 27
l47 137q18 -10 47 -10q70 0 70 61q0 23 -17.5 39.5t-40.5 16.5q-26 0 -42.5 -17t-16.5 -45h-172z" />
    <glyph glyph-name="uni1EDF" unicode="&#x1edf;" horiz-adv-x="1216" 
d="M608 -27q-161 0 -292 75t-203 202.5t-72 279.5q0 153 72 280.5t203 203.5t292 76q89 0 172 -25h21q93 0 128.5 36.5t35.5 145.5v66h233v-82q0 -234 -180 -309q75 -75 116.5 -177t41.5 -215q0 -152 -72.5 -279.5t-203.5 -202.5t-292 -75zM317 530q0 -128 81 -216.5
t210 -88.5t210 88.5t81 216.5t-81 218t-210 90t-210 -90t-81 -218zM365 1350q0 97 66.5 159t166.5 62q101 0 167 -57.5t66 -151.5q0 -101 -61.5 -161t-165.5 -60q-58 0 -115 26l48 138q19 -11 47 -11q69 0 69 62q0 23 -17 39t-40 16q-26 0 -42.5 -16.5t-16.5 -44.5h-172z
" />
    <glyph glyph-name="uni1EE0" unicode="&#x1ee0;" horiz-adv-x="1593" 
d="M799 -27q-157 0 -296 58.5t-238 158.5t-156.5 236.5t-57.5 288.5t57.5 289.5t156.5 237.5t238 159t296 59q107 0 223 -33h20q93 0 128.5 37t35.5 146v65h234v-82q0 -223 -164 -301q125 -104 195.5 -254.5t70.5 -322.5q0 -152 -57 -288.5t-155 -236.5t-236.5 -158.5
t-294.5 -58.5zM348 715q0 -131 53.5 -238t157.5 -172t240 -65q134 0 237 65t156 172t53 238t-53 239t-156 174t-237 66q-135 0 -239.5 -66t-158 -174t-53.5 -239zM385 1538q0 137 80.5 212t191.5 75q56 0 105.5 -20t78.5 -43.5t62.5 -43.5t59.5 -20q71 0 71 104h178
q0 -136 -63 -214.5t-184 -78.5q-56 0 -103 20.5t-73.5 45t-62 45t-71.5 20.5q-50 0 -72 -31t-22 -71h-176z" />
    <glyph glyph-name="uni1EE1" unicode="&#x1ee1;" horiz-adv-x="1216" 
d="M608 -27q-161 0 -292 75t-203 202.5t-72 279.5q0 153 72 280.5t203 203.5t292 76q89 0 172 -25h21q93 0 128.5 36.5t35.5 145.5v58q-47 -164 -207 -164q-51 0 -93 20.5t-66 45t-56 45t-64 20.5q-45 0 -64.5 -31.5t-19.5 -71.5h-159q0 137 72.5 212t172.5 75
q50 0 94.5 -20t70.5 -43.5t56 -43.5t54 -20q65 0 65 105h160q0 -69 -14 -121h231v-82q0 -234 -180 -309q75 -75 116.5 -177t41.5 -215q0 -152 -72.5 -279.5t-203.5 -202.5t-292 -75zM317 530q0 -128 81 -216.5t210 -88.5t210 88.5t81 216.5t-81 218t-210 90t-210 -90
t-81 -218z" />
    <glyph glyph-name="uni1EE2" unicode="&#x1ee2;" horiz-adv-x="1593" 
d="M799 -27q-157 0 -296 58.5t-238 158.5t-156.5 236.5t-57.5 288.5t57.5 289.5t156.5 237.5t238 159t296 59q107 0 223 -33h20q93 0 128.5 37t35.5 146v65h234v-82q0 -223 -164 -301q125 -104 195.5 -254.5t70.5 -322.5q0 -152 -57 -288.5t-155 -236.5t-236.5 -158.5
t-294.5 -58.5zM348 715q0 -131 53.5 -238t157.5 -172t240 -65q134 0 237 65t156 172t53 238t-53 239t-156 174t-237 66q-135 0 -239.5 -66t-158 -174t-53.5 -239zM633 -272q0 67 48 114t118 47q71 0 118.5 -47t47.5 -114q0 -70 -47.5 -117t-118.5 -47q-70 0 -118 48t-48 116
z" />
    <glyph glyph-name="uni1EE3" unicode="&#x1ee3;" horiz-adv-x="1216" 
d="M608 -27q-161 0 -292 75t-203 202.5t-72 279.5q0 153 72 280.5t203 203.5t292 76q89 0 172 -25h21q93 0 128.5 36.5t35.5 145.5v66h233v-82q0 -234 -180 -309q75 -75 116.5 -177t41.5 -215q0 -152 -72.5 -279.5t-203.5 -202.5t-292 -75zM317 530q0 -128 81 -216.5
t210 -88.5t210 88.5t81 216.5t-81 218t-210 90t-210 -90t-81 -218zM444 -272q0 67 48 114t118 47q71 0 118.5 -47t47.5 -114q0 -70 -47 -117t-119 -47q-70 0 -118 48t-48 116z" />
    <glyph glyph-name="uni1EE4" unicode="&#x1ee4;" horiz-adv-x="1323" 
d="M662 -27q-261 0 -420.5 155t-159.5 402v904h287v-873q0 -155 74 -240t219 -85t218.5 85t73.5 240v873h287v-904q0 -248 -159 -402.5t-420 -154.5zM496 -272q0 67 48 114t118 47q71 0 118 -47t47 -114q0 -70 -47 -117t-118 -47q-70 0 -118 48t-48 116z" />
    <glyph glyph-name="uni1EE5" unicode="&#x1ee5;" horiz-adv-x="1140" 
d="M477 -25q-175 0 -290 120.5t-115 318.5v651h276v-584q0 -264 213 -264q95 0 158 67t63 197v584h277v-1065h-268v160q-39 -93 -115 -139t-199 -46zM395 -272q0 67 48 114t118 47q71 0 118.5 -47t47.5 -114q0 -70 -47.5 -117t-118.5 -47q-70 0 -118 48t-48 116z" />
    <glyph glyph-name="uni1EE6" unicode="&#x1ee6;" horiz-adv-x="1323" 
d="M662 -27q-261 0 -420.5 155t-159.5 402v904h287v-873q0 -155 74 -240t219 -85t218.5 85t73.5 240v873h287v-904q0 -248 -159 -402.5t-420 -154.5zM418 1686q0 97 66.5 159t166.5 62q101 0 167.5 -57.5t66.5 -151.5q0 -101 -62 -161t-166 -60q-57 0 -114 26l47 137
q18 -10 47 -10q70 0 70 62q0 23 -17 39t-41 16q-26 0 -42.5 -16.5t-16.5 -44.5h-172z" />
    <glyph glyph-name="uni1EE7" unicode="&#x1ee7;" horiz-adv-x="1140" 
d="M477 -25q-175 0 -290 120.5t-115 318.5v651h276v-584q0 -264 213 -264q95 0 158 67t63 197v584h277v-1065h-268v160q-39 -93 -115 -139t-199 -46zM315 1350q0 97 67 159t167 62q101 0 167 -57.5t66 -151.5q0 -101 -61.5 -161t-165.5 -60q-58 0 -115 26l47 138
q19 -11 48 -11q69 0 69 62q0 23 -17 39t-40 16q-27 0 -43.5 -16.5t-16.5 -44.5h-172z" />
    <glyph glyph-name="uni1EE8" unicode="&#x1ee8;" horiz-adv-x="1323" 
d="M662 -27q-261 0 -420.5 155t-159.5 402v904h287v-873q0 -155 74 -240t219 -85t218.5 85t73.5 240v873h107q93 0 128.5 36.5t35.5 145.5v65h233v-82q0 -255 -217 -321v-748q0 -248 -159 -402.5t-420 -154.5zM561 1495l90 356h283l-180 -356h-193z" />
    <glyph glyph-name="uni1EE9" unicode="&#x1ee9;" horiz-adv-x="1175" 
d="M477 -25q-175 0 -290 120.5t-115 318.5v651h276v-584q0 -264 213 -264q95 0 158 67t63 197v584h78q93 0 128.5 36.5t35.5 145.5v66h233v-82q0 -247 -198 -316v-915h-268v160q-39 -93 -115 -139t-199 -46zM459 1159l90 357h282l-180 -357h-192z" />
    <glyph glyph-name="uni1EEA" unicode="&#x1eea;" horiz-adv-x="1323" 
d="M662 -27q-261 0 -420.5 155t-159.5 402v904h287v-873q0 -155 74 -240t219 -85t218.5 85t73.5 240v873h107q93 0 128.5 36.5t35.5 145.5v65h233v-82q0 -255 -217 -321v-748q0 -248 -159 -402.5t-420 -154.5zM371 1851h325l70 -356h-193z" />
    <glyph glyph-name="uni1EEB" unicode="&#x1eeb;" horiz-adv-x="1175" 
d="M477 -25q-175 0 -290 120.5t-115 318.5v651h276v-584q0 -264 213 -264q95 0 158 67t63 197v584h78q93 0 128.5 36.5t35.5 145.5v66h233v-82q0 -247 -198 -316v-915h-268v160q-39 -93 -115 -139t-199 -46zM268 1516h326l70 -357h-193z" />
    <glyph glyph-name="uni1EEC" unicode="&#x1eec;" horiz-adv-x="1323" 
d="M662 -27q-261 0 -420.5 155t-159.5 402v904h287v-873q0 -155 74 -240t219 -85t218.5 85t73.5 240v873h107q93 0 128.5 36.5t35.5 145.5v65h233v-82q0 -255 -217 -321v-748q0 -248 -159 -402.5t-420 -154.5zM418 1686q0 97 66.5 159t166.5 62q101 0 167.5 -57.5
t66.5 -151.5q0 -101 -62 -161t-166 -60q-57 0 -114 26l47 137q18 -10 47 -10q70 0 70 62q0 23 -17 39t-41 16q-26 0 -42.5 -16.5t-16.5 -44.5h-172z" />
    <glyph glyph-name="uni1EED" unicode="&#x1eed;" horiz-adv-x="1175" 
d="M477 -25q-175 0 -290 120.5t-115 318.5v651h276v-584q0 -264 213 -264q95 0 158 67t63 197v584h78q93 0 128.5 36.5t35.5 145.5v66h233v-82q0 -247 -198 -316v-915h-268v160q-39 -93 -115 -139t-199 -46zM315 1350q0 97 67 159t167 62q101 0 167 -57.5t66 -151.5
q0 -101 -61.5 -161t-165.5 -60q-58 0 -115 26l47 138q19 -11 48 -11q69 0 69 62q0 23 -17 39t-40 16q-27 0 -43.5 -16.5t-16.5 -44.5h-172z" />
    <glyph glyph-name="uni1EEE" unicode="&#x1eee;" horiz-adv-x="1323" 
d="M662 -27q-261 0 -420.5 155t-159.5 402v904h287v-873q0 -155 74 -240t219 -85t218.5 85t73.5 240v873h107q93 0 128.5 36.5t35.5 145.5v65h233v-82q0 -255 -217 -321v-748q0 -248 -159 -402.5t-420 -154.5zM248 1505q0 137 80.5 212t191.5 75q56 0 105.5 -20t78.5 -43.5
t62 -43.5t59 -20q72 0 72 104h178q0 -136 -63 -214t-185 -78q-46 0 -84.5 13.5t-65 32.5t-50.5 38.5t-51.5 33t-57.5 13.5q-50 0 -72 -31.5t-22 -71.5h-176z" />
    <glyph glyph-name="uni1EEF" unicode="&#x1eef;" horiz-adv-x="1175" 
d="M477 -25q-175 0 -290 120.5t-115 318.5v651h276v-584q0 -264 213 -264q95 0 158 67t63 197v584h78q93 0 128.5 36.5t35.5 145.5v66h233v-82q0 -247 -198 -316v-915h-268v160q-39 -93 -115 -139t-199 -46zM145 1169q0 70 23 126t62 90.5t87 52.5t101 18q56 0 105.5 -20
t78.5 -43.5t62 -43.5t59 -20q72 0 72 105h178q0 -136 -63.5 -214.5t-184.5 -78.5q-46 0 -84.5 13.5t-65 32.5t-50.5 38.5t-51.5 33t-57.5 13.5q-50 0 -72 -31.5t-22 -71.5h-177z" />
    <glyph glyph-name="uni1EF0" unicode="&#x1ef0;" horiz-adv-x="1323" 
d="M662 -27q-261 0 -420.5 155t-159.5 402v904h287v-873q0 -155 74 -240t219 -85t218.5 85t73.5 240v873h107q93 0 128.5 36.5t35.5 145.5v65h233v-82q0 -255 -217 -321v-748q0 -248 -159 -402.5t-420 -154.5zM496 -272q0 67 48 114t118 47q71 0 118 -47t47 -114
q0 -70 -47 -117t-118 -47q-70 0 -118 48t-48 116z" />
    <glyph glyph-name="uni1EF1" unicode="&#x1ef1;" horiz-adv-x="1175" 
d="M477 -25q-175 0 -290 120.5t-115 318.5v651h276v-584q0 -264 213 -264q95 0 158 67t63 197v584h78q93 0 128.5 36.5t35.5 145.5v66h233v-82q0 -247 -198 -316v-915h-268v160q-39 -93 -115 -139t-199 -46zM395 -272q0 67 48 114t118 47q71 0 118.5 -47t47.5 -114
q0 -70 -47.5 -117t-118.5 -47q-70 0 -118 48t-48 116z" />
    <glyph glyph-name="Ygrave" unicode="&#x1ef2;" horiz-adv-x="1159" 
d="M432 0v575l-485 859h315l225 -412q6 -11 21 -39t23.5 -44t20 -40t19.5 -45t13 -41q19 68 92 209l215 412h313l-485 -865v-569h-287zM289 1884h325l70 -356h-192z" />
    <glyph glyph-name="ygrave" unicode="&#x1ef3;" horiz-adv-x="1103" 
d="M190 -428q-115 0 -184 20l41 265q62 -15 125 -15q76 0 128.5 44t76.5 118l14 45l-422 1016h334l207 -608q29 -82 45 -170q16 88 45 170l207 608h328l-471 -1133q-35 -84 -77.5 -147.5t-99 -112.5t-131.5 -74.5t-166 -25.5zM256 1516h326l69 -357h-192z" />
    <glyph glyph-name="uni1EF4" unicode="&#x1ef4;" horiz-adv-x="1159" 
d="M432 0v575l-485 859h315l225 -412q6 -11 21 -39t23.5 -44t20 -40t19.5 -45t13 -41q19 68 92 209l215 412h313l-485 -865v-569h-287zM416 -272q0 67 48 114t118 47q71 0 118.5 -47t47.5 -114q0 -70 -47 -117t-119 -47q-70 0 -118 48t-48 116z" />
    <glyph glyph-name="uni1EF5" unicode="&#x1ef5;" horiz-adv-x="1103" 
d="M190 -428q-115 0 -184 20l41 265q62 -15 125 -15q76 0 128.5 44t76.5 118l14 45l-422 1016h334l207 -608q29 -82 45 -170q16 88 45 170l207 608h328l-471 -1133q-35 -84 -77.5 -147.5t-99 -112.5t-131.5 -74.5t-166 -25.5zM682 -272q0 67 48 114t118 47q71 0 118.5 -47
t47.5 -114q0 -70 -47 -117t-119 -47q-70 0 -118 48t-48 116z" />
    <glyph glyph-name="uni1EF6" unicode="&#x1ef6;" horiz-adv-x="1159" 
d="M432 0v575l-485 859h315l225 -412q6 -11 21 -39t23.5 -44t20 -40t19.5 -45t13 -41q19 68 92 209l215 412h313l-485 -865v-569h-287zM336 1718q0 97 66.5 159t166.5 62q102 0 168 -57t66 -151q0 -101 -62 -161.5t-166 -60.5q-55 0 -114 27l47 137q17 -10 47 -10
q70 0 70 61q0 23 -17.5 39.5t-40.5 16.5q-26 0 -42.5 -17t-16.5 -45h-172z" />
    <glyph glyph-name="uni1EF7" unicode="&#x1ef7;" horiz-adv-x="1103" 
d="M190 -428q-115 0 -184 20l41 265q62 -15 125 -15q76 0 128.5 44t76.5 118l14 45l-422 1016h334l207 -608q29 -82 45 -170q16 88 45 170l207 608h328l-471 -1133q-35 -84 -77.5 -147.5t-99 -112.5t-131.5 -74.5t-166 -25.5zM303 1350q0 97 67 159t167 62q101 0 167 -57.5
t66 -151.5q0 -101 -61.5 -161t-165.5 -60q-58 0 -115 26l47 138q19 -11 47 -11q70 0 70 62q0 23 -17 39t-40 16q-27 0 -43.5 -16.5t-16.5 -44.5h-172z" />
    <glyph glyph-name="uni1EF8" unicode="&#x1ef8;" horiz-adv-x="1159" 
d="M432 0v575l-485 859h315l225 -412q6 -11 21 -39t23.5 -44t20 -40t19.5 -45t13 -41q19 68 92 209l215 412h313l-485 -865v-569h-287zM166 1538q0 137 80.5 212t191.5 75q56 0 105.5 -20t78.5 -43.5t62 -43.5t59 -20q72 0 72 104h178q0 -136 -63.5 -214.5t-184.5 -78.5
q-46 0 -84.5 13.5t-65 32.5t-50.5 38.5t-51.5 33t-57.5 13.5q-50 0 -72 -31t-22 -71h-176z" />
    <glyph glyph-name="uni1EF9" unicode="&#x1ef9;" horiz-adv-x="1103" 
d="M190 -428q-115 0 -184 20l41 265q62 -15 125 -15q76 0 128.5 44t76.5 118l14 45l-422 1016h334l207 -608q29 -82 45 -170q16 88 45 170l207 608h328l-471 -1133q-35 -84 -77.5 -147.5t-99 -112.5t-131.5 -74.5t-166 -25.5zM133 1169q0 70 23 126t62 90.5t87 52.5t101 18
q56 0 105.5 -20t78.5 -43.5t62 -43.5t59 -20q71 0 71 105h179q0 -136 -63.5 -214.5t-184.5 -78.5q-56 0 -103 20.5t-73.5 45t-62 45t-71.5 20.5q-50 0 -72 -31.5t-22 -71.5h-176z" />
    <glyph glyph-name="uni2007" unicode="&#x2007;" horiz-adv-x="1257" 
 />
    <glyph glyph-name="uni2008" unicode="&#x2008;" horiz-adv-x="456" 
 />
    <glyph glyph-name="uni2009" unicode="&#x2009;" horiz-adv-x="409" 
 />
    <glyph glyph-name="uni200A" unicode="&#x200a;" horiz-adv-x="169" 
 />
    <glyph glyph-name="uni200B" unicode="&#x200b;" horiz-adv-x="0" 
 />
    <glyph glyph-name="uni200C" unicode="&#x200c;" horiz-adv-x="0" 
 />
    <glyph glyph-name="uni200D" unicode="&#x200d;" horiz-adv-x="0" 
 />
    <glyph glyph-name="endash" unicode="&#x2013;" horiz-adv-x="1294" 
d="M61 430v268h1172v-268h-1172z" />
    <glyph glyph-name="emdash" unicode="&#x2014;" horiz-adv-x="1703" 
d="M61 430v268h1581v-268h-1581z" />
    <glyph glyph-name="quoteleft" unicode="&#x2018;" horiz-adv-x="495" 
d="M256 930q-93 0 -149 64t-56 173q0 116 69 203.5t185 128.5l57 21l56 -138l-58 -20q-65 -22 -97.5 -47.5t-45.5 -65.5q24 6 47 6q63 0 111.5 -48.5t48.5 -114.5t-50 -114t-118 -48z" />
    <glyph glyph-name="quoteright" unicode="&#x2019;" horiz-adv-x="495" 
d="M133 932l-55 137l57 21q65 23 98 47.5t46 64.5q-24 -6 -48 -6q-62 0 -110.5 48.5t-48.5 115.5q0 66 50 114t118 48q93 0 148.5 -64t55.5 -174q0 -116 -69 -203.5t-185 -128.5z" />
    <glyph glyph-name="quotesinglbase" unicode="&#x201a;" horiz-adv-x="475" 
d="M123 -285l-55 138l57 20q65 22 97.5 47.5t45.5 65.5q-24 -6 -47 -6q-63 0 -111.5 48.5t-48.5 114.5t50 114t118 48q93 0 149 -64t56 -173q0 -116 -69 -203.5t-185 -128.5z" />
    <glyph glyph-name="quotedblleft" unicode="&#x201c;" horiz-adv-x="925" 
d="M256 930q-93 0 -149 64t-56 173q0 116 69 203.5t185 128.5l57 21l56 -138l-58 -20q-65 -22 -97.5 -47.5t-45.5 -65.5q24 6 47 6q63 0 111.5 -48.5t48.5 -114.5t-50 -114t-118 -48zM481 1167q0 116 69 203.5t185 128.5l58 21l55 -138l-57 -20q-65 -22 -98 -47.5t-46 -65.5
q24 6 47 6q63 0 111.5 -48.5t48.5 -114.5t-50 -114t-118 -48q-93 0 -149 64t-56 173z" />
    <glyph glyph-name="quotedblright" unicode="&#x201d;" horiz-adv-x="919" 
d="M133 932l-55 137l57 21q65 23 98 47.5t46 64.5q-24 -6 -48 -6q-62 0 -110.5 48.5t-48.5 115.5q0 66 50 114t118 48q93 0 148.5 -64t55.5 -174q0 -116 -69 -203.5t-185 -128.5zM496 1360q0 66 50 114t118 48q93 0 148.5 -64t55.5 -174q0 -116 -69 -203.5t-185 -128.5
l-57 -20l-55 137l57 21q65 22 97.5 47t45.5 65q-24 -6 -47 -6q-62 0 -110.5 48.5t-48.5 115.5z" />
    <glyph glyph-name="quotedblbase" unicode="&#x201e;" horiz-adv-x="886" 
d="M545 -285l-56 138l58 20q65 22 97.5 47.5t45.5 65.5q-24 -6 -47 -6q-63 0 -111.5 48.5t-48.5 114.5t50 114t118 48q93 0 149 -64t56 -173q0 -116 -69 -203.5t-185 -128.5zM61 143q0 66 50 114t118 48q93 0 149 -64t56 -173q0 -116 -69 -203.5t-185 -128.5l-57 -21
l-55 138l57 20q65 22 97.5 47.5t45.5 65.5q-24 -6 -47 -6q-63 0 -111.5 48.5t-48.5 114.5z" />
    <glyph glyph-name="dagger" unicode="&#x2020;" horiz-adv-x="778" 
d="M276 594v545h-194v194h194v187h226v-187h194v-194h-194v-545h-226z" />
    <glyph glyph-name="daggerdbl" unicode="&#x2021;" horiz-adv-x="778" 
d="M276 594v186h-194v191h194v172h-194v190h194v187h226v-187h194v-190h-194v-172h194v-191h-194v-186h-226z" />
    <glyph glyph-name="bullet" unicode="&#x2022;" horiz-adv-x="624" 
d="M313 451q-118 0 -197 80t-79 192q0 109 79 187.5t197 78.5t196.5 -78.5t78.5 -187.5q0 -112 -78.5 -192t-196.5 -80z" />
    <glyph glyph-name="ellipsis" unicode="&#x2026;" horiz-adv-x="1314" 
d="M657 -27q-77 0 -128.5 52.5t-51.5 126.5q0 72 51.5 123t128.5 51t128 -51t51 -123q0 -75 -51 -127t-128 -52zM45 152q0 72 51.5 123t128.5 51t127.5 -51t50.5 -123q0 -75 -50.5 -127t-127.5 -52t-128.5 52.5t-51.5 126.5zM911 152q0 72 52 123t129 51t127.5 -51
t50.5 -123q0 -75 -50.5 -127t-127.5 -52t-129 52.5t-52 126.5z" />
    <glyph glyph-name="perthousand" unicode="&#x2030;" horiz-adv-x="2009" 
d="M1741 -16q-138 0 -228 90t-90 221q0 133 90 225t228 92t228.5 -92.5t90.5 -224.5q0 -131 -90.5 -221t-228.5 -90zM31 1133q0 133 90 225t227 92q139 0 229.5 -92.5t90.5 -224.5q0 -131 -91 -221.5t-229 -90.5t-227.5 90.5t-89.5 221.5zM76 0l1020 1434h223l-1018 -1434
h-225zM229 1133q0 -52 33.5 -87.5t85.5 -35.5q55 0 88 35t31 88q0 55 -33 91t-86 36q-52 0 -85.5 -36.5t-33.5 -90.5zM727 295q0 133 90 225t227 92q138 0 229 -92.5t91 -224.5q0 -131 -91 -221t-229 -90t-227.5 90t-89.5 221zM926 295q0 -52 33 -87.5t85 -35.5
q53 -1 87 34.5t32 88.5q0 54 -33.5 90.5t-85.5 36.5t-85 -36t-33 -91zM1622 295q0 -52 33.5 -87.5t85.5 -35.5q53 -1 87 34.5t32 88.5q0 54 -33.5 90.5t-85.5 36.5t-85.5 -36.5t-33.5 -90.5z" />
    <glyph glyph-name="minute" unicode="&#x2032;" horiz-adv-x="507" 
d="M113 887l24 547h309l-188 -547h-145z" />
    <glyph glyph-name="second" unicode="&#x2033;" horiz-adv-x="847" 
d="M113 887l24 547h309l-188 -547h-145zM453 887l24 547h309l-188 -547h-145z" />
    <glyph glyph-name="guilsinglleft" unicode="&#x2039;" horiz-adv-x="653" 
d="M324 98l-263 441l258 438h293l-270 -426l270 -453h-288z" />
    <glyph glyph-name="guilsinglright" unicode="&#x203a;" horiz-adv-x="653" 
d="M330 977l262 -440l-258 -439h-293l270 426l-270 453h289z" />
    <glyph glyph-name="exclamdbl" unicode="&#x203c;" horiz-adv-x="872" 
d="M573 395l-47 787v252h287v-252l-47 -787h-193zM66 154q0 73 53 125.5t131 52.5t130 -52.5t52 -125.5q0 -75 -52 -128t-130 -53t-131 53t-53 128zM111 1182v252h286v-252l-47 -787h-192zM481 154q0 73 53.5 125.5t131.5 52.5t130 -52.5t52 -125.5q0 -75 -52 -128t-130 -53
t-131.5 53.5t-53.5 127.5z" />
    <glyph glyph-name="uni203D" unicode="&#x203d;" horiz-adv-x="1064" 
d="M424 395l-53 735h284l-14 -264q86 39 86 158q0 96 -52 155.5t-153 59.5q-99 0 -157 -53.5t-58 -161.5h-258q0 205 125 320.5t346 115.5q108 0 197 -33.5t146.5 -92t88.5 -135t31 -163.5q0 -64 -17.5 -125t-55.5 -121.5t-110.5 -106t-170.5 -62.5l-13 -226h-192zM332 154
q0 73 53 125.5t131 52.5t130 -52.5t52 -125.5q0 -75 -52 -128t-130 -53t-131 53t-53 128z" />
    <glyph glyph-name="fraction" unicode="&#x2044;" horiz-adv-x="1181" 
d="M-174 0l1264 1434h266l-1264 -1434h-266z" />
    <glyph glyph-name="Euro" unicode="&#x20ac;" horiz-adv-x="1366" 
d="M819 -27q-251 0 -438 142t-256 370h-231l118 174h82q-2 18 -2 56q0 39 2 59h-209l121 174h119q66 229 250.5 370.5t443.5 141.5q171 0 290.5 -51.5t205.5 -153.5l-164 -196q-129 135 -332 135q-128 0 -227 -67t-152 -179h660l-119 -174h-594q-5 -48 2 -115h520l-116 -174
h-355q54 -113 154.5 -179t232.5 -66q99 0 164.5 32.5t132.5 106.5l230 -178q-190 -228 -533 -228z" />
    <glyph glyph-name="uni2116" unicode="&#x2116;" horiz-adv-x="2387" 
d="M102 0v1434h217l699 -830q56 -63 94 -119q-10 76 -10 234v715h262v-1434h-186l-725 862q-60 68 -95 119q11 -84 11 -233v-748h-267zM1505 1049q0 174 119.5 292.5t302.5 118.5t302.5 -118.5t119.5 -292.5q0 -172 -120 -291t-302 -119t-302 119t-120 291zM1542 322v202
h770v-202h-770zM1739 1049q0 -82 52 -139.5t136 -57.5q83 0 135 57.5t52 139.5t-52 140t-135 58q-84 0 -136 -58t-52 -140z" />
    <glyph glyph-name="trademark" unicode="&#x2122;" horiz-adv-x="1882" 
d="M776 573v861h252l170 -361q70 -151 88 -217q23 83 86 217l172 361h246v-861h-199v304q0 142 11 241l-254 -545h-131l-248 535q6 -68 6 -231v-304h-199zM51 1245v189h662v-189h-228v-672h-206v672h-228z" />
    <glyph glyph-name="arrowleft" unicode="&#x2190;" 
d="M682 428l-158 -176l-559 539l559 538l158 -178l-252 -238l827 7v-258l-831 6z" />
    <glyph glyph-name="arrowup" unicode="&#x2191;" 
d="M252 659l-176 158l538 559l539 -559l-178 -158l-238 252l6 -827h-258l7 831z" />
    <glyph glyph-name="arrowright" unicode="&#x2192;" 
d="M547 1151l158 176l559 -539l-559 -538l-158 178l252 238l-828 -7v259l832 -7z" />
    <glyph glyph-name="arrowdown" unicode="&#x2193;" 
d="M977 918l176 -158l-539 -559l-538 559l178 158l238 -252l-7 827h258l-6 -831z" />
    <glyph glyph-name="arrowboth" unicode="&#x2194;" horiz-adv-x="1560" 
d="M1044 215l-155 180l250 230h-721l254 -232l-156 -178l-557 539l557 538l156 -180l-250 -229h721l-254 231l155 178l558 -538z" />
    <glyph glyph-name="arrowupdn" unicode="&#x2195;" 
d="M254 862l-178 156l538 557l539 -557l-180 -156l-230 250v-721l232 254l178 -156l-539 -557l-538 557l180 156l229 -250v721z" />
    <glyph glyph-name="uni2196" unicode="&#x2196;" 
d="M362 428l-235 -14l-14 776l776 -14l-15 -238l-346 10l590 -579l-182 -183l-584 590z" />
    <glyph glyph-name="uni2197" unicode="&#x2197;" 
d="M354 954l-14 236l776 14l-14 -776l-238 14l10 346l-579 -589l-182 182l589 584z" />
    <glyph glyph-name="uni2198" unicode="&#x2198;" 
d="M868 1100l236 14l14 -776l-776 14l14 238l346 -10l-589 579l182 182l584 -589z" />
    <glyph glyph-name="uni2199" unicode="&#x2199;" 
d="M874 573l15 -235l-776 -14l14 776l238 -15l-11 -346l580 590l182 -182l-590 -584z" />
    <glyph glyph-name="partialdiff" unicode="&#x2202;" horiz-adv-x="1167" 
d="M580 -27q-155 0 -279 70.5t-192 189t-68 261.5q0 112 40.5 208t107 158t149 96.5t168.5 34.5q102 0 180 -37q-34 46 -63 78l-269 287l228 176l329 -379q101 -117 161.5 -251.5t60.5 -248.5q0 -159 -42 -283t-117 -202t-174.5 -118t-219.5 -40zM322 494
q0 -108 71.5 -184.5t186.5 -76.5q121 0 189.5 79t68.5 223q0 68 -19 139q-80 74 -239 74q-116 0 -187 -72t-71 -182z" />
    <glyph glyph-name="product" unicode="&#x220f;" horiz-adv-x="1224" 
d="M788 -389v1661h-352v-1661h-262v1661h-154v225h1184v-225h-153v-1661h-263z" />
    <glyph glyph-name="minus" unicode="&#x2212;" horiz-adv-x="1110" 
d="M92 535v225h926v-225h-926z" />
    <glyph glyph-name="radical" unicode="&#x221a;" 
d="M309 -389l-237 811h258l119 -531l319 1606h436v-225h-243l-353 -1661h-299z" />
    <glyph glyph-name="infinity" unicode="&#x221e;" horiz-adv-x="1611" 
d="M428 188q-178 0 -293 117t-115 283q0 165 115 282t293 117q119 0 209 -50t166 -151q78 100 170 150.5t211 50.5q178 0 292.5 -117t114.5 -282q0 -166 -114.5 -283t-292.5 -117q-230 0 -377 201q-79 -102 -169.5 -151.5t-209.5 -49.5zM250 588q0 -73 54 -125.5t128 -52.5
q66 0 125.5 46t124.5 132q-65 86 -124.5 132t-125.5 46q-74 0 -128 -52.5t-54 -125.5zM928 588q65 -86 124.5 -132t125.5 -46q74 0 129 52.5t55 125.5t-55 125.5t-129 52.5q-66 0 -125.5 -46t-124.5 -132z" />
    <glyph glyph-name="integral" unicode="&#x222b;" horiz-adv-x="917" 
d="M0 -410l31 238h86q60 0 96 33t45 110l143 1178q12 96 47.5 165t89 107.5t115.5 56t135 17.5h130l-29 -240h-78q-71 0 -109 -32t-47 -111l-143 -1175q-12 -95 -47.5 -165t-87.5 -108.5t-111 -56t-127 -17.5h-139z" />
    <glyph glyph-name="approxequal" unicode="&#x2248;" horiz-adv-x="1056" 
d="M729 698q-79 0 -146 22.5t-121 45t-100 22.5q-44 0 -73 -21t-53 -67l-191 101q98 182 303 182q65 0 121 -14t87.5 -31t68.5 -31t69 -14q44 0 74 21t53 67l191 -100q-99 -183 -283 -183zM45 436q98 182 303 182q65 0 121 -14t87.5 -31t68.5 -31t69 -14q44 0 74 21t53 67
l191 -100q-98 -182 -283 -182q-79 0 -146 22.5t-121 45t-100 22.5q-44 0 -73 -21t-53 -67z" />
    <glyph glyph-name="notequal" unicode="&#x2260;" horiz-adv-x="1110" 
d="M117 143l100 162h-125v225h266l154 232h-420v225h549l100 162h230l-101 -162h148v-225h-289l-154 -232h443v-225h-569l-101 -162h-231z" />
    <glyph glyph-name="lessequal" unicode="&#x2264;" horiz-adv-x="1110" 
d="M1012 451l-981 430l981 430l-2 -238l-473 -192l473 -193zM92 166v225h926v-225h-926z" />
    <glyph glyph-name="greaterequal" unicode="&#x2265;" horiz-adv-x="1110" 
d="M98 451l2 237l473 193l-473 192l-2 238l981 -430zM92 166v225h926v-225h-926z" />
    <glyph glyph-name="uni2E18" unicode="&#x2e18;" horiz-adv-x="1064" 
d="M639 676l53 -735h-284l14 264q-86 -39 -86 -158q0 -96 52 -155.5t153 -59.5q99 0 157 53.5t58 161.5h258q0 -205 -125 -320.5t-346 -115.5q-108 0 -197 33.5t-146.5 92t-88.5 135t-31 163.5q0 50 10 98.5t35.5 101t64.5 94t101.5 75t142.5 47.5l12 225h193zM365 918
q0 75 52 127.5t130 52.5q79 0 131.5 -53t52.5 -127q0 -73 -53 -126t-131 -53t-130 53t-52 126z" />
    <glyph glyph-name="uniA78B" unicode="&#xa78b;" horiz-adv-x="589" 
d="M199 395l-47 787v252h286v-252l-47 -787h-192z" />
    <glyph glyph-name="uniA78C" unicode="&#xa78c;" horiz-adv-x="589" 
d="M199 539l-47 643v252h286v-252l-47 -643h-192z" />
    <glyph glyph-name="uni004A0301" horiz-adv-x="790" 
d="M283 -23q-86 0 -161.5 15t-117.5 41l109 235q46 -32 131 -32q77 0 122.5 37.5t45.5 117.5v1043h286v-1053q0 -201 -113 -302.5t-302 -101.5zM455 1528l90 356h282l-180 -356h-192z" />
    <glyph glyph-name="uni013B.loclMAH" horiz-adv-x="974" 
d="M102 0v1434h287v-1176h535v-258h-822zM328 -410l69 318h283l-201 -318h-151z" />
    <glyph glyph-name="uni0145.loclMAH" horiz-adv-x="1466" 
d="M102 0v1434h217l699 -830q56 -63 94 -119q-10 76 -10 234v715h262v-1434h-186l-725 862q-60 68 -95 119q11 -84 11 -233v-748h-267zM578 -410l69 318h283l-201 -318h-151z" />
    <glyph glyph-name="C.ss01" horiz-adv-x="1183" 
d="M795 -27q-157 0 -295.5 58.5t-236.5 158.5t-155 236.5t-57 288.5q0 153 54.5 290t151 237.5t236.5 159t302 58.5q198 0 325 -82v-319q-126 135 -325 135q-104 0 -189.5 -38.5t-141.5 -104.5t-86 -152.5t-30 -183.5q0 -201 124.5 -337t326.5 -136q195 0 323 108l-22 -311
q-127 -66 -305 -66z" />
    <glyph glyph-name="Cacute.ss01" horiz-adv-x="1183" 
d="M795 -27q-157 0 -295.5 58.5t-236.5 158.5t-155 236.5t-57 288.5q0 153 54.5 290t151 237.5t236.5 159t302 58.5q198 0 325 -82v-319q-126 135 -325 135q-104 0 -189.5 -38.5t-141.5 -104.5t-86 -152.5t-30 -183.5q0 -201 124.5 -337t326.5 -136q195 0 323 108l-22 -311
q-127 -66 -305 -66zM678 1528l90 356h283l-181 -356h-192z" />
    <glyph glyph-name="Ccaron.ss01" horiz-adv-x="1183" 
d="M795 -27q-157 0 -295.5 58.5t-236.5 158.5t-155 236.5t-57 288.5q0 153 54.5 290t151 237.5t236.5 159t302 58.5q198 0 325 -82v-319q-126 135 -325 135q-104 0 -189.5 -38.5t-141.5 -104.5t-86 -152.5t-30 -183.5q0 -201 124.5 -337t326.5 -136q195 0 323 108l-22 -311
q-127 -66 -305 -66zM461 1884h244l73 -164l74 164h240l-201 -356h-223z" />
    <glyph glyph-name="Ccedilla.ss01" horiz-adv-x="1183" 
d="M758 -436q-61 0 -99 12t-94 53l94 119q40 -35 80 -35q25 0 44.5 14t19.5 44q0 22 -15.5 34.5t-35.5 12.5q-27 0 -45 -6l-9 6l70 155q-203 7 -368 108t-257 268t-92 366q0 153 54.5 290t151 237.5t236.5 159t302 58.5q198 0 325 -82v-319q-126 135 -325 135
q-104 0 -189.5 -38.5t-141.5 -104.5t-86 -152.5t-30 -183.5q0 -201 124.5 -337t326.5 -136q195 0 323 108l-22 -311q-97 -50 -213 -62l-31 -65q53 -14 81 -58.5t28 -99.5q0 -91 -61.5 -140.5t-145.5 -49.5z" />
    <glyph glyph-name="Cdotaccent.ss01" horiz-adv-x="1183" 
d="M795 -27q-157 0 -295.5 58.5t-236.5 158.5t-155 236.5t-57 288.5q0 153 54.5 290t151 237.5t236.5 159t302 58.5q198 0 325 -82v-319q-126 135 -325 135q-104 0 -189.5 -38.5t-141.5 -104.5t-86 -152.5t-30 -183.5q0 -201 124.5 -337t326.5 -136q195 0 323 108l-22 -311
q-127 -66 -305 -66zM612 1686q0 67 48 114t118 47q71 0 118.5 -47t47.5 -114q0 -70 -47 -117t-119 -47q-70 0 -118 48t-48 116z" />
    <glyph glyph-name="i.loclTRK" horiz-adv-x="440" 
d="M82 0v1065h276v-1065h-276zM51 1317q0 67 48 114.5t118 47.5q71 0 118.5 -47.5t47.5 -114.5q0 -69 -47.5 -116.5t-118.5 -47.5q-70 0 -118 48t-48 116z" />
    <glyph glyph-name="uni006A0301" horiz-adv-x="440" 
d="M-57 -410v246h53q86 0 86 98v1131h276v-1145q0 -170 -82 -250t-243 -80h-90zM117 1159l90 357h282l-180 -357h-192z" />
    <glyph glyph-name="uni013C.loclMAH" horiz-adv-x="440" 
d="M82 0v1495h276v-1495h-276zM14 -410l70 318h283l-201 -318h-152z" />
    <glyph glyph-name="uni0146.loclMAH" horiz-adv-x="1157" 
d="M82 0v1065h272v-156q84 181 326 181q175 0 290 -120.5t115 -318.5v-651h-276v584q0 133 -61 198.5t-168 65.5q-95 0 -158.5 -67t-63.5 -197v-584h-276zM379 -410l70 318h282l-201 -318h-151z" />
    <glyph glyph-name="c.ss01" horiz-adv-x="901" 
d="M612 -29q-121 0 -228 44t-182 119t-118 177.5t-43 216.5t43 216.5t118 177.5t182 119t228 44q125 0 234 -45v-280q-35 30 -98.5 52t-135.5 22q-129 0 -209.5 -89t-80.5 -217t80.5 -216.5t209.5 -88.5q153 0 244 88l-10 -295q-109 -45 -234 -45z" />
    <glyph glyph-name="cacute.ss01" horiz-adv-x="901" 
d="M612 -29q-121 0 -228 44t-182 119t-118 177.5t-43 216.5t43 216.5t118 177.5t182 119t228 44q125 0 234 -45v-280q-35 30 -98.5 52t-135.5 22q-129 0 -209.5 -89t-80.5 -217t80.5 -216.5t209.5 -88.5q153 0 244 88l-10 -295q-109 -45 -234 -45zM485 1159l90 357h283
l-180 -357h-193z" />
    <glyph glyph-name="ccaron.ss01" horiz-adv-x="901" 
d="M612 -29q-121 0 -228 44t-182 119t-118 177.5t-43 216.5t43 216.5t118 177.5t182 119t228 44q125 0 234 -45v-280q-35 30 -98.5 52t-135.5 22q-129 0 -209.5 -89t-80.5 -217t80.5 -216.5t209.5 -88.5q153 0 244 88l-10 -295q-109 -45 -234 -45zM268 1516h244l74 -164
l73 164h240l-201 -357h-223z" />
    <glyph glyph-name="ccedilla.ss01" horiz-adv-x="901" 
d="M571 -436q-61 0 -98.5 12t-93.5 53l94 119q40 -35 80 -35q25 0 44 14t19 44q0 22 -15.5 34.5t-35.5 12.5q-27 0 -45 -6l-8 6l68 153q-154 8 -277.5 84.5t-192.5 201t-69 271.5q0 114 43 216.5t118 177.5t182 119t228 44q125 0 234 -45v-280q-35 30 -98.5 52t-135.5 22
q-129 0 -209.5 -89t-80.5 -217t80.5 -216.5t209.5 -88.5q153 0 244 88l-10 -295q-66 -26 -146 -39l-30 -65q53 -14 80.5 -58.5t27.5 -99.5q0 -91 -61.5 -140.5t-145.5 -49.5z" />
    <glyph glyph-name="ccircumflex.ss01" horiz-adv-x="901" 
d="M612 -29q-121 0 -228 44t-182 119t-118 177.5t-43 216.5t43 216.5t118 177.5t182 119t228 44q125 0 234 -45v-280q-35 30 -98.5 52t-135.5 22q-129 0 -209.5 -89t-80.5 -217t80.5 -216.5t209.5 -88.5q153 0 244 88l-10 -295q-109 -45 -234 -45zM268 1159l207 357h223
l201 -357h-240l-73 164l-74 -164h-244z" />
    <glyph glyph-name="cdotaccent.ss01" horiz-adv-x="901" 
d="M612 -29q-121 0 -228 44t-182 119t-118 177.5t-43 216.5t43 216.5t118 177.5t182 119t228 44q125 0 234 -45v-280q-35 30 -98.5 52t-135.5 22q-129 0 -209.5 -89t-80.5 -217t80.5 -216.5t209.5 -88.5q153 0 244 88l-10 -295q-109 -45 -234 -45zM420 1317q0 67 48 114.5
t118 47.5q71 0 118.5 -47.5t47.5 -114.5q0 -69 -47 -116.5t-119 -47.5q-70 0 -118 48t-48 116z" />
    <glyph glyph-name="ij.ss01" horiz-adv-x="880" 
d="M82 0v1065h276v-1065h-276zM53 1317q0 67 48 114.5t118 47.5q71 0 118.5 -47.5t47.5 -114.5q0 -69 -47.5 -116.5t-118.5 -47.5q-70 0 -118 48t-48 116zM496 1317q0 67 48 114.5t118 47.5q71 0 118 -47.5t47 -114.5q0 -70 -47 -117t-118 -47q-70 0 -118 48t-48 116z
M522 -410v1475h277v-1475h-277z" />
    <glyph glyph-name="j.ss01" horiz-adv-x="440" 
d="M82 -410v1475h276v-1475h-276zM55 1317q0 67 48 114.5t118 47.5q71 0 118.5 -47.5t47.5 -114.5q0 -69 -47.5 -116.5t-118.5 -47.5q-70 0 -118 48t-48 116z" />
    <glyph glyph-name="uni0237.ss01" horiz-adv-x="440" 
d="M82 -410v1475h276v-1475h-276z" />
    <glyph glyph-name="uni006A0301.ss01" horiz-adv-x="440" 
d="M82 -410v1475h276v-1475h-276zM119 1159l90 357h283l-181 -357h-192z" />
    <glyph glyph-name="jcircumflex.ss01" horiz-adv-x="440" 
d="M82 -410v1475h276v-1475h-276zM-98 1159l207 357h223l200 -357h-239l-74 164l-74 -164h-243z" />
    <glyph glyph-name="t.ss01" horiz-adv-x="671" 
d="M180 0v829h-170v236h170v246h277v-246h205v-236h-205v-829h-277z" />
    <glyph glyph-name="tcaron.ss01" horiz-adv-x="692" 
d="M180 0v829h-170v236h170v246h277v-246h205v-236h-205v-829h-277zM510 1139l102 377h291l-201 -377h-192z" />
    <glyph glyph-name="uni0163.ss01" horiz-adv-x="671" 
d="M180 0v829h-170v236h170v246h277v-246h205v-236h-205v-829h-39l-41 -88q53 -14 80.5 -58.5t27.5 -99.5q0 -91 -61 -140.5t-145 -49.5q-61 0 -99 12t-94 53l94 119q40 -35 80 -35q25 0 44.5 14t19.5 44q0 22 -16 34.5t-36 12.5q-27 0 -45 -6l-8 6l80 182h-119z" />
    <glyph glyph-name="uni021B.ss01" horiz-adv-x="671" 
d="M180 0v829h-170v236h170v246h277v-246h205v-236h-205v-829h-277zM109 -410l69 318h283l-201 -318h-151z" />
    <glyph glyph-name="uni1E6D.ss01" horiz-adv-x="671" 
d="M180 0v829h-170v236h170v246h277v-246h205v-236h-205v-829h-277zM154 -272q0 67 47.5 114t117.5 47q71 0 118.5 -47t47.5 -114q0 -70 -47.5 -117t-118.5 -47q-70 0 -117.5 48t-47.5 116z" />
    <glyph glyph-name="uni1E6F.ss01" horiz-adv-x="671" 
d="M180 0v829h-170v236h170v246h277v-246h205v-236h-205v-829h-277zM6 -371v185h627v-185h-627z" />
    <glyph glyph-name="u.ss01" horiz-adv-x="1118" 
d="M563 -25q-230 0 -360.5 118t-130.5 321v651h276v-584q0 -134 57 -199t162 -65q106 0 154.5 63t48.5 201v584h277v-651q0 -204 -126 -321.5t-358 -117.5z" />
    <glyph glyph-name="uacute.ss01" horiz-adv-x="1118" 
d="M563 -25q-230 0 -360.5 118t-130.5 321v651h276v-584q0 -134 57 -199t162 -65q106 0 154.5 63t48.5 201v584h277v-651q0 -204 -126 -321.5t-358 -117.5zM453 1159l90 357h282l-180 -357h-192z" />
    <glyph glyph-name="ubreve.ss01" horiz-adv-x="1118" 
d="M563 -25q-230 0 -360.5 118t-130.5 321v651h276v-584q0 -134 57 -199t162 -65q106 0 154.5 63t48.5 201v584h277v-651q0 -204 -126 -321.5t-358 -117.5zM225 1425h219q-2 -46 27 -80t82 -34q55 0 83 33.5t26 80.5h219q0 -126 -89 -205t-239 -79q-149 0 -238.5 79
t-89.5 205z" />
    <glyph glyph-name="ucircumflex.ss01" horiz-adv-x="1118" 
d="M563 -25q-230 0 -360.5 118t-130.5 321v651h276v-584q0 -134 57 -199t162 -65q106 0 154.5 63t48.5 201v584h277v-651q0 -204 -126 -321.5t-358 -117.5zM236 1159l206 357h224l200 -357h-239l-74 164l-74 -164h-243z" />
    <glyph glyph-name="udieresis.ss01" horiz-adv-x="1118" 
d="M563 -25q-230 0 -360.5 118t-130.5 321v651h276v-584q0 -134 57 -199t162 -65q106 0 154.5 63t48.5 201v584h277v-651q0 -204 -126 -321.5t-358 -117.5zM170 1317q0 67 48 114.5t118 47.5q71 0 118.5 -47.5t47.5 -114.5q0 -69 -47 -116.5t-119 -47.5q-70 0 -118 48
t-48 116zM604 1317q0 67 48 114.5t118 47.5q71 0 118.5 -47.5t47.5 -114.5q0 -69 -47 -116.5t-119 -47.5q-70 0 -118 48t-48 116z" />
    <glyph glyph-name="uni1EE5.ss01" horiz-adv-x="1118" 
d="M563 -25q-230 0 -360.5 118t-130.5 321v651h276v-584q0 -134 57 -199t162 -65q106 0 154.5 63t48.5 201v584h277v-651q0 -204 -126 -321.5t-358 -117.5zM397 -272q0 67 48 114t118 47q71 0 118.5 -47t47.5 -114q0 -70 -47.5 -117t-118.5 -47q-70 0 -118 48t-48 116z" />
    <glyph glyph-name="ugrave.ss01" horiz-adv-x="1118" 
d="M563 -25q-230 0 -360.5 118t-130.5 321v651h276v-584q0 -134 57 -199t162 -65q106 0 154.5 63t48.5 201v584h277v-651q0 -204 -126 -321.5t-358 -117.5zM262 1516h326l69 -357h-192z" />
    <glyph glyph-name="uni1EE7.ss01" horiz-adv-x="1118" 
d="M563 -25q-230 0 -360.5 118t-130.5 321v651h276v-584q0 -134 57 -199t162 -65q106 0 154.5 63t48.5 201v584h277v-651q0 -204 -126 -321.5t-358 -117.5zM309 1350q0 97 67 159t167 62q101 0 167 -57.5t66 -151.5q0 -101 -61.5 -161t-165.5 -60q-58 0 -115 26l47 138
q19 -11 47 -11q70 0 70 62q0 23 -17 39t-40 16q-27 0 -43.5 -16.5t-16.5 -44.5h-172z" />
    <glyph glyph-name="uhorn.ss01" horiz-adv-x="1165" 
d="M563 -25q-230 0 -360.5 118t-130.5 321v651h276v-584q0 -134 57 -199t162 -65q106 0 154.5 63t48.5 201v584h90q93 0 128.5 36.5t35.5 145.5v66h233v-82q0 -254 -210 -320v-497q0 -204 -126 -321.5t-358 -117.5z" />
    <glyph glyph-name="uni1EE9.ss01" horiz-adv-x="1165" 
d="M563 -25q-230 0 -360.5 118t-130.5 321v651h276v-584q0 -134 57 -199t162 -65q106 0 154.5 63t48.5 201v584h90q93 0 128.5 36.5t35.5 145.5v66h233v-82q0 -254 -210 -320v-497q0 -204 -126 -321.5t-358 -117.5zM453 1159l90 357h282l-180 -357h-192z" />
    <glyph glyph-name="uni1EF1.ss01" horiz-adv-x="1165" 
d="M563 -25q-230 0 -360.5 118t-130.5 321v651h276v-584q0 -134 57 -199t162 -65q106 0 154.5 63t48.5 201v584h90q93 0 128.5 36.5t35.5 145.5v66h233v-82q0 -254 -210 -320v-497q0 -204 -126 -321.5t-358 -117.5zM397 -272q0 67 48 114t118 47q71 0 118.5 -47t47.5 -114
q0 -70 -47.5 -117t-118.5 -47q-70 0 -118 48t-48 116z" />
    <glyph glyph-name="uni1EEB.ss01" horiz-adv-x="1165" 
d="M563 -25q-230 0 -360.5 118t-130.5 321v651h276v-584q0 -134 57 -199t162 -65q106 0 154.5 63t48.5 201v584h90q93 0 128.5 36.5t35.5 145.5v66h233v-82q0 -254 -210 -320v-497q0 -204 -126 -321.5t-358 -117.5zM262 1516h326l69 -357h-192z" />
    <glyph glyph-name="uni1EED.ss01" horiz-adv-x="1165" 
d="M563 -25q-230 0 -360.5 118t-130.5 321v651h276v-584q0 -134 57 -199t162 -65q106 0 154.5 63t48.5 201v584h90q93 0 128.5 36.5t35.5 145.5v66h233v-82q0 -254 -210 -320v-497q0 -204 -126 -321.5t-358 -117.5zM309 1350q0 97 67 159t167 62q101 0 167 -57.5t66 -151.5
q0 -101 -61.5 -161t-165.5 -60q-58 0 -115 26l47 138q19 -11 47 -11q70 0 70 62q0 23 -17 39t-40 16q-27 0 -43.5 -16.5t-16.5 -44.5h-172z" />
    <glyph glyph-name="uni1EEF.ss01" horiz-adv-x="1165" 
d="M563 -25q-230 0 -360.5 118t-130.5 321v651h276v-584q0 -134 57 -199t162 -65q106 0 154.5 63t48.5 201v584h90q93 0 128.5 36.5t35.5 145.5v66h233v-82q0 -254 -210 -320v-497q0 -204 -126 -321.5t-358 -117.5zM139 1169q0 70 23 126t62 90.5t87 52.5t101 18
q56 0 105.5 -20t78.5 -43.5t62 -43.5t59 -20q71 0 71 105h179q0 -136 -63.5 -214.5t-184.5 -78.5q-46 0 -84.5 13.5t-65 32.5t-50.5 38.5t-51.5 33t-57.5 13.5q-50 0 -72.5 -31.5t-22.5 -71.5h-176z" />
    <glyph glyph-name="uhungarumlaut.ss01" horiz-adv-x="1118" 
d="M563 -25q-230 0 -360.5 118t-130.5 321v651h276v-584q0 -134 57 -199t162 -65q106 0 154.5 63t48.5 201v584h277v-651q0 -204 -126 -321.5t-358 -117.5zM295 1159l65 357h273l-197 -357h-141zM633 1159l65 357h273l-197 -357h-141z" />
    <glyph glyph-name="umacron.ss01" horiz-adv-x="1118" 
d="M563 -25q-230 0 -360.5 118t-130.5 321v651h276v-584q0 -134 57 -199t162 -65q106 0 154.5 63t48.5 201v584h277v-651q0 -204 -126 -321.5t-358 -117.5zM242 1225v184h626v-184h-626z" />
    <glyph glyph-name="uogonek.ss01" horiz-adv-x="1118" 
d="M563 -25q-230 0 -360.5 118t-130.5 321v651h276v-584q0 -134 57 -199t162 -65q106 0 154.5 63t48.5 201v584h277v-651q0 -132 -54 -229.5t-157 -151.5l-91 -72q-57 -44 -57 -102q0 -40 30.5 -61t74.5 -21q25 0 53 8l49 -195q-76 -24 -154 -24q-115 0 -180 62.5t-65 168.5
q0 101 69 178h-2z" />
    <glyph glyph-name="uring.ss01" horiz-adv-x="1118" 
d="M563 -25q-230 0 -360.5 118t-130.5 321v651h276v-584q0 -134 57 -199t162 -65q106 0 154.5 63t48.5 201v584h277v-651q0 -204 -126 -321.5t-358 -117.5zM334 1356q0 89 64.5 152t154.5 63q91 0 155 -63t64 -152t-64 -152t-155 -63q-90 0 -154.5 63t-64.5 152zM475 1356
q0 -31 23.5 -54.5t54.5 -23.5q30 0 52 23.5t22 54.5t-21.5 53.5t-52.5 22.5t-54.5 -22.5t-23.5 -53.5z" />
    <glyph glyph-name="utilde.ss01" horiz-adv-x="1118" 
d="M563 -25q-230 0 -360.5 118t-130.5 321v651h276v-584q0 -134 57 -199t162 -65q106 0 154.5 63t48.5 201v584h277v-651q0 -204 -126 -321.5t-358 -117.5zM139 1169q0 70 23 126t62 90.5t87 52.5t101 18q56 0 105.5 -20t78.5 -43.5t62 -43.5t59 -20q71 0 71 105h179
q0 -136 -63.5 -214.5t-184.5 -78.5q-46 0 -84.5 13.5t-65 32.5t-50.5 38.5t-51.5 33t-57.5 13.5q-50 0 -72.5 -31.5t-22.5 -71.5h-176z" />
    <glyph glyph-name="f_f.ss02" 
d="M160 1106q0 181 111 285t284 104q104 0 174.5 -23.5t122.5 -82.5q34 55 90.5 80.5t147.5 25.5h94v-235h-72q-121 0 -121 -127v-68h217v-236h-217v-829h-276v829h-279v-829h-276v829h-150v236h150v41zM436 1065h279v37q0 73 -36.5 119.5t-103.5 46.5q-66 0 -102.5 -46.5
t-36.5 -119.5v-37z" />
    <glyph glyph-name="f_f_l.ss02" horiz-adv-x="1628" 
d="M715 0v829h-279v-829h-276v829h-150v236h150v41q0 181 111 285t284 104q94 0 172.5 -37.5t130.5 -107.5q42 78 107.5 111.5t164.5 33.5q186 0 301 -104t115 -285v-1106h-276v1102q0 73 -36.5 119.5t-103.5 46.5q-66 0 -102.5 -46.5t-36.5 -119.5v-37h217v-236h-217v-829
h-276zM436 1065h279v37q0 73 -36.5 119.5t-103.5 46.5q-66 0 -102.5 -46.5t-36.5 -119.5v-37z" />
    <glyph glyph-name="f_t.ss02" horiz-adv-x="1226" 
d="M160 1106q0 183 114 286t301 103q186 0 301 -104t115 -285v-41h226v-236h-226v-829h-276v829h-279v-829h-276v829h-150v236h150v41zM436 1065h279v37q0 73 -36.5 119.5t-103.5 46.5q-66 0 -102.5 -46.5t-36.5 -119.5v-37z" />
    <glyph glyph-name="fi.ss02" horiz-adv-x="1073" 
d="M160 1106q0 183 114 286t301 103q186 0 301 -104t115 -285h-276q0 71 -36.5 116.5t-103.5 45.5q-66 0 -102.5 -46.5t-36.5 -119.5v-37h226v-236h-226v-829h-276v829h-150v236h150v41zM715 0v1065h276v-1065h-276z" />
    <glyph glyph-name="fl.ss02" horiz-adv-x="1073" 
d="M160 1106q0 183 114 286t301 103q186 0 301 -104t115 -285v-1106h-276v1102q0 73 -36.5 119.5t-103.5 46.5q-66 0 -102.5 -46.5t-36.5 -119.5v-37h226v-236h-226v-829h-276v829h-150v236h150v41z" />
    <glyph glyph-name="pi.ss01" horiz-adv-x="1153" 
d="M164 0v829h-141v236h1107v-236h-141v-829h-276v829h-273v-829h-276z" />
    <glyph glyph-name="zero.ss01" horiz-adv-x="1196" 
d="M598 -27q-117 0 -214.5 47.5t-169.5 138.5t-112.5 233t-40.5 321q0 357 144.5 550t392.5 193t392.5 -194.5t144.5 -548.5q0 -179 -40.5 -320.5t-112.5 -232.5t-169.5 -139t-214.5 -48zM358 713q0 -129 17 -221.5t49 -147t75 -79.5t99 -25t99 25t75 79.5t49 147t17 221.5
q0 137 -16.5 231.5t-49.5 147.5t-75 75.5t-99 22.5t-99 -22.5t-75 -75.5t-49.5 -147.5t-16.5 -231.5z" />
    <glyph glyph-name="one.ss01" horiz-adv-x="622" 
d="M227 0v1182h-227v252h514v-1434h-287z" />
    <glyph glyph-name="zero.tf" 
d="M614 -27q-160 0 -281 73.5t-182 193t-61 264.5v422q0 108 36 204t101.5 168.5t165.5 115t221 42.5t221 -42.5t166 -115t102 -168.5t36 -204v-422q0 -108 -36 -204t-102 -169t-166 -115.5t-221 -42.5zM387 524q0 -54 11 -101.5t36 -90t71 -67.5t109 -25q51 0 91 17
t65.5 44.5t42 65.5t23 76.5t6.5 80.5v379q0 287 -228 287q-227 0 -227 -287v-379z" />
    <glyph glyph-name="one.tf" 
d="M528 0v1114h-247v31l247 289h287v-1434h-287z" />
    <glyph glyph-name="two.tf" 
d="M86 0v33l573 676q144 167 144 278q0 94 -56.5 150.5t-154.5 56.5q-100 0 -154.5 -60.5t-54.5 -170.5h-297q0 220 143.5 358.5t366.5 138.5q220 0 362 -131.5t142 -324.5q0 -89 -28 -165t-97 -165l-223 -291q-69 -89 -127 -131h483v-252h-1022z" />
    <glyph glyph-name="three.tf" 
d="M618 -27q-234 0 -369.5 118.5t-135.5 336.5h286q0 -207 219 -207q97 0 149 51t52 127q0 105 -65.5 163t-173.5 56l-146 -2v236h146q107 0 168 46.5t61 135.5q0 78 -48.5 128t-142.5 50q-99 0 -154.5 -47.5t-55.5 -140.5h-277q0 204 132 320t355 116q217 0 342 -117
t125 -296q0 -216 -170 -302q189 -100 189 -360q0 -179 -130.5 -295.5t-355.5 -116.5z" />
    <glyph glyph-name="four.tf" 
d="M719 0v367h-692v92l735 975h244v-838h163v-229h-163v-367h-287zM410 596h311v192q0 164 8 240q-34 -59 -86 -129z" />
    <glyph glyph-name="five.tf" 
d="M553 -27q-128 0 -233 24t-218 87l105 250q160 -94 325 -94q138 0 208.5 59.5t70.5 165.5q0 110 -71.5 172.5t-227.5 62.5q-160 0 -332 -90l133 824h680v-252h-456l-39 -254q41 14 120 14q100 0 182 -26t138.5 -70.5t95 -105.5t56.5 -130t18 -145q0 -215 -154.5 -353.5
t-400.5 -138.5z" />
    <glyph glyph-name="six.tf" 
d="M610 -27q-231 0 -377.5 138.5t-146.5 353.5q0 89 23 167t92 183l407 619h334l-332 -504q158 14 279 -41t185.5 -165.5t64.5 -258.5q0 -214 -149 -353t-380 -139zM383 465q0 -96 61.5 -160.5t165.5 -64.5q107 0 169.5 64.5t62.5 160.5q0 98 -63 170t-167 72t-166.5 -72
t-62.5 -170z" />
    <glyph glyph-name="seven.tf" 
d="M707 1116q8 19 41 66h-666v252h1075l4 -31l-676 -1403h-307z" />
    <glyph glyph-name="eight.tf" 
d="M614 -27q-225 0 -360 117t-135 295q0 129 56.5 219.5t152.5 140.5q-168 100 -168 308q0 179 119.5 293t334.5 114q216 0 335.5 -113.5t119.5 -293.5q0 -211 -168 -308q209 -114 209 -360q0 -178 -135 -295t-361 -117zM401 422q0 -83 61 -143t152 -60t152 60t61 143
q0 89 -60.5 148t-152.5 59t-152.5 -59t-60.5 -148zM434 1040q0 -80 50.5 -132t129.5 -52t130 52t53 132q2 74 -49.5 124t-133.5 50q-79 0 -129.5 -50t-50.5 -124z" />
    <glyph glyph-name="nine.tf" 
d="M281 0l333 504q-239 -21 -383.5 109t-144.5 356q0 214 148.5 352.5t379.5 138.5t378 -138.5t147 -352.5q0 -89 -23 -167.5t-92 -183.5l-410 -618h-333zM383 969q0 -98 62.5 -170t166.5 -72t167 72t63 170q0 96 -62 160.5t-166 64.5q-107 0 -169 -64.5t-62 -160.5z" />
    <glyph glyph-name="zero.ss01.tf" 
d="M614 -27q-117 0 -214.5 47.5t-169.5 138.5t-112 233t-40 321q0 357 144 550t392 193t392.5 -194.5t144.5 -548.5q0 -179 -40.5 -320.5t-112.5 -232.5t-169.5 -139t-214.5 -48zM375 713q0 -251 62 -362t177 -111q56 0 99 25t75 79.5t49 147t17 221.5q0 137 -16.5 231.5
t-49.5 147.5t-75 75.5t-99 22.5t-99 -22.5t-74.5 -75.5t-49 -147.5t-16.5 -231.5z" />
    <glyph glyph-name="one.ss01.tf" 
d="M508 0v1182h-227v252h514v-1434h-287z" />
    <glyph glyph-name="onehalf.ss01" horiz-adv-x="1525" 
d="M-25 0l1264 1434h266l-1263 -1434h-267zM45 1249v185h352v-820h-221v635h-131zM913 541q0 122 91 202t221 80q126 0 215.5 -76.5t89.5 -183.5q0 -46 -14.5 -87.5t-51.5 -96.5l-57 -86q-42 -62 -115 -121h258v-182h-635v20l349 432q43 55 43 117q0 35 -21 57.5t-57 22.5
q-47 0 -68.5 -23.5t-21.5 -74.5h-226z" />
    <glyph glyph-name="onequarter.ss01" horiz-adv-x="1480" 
d="M-25 0l1264 1434h266l-1263 -1434h-267zM45 1249v185h352v-820h-221v635h-131zM725 178v96l418 545h211v-461h78v-180h-78v-178h-221v178h-408zM961 352h172v76v18.5v21t0.5 20.5t1 23.5t2.5 23.5t4 27t5.5 26.5t8.5 29.5z" />
    <glyph glyph-name="space.tf" 
 />
    <glyph glyph-name="period.tf" 
d="M616 -27q-78 0 -131 53t-53 128q0 73 53 125.5t131 52.5t130.5 -52.5t52.5 -125.5q0 -75 -52.5 -128t-130.5 -53z" />
    <glyph glyph-name="comma.tf" 
d="M494 -285l-56 138l58 20q65 22 97.5 47.5t45.5 65.5q-24 -6 -47 -6q-63 0 -111.5 48.5t-48.5 114.5t50 114t118 48q93 0 149 -64t56 -173q0 -116 -69 -203.5t-185 -128.5z" />
    <glyph glyph-name="colon.tf" 
d="M614 764q-78 0 -131 53t-53 127q0 73 53 125.5t131 52.5t130.5 -52.5t52.5 -125.5q0 -75 -52.5 -127.5t-130.5 -52.5zM430 154q0 73 53 125.5t131 52.5t130.5 -52.5t52.5 -125.5q0 -75 -52.5 -128t-130.5 -53t-131 53t-53 128z" />
    <glyph glyph-name="semicolon.tf" 
d="M510 -285l-55 138l57 20q65 22 97.5 47.5t45.5 65.5q-24 -6 -47 -6q-62 0 -110.5 48t-48.5 115q0 66 49.5 114t117.5 48q93 0 149 -64t56 -173q0 -116 -69 -203.5t-185 -128.5zM432 944q0 73 53 125.5t131 52.5t130.5 -52.5t52.5 -125.5q0 -75 -52.5 -127.5t-130.5 -52.5
t-131 53t-53 127z" />
    <glyph glyph-name="numbersign.tf" 
d="M551 0l98 391h-270l-98 -391h-242l96 391h-164v219h224l75 308h-268v219h320l90 358h245l-90 -358h269l88 358h245l-90 -358h176v-219h-235l-78 -308h283v-219h-334l-98 -391h-242zM424 610h289l78 308h-289z" />
    <glyph glyph-name="florin.tf" 
d="M78 0v238h158q76 0 120.5 35.5t65.5 127.5l55 244h-338v225h387l45 197q23 105 64.5 178t99 113.5t122.5 58t147 17.5h149v-240h-127q-87 0 -133.5 -34.5t-67.5 -127.5l-37 -162h304v-225h-353l-63 -278q-23 -104 -64 -177t-97 -113.5t-118.5 -58.5t-138.5 -18h-180z" />
    <glyph glyph-name="Euro.ss01" horiz-adv-x="1204" 
d="M795 -27q-157 0 -295.5 58.5t-236.5 158.5t-155 236.5t-57 288.5q0 153 54.5 290t151 237.5t236.5 159t302 58.5q198 0 325 -82v-319q-126 135 -325 135q-138 0 -240.5 -66t-155.5 -178h584v-176h-641q-5 -47 2 -112h639v-177h-584q54 -112 158 -177.5t242 -65.5
q195 0 323 108l-22 -311q-127 -66 -305 -66z" />
    <glyph glyph-name="cent.tf" 
d="M545 0v213q-175 41 -282 175.5t-107 307.5t107 308t282 176v254h225v-248q175 -28 301 -170l-188 -154q-86 96 -205 96q-123 0 -192.5 -71.5t-69.5 -190.5t69.5 -190.5t192.5 -71.5q133 0 221 109l180 -156q-126 -152 -309 -180v-207h-225z" />
    <glyph glyph-name="currency.tf" 
d="M614 219q-110 0 -200 41l-138 -149l-180 165l133 144q-69 107 -69 239q0 135 69 242l-133 143l180 166l138 -151q87 43 200 43q114 0 201 -43l137 151l181 -166l-134 -143q70 -109 70 -242q0 -130 -70 -239l134 -144l-181 -165l-137 149q-90 -41 -201 -41zM410 659
q0 -89 56.5 -147.5t147.5 -58.5t148 58.5t57 147.5t-57 149t-148 60t-147.5 -60t-56.5 -149z" />
    <glyph glyph-name="dollar.tf" 
d="M559 -172v147q-319 26 -481 308l248 157q54 -106 136.5 -158.5t180.5 -52.5q99 0 157 45t58 119q0 42 -18.5 75.5t-45 55.5t-74.5 42.5t-87 32.5t-103 28q-172 44 -267 144.5t-95 258.5q0 166 105.5 278.5t285.5 141.5v209h225v-209q225 -40 363 -258l-246 -152
q-54 86 -109 124t-133 38q-87 0 -142.5 -43.5t-55.5 -114.5q0 -31 12.5 -56t30 -41.5t51.5 -33t60.5 -26t72.5 -23.5q145 -46 198 -70q221 -100 257 -298q8 -40 8 -86q0 -162 -97 -273.5t-270 -146.5v-162h-225z" />
    <glyph glyph-name="Euro.tf" 
d="M819 -27q-251 0 -438 142t-256 370h-231l118 174h82q-2 18 -2 56q0 39 2 59h-209l121 174h119q66 229 250.5 370.5t443.5 141.5q171 0 290.5 -51.5t205.5 -153.5l-164 -196q-129 135 -332 135q-128 0 -227 -67t-152 -179h660l-119 -174h-594q-5 -48 2 -115h520l-116 -174
h-355q54 -113 154.5 -179t232.5 -66q99 0 164.5 32.5t132.5 106.5l230 -178q-190 -228 -533 -228z" />
    <glyph glyph-name="sterling.tf" 
d="M225 -20l-172 153l82 90q86 95 128 159t42 124q0 30 -6 57h-227v205h125q-84 109 -84 254q0 81 32.5 158t91.5 140t154 101.5t209 38.5q251 0 390.5 -134.5t139.5 -362.5h-296q0 98 -59.5 164.5t-158.5 66.5q-92 0 -149 -58t-57 -141q0 -109 71 -227h361v-205h-277
q2 -14 2 -47q0 -101 -55 -192q46 -4 154 -34t153 -30q103 0 176 102l189 -200q-66 -90 -158.5 -132t-173.5 -42q-66 0 -124 14.5t-93 31.5t-84 31.5t-100 14.5q-155 0 -226 -100z" />
    <glyph glyph-name="yen.tf" 
d="M469 0v172h-295v193h295v108h-295v199h252l-440 760l313 2l197 -371q104 -194 127 -279q26 94 118 279l187 371l313 -2l-438 -760h278v-199h-325v-108h325v-193h-325v-172h-287z" />
    <glyph glyph-name="Euro.ss01.tf" 
d="M813 -27q-157 0 -295.5 58.5t-236.5 158.5t-154.5 236.5t-56.5 288.5q0 205 92.5 374.5t263.5 270t387 100.5q199 0 326 -82v-319q-126 135 -326 135q-138 0 -240 -66t-155 -178h583v-176h-641q-5 -47 2 -112h639v-177h-583q54 -112 158 -177.5t241 -65.5q196 0 324 108
l-23 -311q-127 -66 -305 -66z" />
    <glyph glyph-name="uni00B5.ss01" horiz-adv-x="1118" 
d="M72 -410v1475h276v-584q0 -136 54.5 -200t164.5 -64q106 0 154.5 63t48.5 201v584h277v-651q0 -204 -126 -321.5t-358 -117.5q-131 0 -215 54v-439h-276z" />
    <glyph glyph-name="uni030C.alt" horiz-adv-x="0" 
d="M23 1016l102 418h291l-201 -418h-192z" />
    <glyph glyph-name="IJacute" horiz-adv-x="1282" 
d="M102 0v1434h287v-1434h-287zM145 1528l91 356h282l-180 -356h-193zM496 33l108 235q46 -32 131 -32q77 0 122.5 37.5t45.5 117.5v1043h287v-1053q0 -201 -113.5 -302.5t-302.5 -101.5q-187 0 -278 56zM946 1528l90 356h283l-180 -356h-193z" />
    <glyph glyph-name="ijacute" horiz-adv-x="880" 
d="M82 0v1065h276v-1065h-276zM117 1159l90 357h282l-180 -357h-192zM383 -410v246h53q86 0 86 98v1131h277v-1145q0 -170 -82 -250t-244 -80h-90zM557 1159l90 357h283l-180 -357h-193z" />
    <glyph glyph-name="ijacute.ss01" horiz-adv-x="880" 
d="M82 0v1065h276v-1065h-276zM117 1159l90 357h282l-180 -357h-192zM522 -410v1475h277v-1475h-277zM559 1159l90 357h283l-180 -357h-193z" />
    </font>
</defs>
</svg>
